<svg width="499" height="485" viewBox="0 0 499 485" fill="none" xmlns="http://www.w3.org/2000/svg">
<path d="M394.34 269.221C381.58 273.321 367.66 272.951 355.37 268.001L359.75 254.511L372.66 214.781C364.5 208.851 336.09 188.211 328.41 182.631C338.23 167.101 357.73 156.421 376.53 156.721C441.5 157.701 456.57 247.681 394.33 269.221M345.69 418.931C307.41 431.861 267.03 400.101 270.37 359.951C279.59 359.951 315.59 359.951 325.49 359.951C328.6 350.391 339.35 317.311 342.27 308.291C397.7 323.021 400.36 400.691 345.69 418.921M188.28 418.921C134.04 436.091 90.3502 373.291 125.17 328.411C132.59 318.901 143.61 311.381 156.06 308.291C158.91 317.061 169.79 350.551 172.84 359.941H227.96C229.84 386.181 213.63 410.701 188.27 418.921M66.9802 232.201C47.8702 167.791 131.5 127.601 169.91 182.641L158.47 190.951L125.68 214.771L138.61 254.561L142.98 268.001C141.88 268.431 140.77 268.841 139.64 269.211C110.14 279.021 76.7202 262.641 66.9902 232.201M208.43 310.971C201.75 290.411 189.93 254.031 183.25 233.481C200.53 220.921 231.89 198.141 249.16 185.591C266.45 198.141 297.78 220.921 315.07 233.481C308.4 254.031 296.57 290.401 289.89 310.971C268.05 310.971 230.25 310.971 208.42 310.971M191.5 121.861C191.5 90.0214 217.31 64.2114 249.15 64.2114C297.24 63.9714 324.2 120.741 294.21 157.801C286.71 152.351 257.2 130.911 249.15 125.061C240.92 131.041 211.81 152.191 204.09 157.801C196.2 148.001 191.5 135.221 191.5 121.861ZM485 179.131C468.44 126.991 415.48 93.7214 361.35 101.321C336.28 -22.6686 162.1 -22.7786 136.97 101.301C120.14 99.0314 102.76 100.591 86.5602 105.881C-8.52983 136.491 -19.8298 268.251 67.6502 314.841C31.0802 388.481 87.0302 479.181 170.45 478.181C199.17 478.441 229 466.311 249.12 446.691C335.19 527.021 471.51 442.181 436.37 328.831C434.79 323.971 432.89 319.271 430.73 314.751C478.2 290.191 502.58 229.911 485.01 179.121" fill="#FAAD40"/>
</svg>
