<svg width="491" height="214" viewBox="0 0 491 214" fill="none" xmlns="http://www.w3.org/2000/svg">
<path d="M244.771 140.861V104.261H143.301V140.861H159.911V119.491H185.351V193.111H171.291V208.341H216.781V193.111H202.721V119.491H228.091V140.861H244.771Z" fill="white"/>
<path d="M273.841 161.681L288.661 123.221H290.141L304.961 161.681H273.831H273.841ZM335.621 193.111L300.471 104.261H257.161V119.491H273.821L244.631 193.111H235.811V208.341H280.481V193.111H261.731L268.401 175.811H310.421L317.091 193.111H298.621V208.341H344.391V193.111H335.641H335.621Z" fill="white"/>
<path d="M122.9 119.491H135.4V104.261H104.95L70.2199 162.421L37.8199 104.261H5.41992V119.491H19.0399V193.111H5.41992V208.341H49.7899V193.111H36.4099V134.071L63.3199 181.541H76.7199L105.47 133.011H105.53V193.111H91.4199V208.341H135.79V193.111H122.9V119.491Z" fill="white"/>
<path d="M13.6908 48.5607H5.55078V44.1807H27.0108V48.5607H18.7908V71.0707H13.6908V48.5607Z" fill="white"/>
<path d="M46.7402 66.0311C47.9302 65.2911 48.8502 64.2111 49.4902 62.7911C50.1402 61.3711 50.4602 59.6811 50.4602 57.7111V57.4711C50.4602 55.5511 50.1402 53.8911 49.5102 52.4711C48.8802 51.0511 47.9702 49.9711 46.8002 49.2311C45.6302 48.4911 44.2102 48.1211 42.5702 48.1211C40.9302 48.1211 39.5402 48.4911 38.3402 49.2311C37.1402 49.9711 36.2202 51.0511 35.5902 52.4511C34.9502 53.8511 34.6402 55.5411 34.6402 57.5111V57.6711C34.6402 59.6411 34.9502 61.3311 35.5702 62.7511C36.1902 64.1711 37.0902 65.2511 38.2602 66.0111C39.4302 66.7711 40.8402 67.1411 42.4902 67.1411C44.1402 67.1411 45.5502 66.7711 46.7402 66.0311ZM35.5202 69.8411C33.5202 68.6711 31.9802 67.0211 30.8802 64.9011C29.7902 62.7811 29.2402 60.3611 29.2402 57.6311C29.2402 54.9011 29.8002 52.4811 30.9202 50.3611C32.0402 48.2411 33.6102 46.6011 35.6402 45.4211C37.6702 44.2411 40.0002 43.6611 42.6502 43.6611C45.3002 43.6611 47.5402 44.2511 49.5302 45.4211C51.5302 46.5911 53.0702 48.2411 54.1702 50.3611C55.2602 52.4811 55.8102 54.9011 55.8102 57.6311C55.8102 60.3611 55.2602 62.7811 54.1502 64.9011C53.0402 67.0211 51.4702 68.6711 49.4302 69.8411C47.3902 71.0111 45.0502 71.6011 42.4002 71.6011C39.7502 71.6011 37.5102 71.0111 35.5202 69.8411Z" fill="white"/>
<path d="M60.6309 44.1807H66.4609L78.3609 62.5307V44.1807H83.2209V71.1107H78.3209L65.4909 51.3907V71.0707H60.6309V44.1807Z" fill="white"/>
<path d="M93.9409 69.9211C92.0909 68.8011 90.6609 67.2111 89.6509 65.1611C88.6409 63.1111 88.1309 60.7311 88.1309 58.0311C88.1309 55.1111 88.6809 52.5811 89.7709 50.4211C90.8609 48.2611 92.3809 46.5911 94.3309 45.4211C96.2709 44.2511 98.5109 43.6611 101.051 43.6611C104.261 43.6611 106.881 44.4811 108.911 46.1111C110.931 47.7411 112.181 50.1011 112.641 53.1811H107.341C107.041 51.5111 106.361 50.2611 105.291 49.4511C104.221 48.6411 102.801 48.2311 101.021 48.2311C99.5109 48.2311 98.1809 48.6211 97.0509 49.3811C95.9209 50.1511 95.0309 51.2611 94.3809 52.7011C93.7309 54.1411 93.4109 55.8711 93.4109 57.8611V58.2211C93.4109 60.0811 93.7109 61.6911 94.3209 63.0411C94.9309 64.3911 95.8109 65.4111 96.9709 66.1211C98.1309 66.8211 99.4909 67.1711 101.061 67.1711C102.271 67.1711 103.371 66.9311 104.361 66.4611C105.351 65.9911 106.121 65.3011 106.691 64.3911C107.261 63.4811 107.541 62.4111 107.541 61.1711V60.2811L109.691 61.8611H101.551V57.6511H112.771V71.0511H108.231V67.3611C107.451 68.7111 106.381 69.7511 105.031 70.4811C103.681 71.2111 102.141 71.5811 100.411 71.5811C97.9509 71.5811 95.8009 71.0211 93.9509 69.9011" fill="white"/>
<path d="M142.63 65.7904C143.87 65.1304 144.8 64.1304 145.42 62.7904C146.04 61.4504 146.35 59.7904 146.35 57.7904V57.5504C146.35 55.4704 146.06 53.7604 145.48 52.4304C144.9 51.0904 144.01 50.1004 142.81 49.4504C141.61 48.8004 140.08 48.4804 138.21 48.4804H133.63V55.6504H139.42V59.5404H133.63V66.7904H137.96C139.82 66.7904 141.38 66.4604 142.62 65.8004M128.41 59.5404H125.66V55.6504H128.41V44.1904H138.29C142.58 44.1904 145.88 45.3404 148.19 47.6304C150.5 49.9204 151.65 53.2904 151.65 57.7104C151.65 62.1304 150.45 65.3404 148.06 67.6304C145.67 69.9304 142.29 71.0704 137.92 71.0704H128.4V59.5304L128.41 59.5404Z" fill="white"/>
<path d="M163.72 73.7807H168.94V78.6407H163.72V73.7807ZM169.75 59.6107L166.23 49.6507L162.55 59.6107H169.76H169.75ZM163.52 44.1807H169.39L179.15 71.0707H173.72L171.17 63.8607H161.13L158.46 71.0707H153.4L163.52 44.1807Z" fill="white"/>
<path d="M188.2 44.1807H183.1V71.0707H188.2V44.1807Z" fill="white"/>
<path d="M203.631 44.1807H208.741V66.7007H220.881V71.0707H203.631V44.1807Z" fill="white"/>
<path d="M229.151 58.9207L219.471 44.1807H225.261L231.861 54.5107L238.461 44.1807H244.011L234.251 58.9607V71.0707H229.151V58.9207Z" fill="white"/>
<path d="M40.6992 35.1113H44.5892L48.7992 40.9013H45.5192L42.5292 37.7013L39.6492 40.8213L36.4492 40.9013L40.6992 35.1113Z" fill="white"/>
<path d="M48.9193 35.3106C49.0793 35.0106 49.3393 34.7406 49.6893 34.5006L49.8093 34.4206C49.9193 34.3706 49.9893 34.3206 50.0293 34.2806C50.0693 34.2406 50.1293 34.1906 50.2093 34.1406C50.6193 33.9006 50.9093 33.6906 51.0993 33.5106C51.2893 33.3406 51.3793 33.1306 51.3793 32.8806C51.3793 32.6106 51.2393 32.3906 50.9593 32.2106C50.6793 32.0306 50.2393 31.9506 49.6393 31.9506C49.0193 31.9506 48.4193 32.0506 47.8393 32.2506C47.2593 32.4506 46.7393 32.7806 46.2793 33.2406L44.7793 31.4606C45.1293 30.9706 45.8093 30.5106 46.8293 30.0606C47.8393 29.6206 48.9693 29.3906 50.2093 29.3906C51.4493 29.3906 52.5993 29.6606 53.5093 30.2006C54.4093 30.7406 54.8693 31.4606 54.8693 32.3506C54.8693 32.9406 54.6993 33.4106 54.3593 33.7506C54.0193 34.0906 53.5193 34.4706 52.8393 34.9006C52.6193 35.0606 52.3993 35.2206 52.1493 35.3906C51.8793 35.5806 51.6793 35.7706 51.5593 35.9606C51.4393 36.1506 51.3793 36.3906 51.3793 36.6906V36.8106H48.6693V36.3606C48.6693 35.9506 48.7493 35.6106 48.9093 35.3106" fill="white"/>
<path d="M233.8 34.9111H239.39V35.3111L232.79 40.8611H230.16L233.8 34.9111Z" fill="white"/>
<path d="M455.39 88.4004C451.3 89.7104 446.84 89.6004 442.9 88.0104L444.3 83.6904L448.44 70.9504C445.82 69.0504 436.71 62.4304 434.25 60.6404C437.4 55.6604 443.65 52.2404 449.68 52.3304C470.51 52.6404 475.34 81.4904 455.39 88.4004ZM439.79 136.4C427.52 140.55 414.57 130.36 415.64 117.49C418.6 117.49 430.14 117.49 433.31 117.49C434.31 114.42 437.75 103.82 438.69 100.93C456.46 105.65 457.32 130.55 439.79 136.4ZM389.32 136.4C371.93 141.91 357.92 121.77 369.09 107.38C371.47 104.33 375 101.92 378.99 100.93C379.9 103.74 383.39 114.48 384.37 117.49H402.04C402.64 125.9 397.44 133.76 389.31 136.4M350.42 76.5304C344.29 55.8804 371.11 43.0004 383.42 60.6404L379.75 63.3104L369.24 70.9504L373.39 83.7104L374.79 88.0204C374.44 88.1604 374.08 88.2904 373.72 88.4104C364.26 91.5604 353.55 86.3004 350.43 76.5404M395.78 101.8C393.64 95.2104 389.85 83.5504 387.71 76.9604C393.25 72.9304 403.31 65.6304 408.84 61.6004C414.38 65.6204 424.43 72.9304 429.97 76.9604C427.83 83.5504 424.04 95.2104 421.9 101.8C414.9 101.8 402.78 101.8 395.78 101.8ZM390.36 41.1704C390.36 30.9604 398.64 22.6804 408.84 22.6804C424.26 22.6004 432.9 40.8104 423.29 52.6904C420.89 50.9404 411.42 44.0704 408.84 42.1904C406.2 44.1104 396.87 50.8904 394.39 52.6904C391.86 49.5504 390.36 45.4504 390.36 41.1704ZM484.46 59.5304C479.15 42.8104 462.17 32.1504 444.82 34.5804C436.78 -5.16957 380.94 -5.20957 372.88 34.5804C367.49 33.8504 361.91 34.3504 356.72 36.0504C326.23 45.8704 322.61 88.1104 350.66 103.05C338.94 126.66 356.87 155.74 383.62 155.42C392.83 155.5 402.39 151.61 408.84 145.32C436.44 171.07 480.14 143.88 468.87 107.53C468.36 105.97 467.76 104.47 467.06 103.02C482.28 95.1404 490.1 75.8204 484.46 59.5404" fill="#FAAD40"/>
</svg>
