<?xml version="1.0" standalone="no"?>
<!DOCTYPE svg PUBLIC "-//W3C//DTD SVG 1.1//EN" "http://www.w3.org/Graphics/SVG/1.1/DTD/svg11.dtd">
<svg xmlns="http://www.w3.org/2000/svg" id="Layer_1" viewBox="0 0 490.54 213.65" width="490.5400085449219" height="213.64999389648438"><defs><style>.cls-1{fill:#faad40;}.cls-1,.cls-2{stroke-width:0px;}.cls-2{fill:#702b8f;}</style></defs><polygon class="cls-2" points="244.77 140.69 244.77 104.09 143.3 104.09 143.3 140.69 159.91 140.69 159.91 119.32 185.35 119.32 185.35 192.94 171.29 192.94 171.29 208.17 216.78 208.17 216.78 192.94 202.72 192.94 202.72 119.32 228.09 119.32 228.09 140.69 244.77 140.69"/><path class="cls-2" d="m273.84,161.51l14.82-38.46h1.48l14.82,38.46h-31.13Zm61.78,31.43l-35.15-88.85h-43.31v15.23h16.66l-29.19,73.62h-8.82v15.23h44.67v-15.23h-18.75l6.67-17.3h42.02l6.67,17.3h-18.47v15.23h45.77v-15.23h-8.75Z"/><polygon class="cls-2" points="122.9 119.32 135.4 119.32 135.4 104.09 104.95 104.09 70.22 162.25 37.82 104.09 5.42 104.09 5.42 119.32 19.04 119.32 19.04 192.94 5.42 192.94 5.42 208.17 49.79 208.17 49.79 192.94 36.41 192.94 36.41 133.9 63.32 181.37 76.72 181.37 105.47 132.84 105.53 132.84 105.53 192.94 91.42 192.94 91.42 208.17 135.79 208.17 135.79 192.94 122.9 192.94 122.9 119.32"/><polygon class="cls-2" points="13.69 48.39 5.55 48.39 5.55 44.01 27.01 44.01 27.01 48.39 18.79 48.39 18.79 70.9 13.69 70.9 13.69 48.39"/><path class="cls-2" d="m46.74,65.86c1.19-.74,2.11-1.82,2.75-3.24.65-1.42.97-3.11.97-5.08v-.24c0-1.92-.32-3.58-.95-5-.63-1.42-1.54-2.5-2.71-3.24-1.17-.74-2.59-1.11-4.23-1.11s-3.03.37-4.23,1.11c-1.2.74-2.12,1.82-2.75,3.22-.64,1.4-.95,3.09-.95,5.06v.16c0,1.97.31,3.66.93,5.08.62,1.42,1.52,2.5,2.69,3.26,1.17.76,2.58,1.13,4.23,1.13s3.06-.37,4.25-1.11m-11.22,3.81c-2-1.17-3.54-2.82-4.64-4.94-1.09-2.12-1.64-4.54-1.64-7.27s.56-5.15,1.68-7.27c1.12-2.12,2.69-3.76,4.72-4.94,2.03-1.18,4.36-1.76,7.01-1.76s4.89.59,6.88,1.76c2,1.17,3.54,2.82,4.64,4.94,1.09,2.12,1.64,4.54,1.64,7.27s-.55,5.15-1.66,7.27c-1.11,2.12-2.68,3.77-4.72,4.94-2.04,1.17-4.38,1.76-7.03,1.76s-4.89-.59-6.88-1.76"/><polygon class="cls-2" points="60.63 44.01 66.46 44.01 78.36 62.36 78.36 44.01 83.22 44.01 83.22 70.94 78.32 70.94 65.49 51.22 65.49 70.9 60.63 70.9 60.63 44.01"/><path class="cls-2" d="m93.94,69.75c-1.85-1.12-3.28-2.71-4.29-4.76-1.01-2.05-1.52-4.43-1.52-7.13,0-2.92.55-5.45,1.64-7.61,1.09-2.16,2.61-3.83,4.56-5,1.94-1.17,4.18-1.76,6.72-1.76,3.21,0,5.83.82,7.86,2.45,2.02,1.63,3.27,3.99,3.73,7.07h-5.3c-.3-1.67-.98-2.92-2.05-3.73-1.07-.81-2.49-1.22-4.27-1.22-1.51,0-2.84.39-3.97,1.15-1.13.77-2.02,1.88-2.67,3.32-.65,1.44-.97,3.17-.97,5.16v.36c0,1.86.3,3.47.91,4.82.61,1.35,1.49,2.37,2.65,3.08,1.16.7,2.52,1.05,4.09,1.05,1.21,0,2.31-.24,3.3-.71.99-.47,1.76-1.16,2.33-2.07.57-.91.85-1.98.85-3.22v-.89l2.15,1.58h-8.14v-4.21h11.22v13.4h-4.54v-3.69c-.78,1.35-1.85,2.39-3.2,3.12-1.35.73-2.89,1.1-4.62,1.1-2.46,0-4.61-.56-6.46-1.68"/><path class="cls-2" d="m142.63,65.62c1.24-.66,2.17-1.66,2.79-3,.62-1.34.93-3,.93-5v-.24c0-2.08-.29-3.79-.87-5.12-.58-1.34-1.47-2.33-2.67-2.98-1.2-.65-2.73-.97-4.6-.97h-4.58v7.17h5.79v3.89h-5.79v7.25h4.33c1.86,0,3.42-.33,4.66-.99m-14.21-6.26h-2.75v-3.89h2.75v-11.46h9.88c4.29,0,7.59,1.15,9.9,3.44,2.31,2.29,3.46,5.66,3.46,10.08s-1.2,7.63-3.59,9.92c-2.39,2.3-5.77,3.44-10.14,3.44h-9.52v-11.54Z"/><path class="cls-2" d="m163.72,73.61h5.22v4.86h-5.22v-4.86Zm6.03-14.17l-3.52-9.96-3.68,9.96h7.21Zm-6.23-15.43h5.87l9.76,26.89h-5.43l-2.55-7.21h-10.04l-2.67,7.21h-5.06l10.12-26.89Z"/><rect class="cls-2" x="183.1" y="44.01" width="5.1" height="26.89"/><polygon class="cls-2" points="203.63 44.01 208.74 44.01 208.74 66.53 220.88 66.53 220.88 70.9 203.63 70.9 203.63 44.01"/><polygon class="cls-2" points="229.15 58.75 219.47 44.01 225.26 44.01 231.86 54.34 238.46 44.01 244.01 44.01 234.25 58.79 234.25 70.9 229.15 70.9 229.15 58.75"/><polygon class="cls-2" points="40.7 34.94 44.59 34.94 48.8 40.73 45.52 40.73 42.53 37.53 39.65 40.65 36.45 40.73 40.7 34.94"/><path class="cls-2" d="m48.92,35.14c.16-.3.42-.57.77-.81l.12-.08c.11-.05.18-.1.22-.14.04-.04.1-.09.18-.14.41-.24.7-.45.89-.63.19-.17.28-.38.28-.63,0-.27-.14-.49-.42-.67-.28-.18-.72-.26-1.32-.26-.62,0-1.22.1-1.8.3-.58.2-1.1.53-1.56.99l-1.5-1.78c.35-.49,1.03-.95,2.05-1.4,1.01-.44,2.14-.67,3.38-.67s2.39.27,3.3.81c.9.54,1.36,1.26,1.36,2.15,0,.59-.17,1.06-.51,1.4-.34.34-.84.72-1.52,1.15-.22.16-.44.32-.69.49-.27.19-.47.38-.59.57-.12.19-.18.43-.18.73v.12h-2.71v-.45c0-.41.08-.75.24-1.05"/><polygon class="cls-2" points="233.8 34.74 239.39 34.74 239.39 35.14 232.79 40.69 230.16 40.69 233.8 34.74"/><path class="cls-1" d="m455.39,88.23c-4.09,1.31-8.55,1.2-12.49-.39l1.4-4.32,4.14-12.74c-2.62-1.9-11.73-8.52-14.19-10.31,3.15-4.98,9.4-8.4,15.43-8.31,20.83.31,25.66,29.16,5.71,36.07m-15.6,48c-12.27,4.15-25.22-6.04-24.15-18.91,2.96,0,14.5,0,17.67,0,1-3.07,4.44-13.67,5.38-16.56,17.77,4.72,18.63,29.62,1.1,35.47m-50.47,0c-17.39,5.51-31.4-14.63-20.23-29.02,2.38-3.05,5.91-5.46,9.9-6.45.91,2.81,4.4,13.55,5.38,16.56h17.67c.6,8.41-4.6,16.27-12.73,18.91m-38.89-59.87c-6.13-20.65,20.69-33.53,33-15.89l-3.67,2.67-10.51,7.64,4.15,12.76,1.4,4.31c-.35.14-.71.27-1.07.39-9.46,3.15-20.17-2.11-23.29-11.87m45.35,25.26c-2.14-6.59-5.93-18.25-8.07-24.84,5.54-4.03,15.6-11.33,21.13-15.36,5.54,4.02,15.59,11.33,21.13,15.36-2.14,6.59-5.93,18.25-8.07,24.84-7,0-19.12,0-26.12,0m-5.42-60.63c0-10.21,8.28-18.49,18.48-18.49,15.42-.08,24.06,18.13,14.45,30.01-2.4-1.75-11.87-8.62-14.45-10.5-2.64,1.92-11.97,8.7-14.45,10.5-2.53-3.14-4.03-7.24-4.03-11.52m94.1,18.36c-5.31-16.72-22.29-27.38-39.64-24.95-8.04-39.75-63.88-39.79-71.94,0-5.39-.73-10.97-.23-16.16,1.47-30.49,9.82-34.11,52.06-6.06,67-11.72,23.61,6.21,52.69,32.96,52.37,9.21.08,18.77-3.81,25.22-10.1,27.6,25.75,71.3-1.44,60.03-37.79-.51-1.56-1.11-3.06-1.81-4.51,15.22-7.88,23.04-27.2,17.4-43.48"/></svg>