<svg width="670" height="138" viewBox="0 0 670 138" fill="none" xmlns="http://www.w3.org/2000/svg">
<path d="M115.61 117.231C114.5 119.501 112.96 121.261 110.98 122.501C109.01 123.741 106.73 124.371 104.16 124.371C102.05 124.371 100.43 123.911 99.3098 122.991C98.1898 122.071 97.6298 120.701 97.6298 118.891C97.6298 117.271 98.1098 115.961 99.0698 114.971C100.03 113.981 101.53 113.271 103.55 112.841L117.23 109.831C117.16 112.641 116.62 115.111 115.6 117.221M126.8 123.391V102.051C126.8 98.5607 126.11 95.6807 124.73 93.4107C123.35 91.1407 121.29 89.4507 118.56 88.3607C115.83 87.2707 112.45 86.7207 108.42 86.7207C104.39 86.7207 100.99 87.2507 98.2098 88.3007C95.4398 89.3607 93.2498 90.9307 91.6598 93.0107C90.0598 95.0907 89.0298 97.6607 88.5798 100.721L97.8698 102.381C98.3298 100.031 99.3898 98.2707 101.06 97.1207C102.72 95.9707 104.96 95.4007 107.78 95.4007C109.73 95.4007 111.38 95.6807 112.75 96.2507C114.12 96.8207 115.15 97.6607 115.86 98.7907C116.56 99.9107 116.92 101.331 116.92 103.031V104.061L101.26 107.171C96.3598 108.121 92.8198 109.581 90.6298 111.551C88.4398 113.521 87.3398 116.371 87.3398 120.071C87.3398 124.051 88.5398 127.091 90.9298 129.201C93.3198 131.311 96.8298 132.361 101.46 132.361C105.81 132.361 109.28 131.231 111.85 128.971C114.42 126.711 116 123.311 116.6 118.761H116.92V125.941C116.92 127.781 117.36 129.201 118.24 130.201C119.12 131.201 120.37 131.701 121.99 131.701H132.62V123.381H126.82L126.8 123.391Z" fill="#702B8F"/>
<path d="M143.159 68.29H154.639V79.08H143.159V68.29ZM154.199 123.39H161.379V131.71H136.629V123.39H144.299V95.96H136.629V87.64H154.199V123.39Z" fill="#702B8F"/>
<path d="M242.609 70.4404V91.9904H232.789V79.4104H217.859V122.75H226.139V131.72H199.359V122.75H207.639V79.4104H192.659V91.9904H182.879V70.4404H242.609Z" fill="#702B8F"/>
<path d="M272.11 117.231C271 119.501 269.46 121.261 267.49 122.501C265.51 123.741 263.24 124.371 260.67 124.371C258.56 124.371 256.94 123.911 255.82 122.991C254.7 122.071 254.14 120.701 254.14 118.891C254.14 117.271 254.62 115.961 255.58 114.971C256.54 113.981 258.04 113.271 260.06 112.841L273.74 109.831C273.67 112.641 273.13 115.111 272.11 117.221M283.31 123.391V102.051C283.31 98.5607 282.62 95.6807 281.24 93.4107C279.86 91.1407 277.8 89.4507 275.07 88.3607C272.34 87.2707 268.96 86.7207 264.93 86.7207C260.9 86.7207 257.5 87.2507 254.72 88.3007C251.95 89.3607 249.76 90.9307 248.17 93.0107C246.57 95.0907 245.54 97.6607 245.09 100.721L254.38 102.381C254.84 100.031 255.9 98.2707 257.56 97.1207C259.22 95.9707 261.46 95.4007 264.28 95.4007C266.23 95.4007 267.88 95.6807 269.25 96.2507C270.62 96.8207 271.65 97.6607 272.36 98.7907C273.06 99.9107 273.42 101.331 273.42 103.031V104.061L257.76 107.171C252.86 108.121 249.32 109.581 247.13 111.551C244.94 113.521 243.84 116.371 243.84 120.071C243.84 124.051 245.04 127.091 247.43 129.201C249.82 131.311 253.33 132.361 257.96 132.361C262.32 132.361 265.78 131.231 268.35 128.971C270.92 126.711 272.5 123.311 273.1 118.761H273.42V125.941C273.42 127.781 273.86 129.201 274.74 130.201C275.62 131.201 276.87 131.701 278.49 131.701H289.12V123.381H283.32L283.31 123.391Z" fill="#702B8F"/>
<path d="M264.97 74.6609L276.33 81.3609L280.27 76.0009L268.1 66.6309H261.85L249.67 76.0409L253.61 81.4009L264.97 74.6609Z" fill="#702B8F"/>
<path d="M367.759 123.401V101.931C367.759 97.0608 366.619 93.2908 364.349 90.6108C362.079 87.9308 358.669 86.5908 354.119 86.5908C350.119 86.5908 346.799 87.7508 344.159 90.0608C341.519 92.3708 339.889 95.8408 339.269 100.471H338.859C338.649 96.3008 337.529 93.0108 335.479 90.6108C333.189 87.9308 329.789 86.5908 325.269 86.5908C321.239 86.5908 317.909 87.7508 315.289 90.0608C312.659 92.3708 311.039 95.8408 310.419 100.471H310.009V87.6508H292.719V95.9708H300.099V123.401H292.719V131.721H316.339V123.401H310.009V109.731C310.009 106.591 310.499 103.931 311.489 101.741C312.479 99.5508 313.819 97.8908 315.509 96.7508C317.199 95.6108 319.069 95.0508 321.129 95.0508C323.779 95.0508 325.759 95.8508 327.049 97.4608C328.349 99.0708 328.999 101.291 328.999 104.131V123.401H322.749V131.721H346.039V123.401H338.899V109.731C338.899 106.591 339.389 103.931 340.379 101.741C341.369 99.5508 342.699 97.8908 344.379 96.7508C346.059 95.6108 347.939 95.0508 350.019 95.0508C352.639 95.0508 354.599 95.8508 355.899 97.4608C357.199 99.0708 357.849 101.291 357.849 104.131V123.401H351.599V131.721H374.889V123.401H367.749H367.759Z" fill="#702B8F"/>
<path d="M511.2 123.401V102.301C511.2 97.3208 510 93.5008 507.61 90.8208C505.22 88.1408 501.76 86.8008 497.24 86.8008C494.48 86.8008 492.04 87.3208 489.91 88.3608C487.79 89.4008 486.04 90.9508 484.68 93.0108C483.31 95.0708 482.4 97.6508 481.94 100.761H481.57V87.6508H464V95.9708H471.67V123.401H464V131.721H487.94V123.401H481.57V109.731C481.57 106.671 482.08 104.051 483.11 101.861C484.14 99.6708 485.53 97.9808 487.29 96.8108C489.05 95.6308 491.05 95.0408 493.3 95.0408C495.98 95.0408 497.98 95.8708 499.31 97.5208C500.64 99.1708 501.3 101.421 501.3 104.261V123.411H495.05V131.731H518.34V123.411H511.2V123.401Z" fill="#702B8F"/>
<path d="M568.659 123.401V101.931C568.659 97.0609 567.519 93.2909 565.249 90.6109C562.979 87.9309 559.579 86.5909 555.059 86.5909C552.189 86.5909 549.669 87.1509 547.489 88.2709C545.309 89.3909 543.529 91.0609 542.139 93.2809C540.749 95.5009 539.829 98.2909 539.399 101.641H539.029V70.3809H521.699V78.7009H529.129V123.391H521.699V131.711H545.359V123.391H539.029V110.771C539.029 107.421 539.559 104.561 540.609 102.211C541.659 99.8609 543.089 98.0709 544.889 96.8509C546.689 95.6309 548.709 95.0209 550.959 95.0209C553.559 95.0209 555.509 95.8209 556.799 97.4309C558.099 99.0409 558.749 101.261 558.749 104.101V123.371H552.459V131.691H575.789V123.371H568.649L568.659 123.401Z" fill="#702B8F"/>
<path d="M418.749 104.241L427.469 81.6007H428.339L437.059 104.241H418.739H418.749ZM455.119 122.741L434.419 70.4307H408.919V79.4007H418.729L401.549 122.741H396.359V131.711H422.649V122.741H411.609L415.539 112.551H440.269L444.199 122.741H433.319V131.711H460.259V122.741H455.109H455.119Z" fill="#702B8F"/>
<path d="M75.7987 122.75V79.4104H83.1587V70.4404H65.2287L44.7787 104.68L25.7087 70.4404H6.63867V79.4104H14.6587V122.75H6.63867V131.72H32.7587V122.75H24.8887V87.9904L40.7187 115.94H48.6087L65.5387 87.3704H65.5687V122.75H57.2687V131.72H83.3887V122.75H75.7987Z" fill="#702B8F"/>
<path d="M646.12 61.4505C643.7 62.2305 641.07 62.1605 638.74 61.2205L639.57 58.6705L642.01 51.1505C640.47 50.0305 635.08 46.1205 633.63 45.0605C635.49 42.1205 639.18 40.1005 642.74 40.1505C655.04 40.3405 657.9 57.3805 646.11 61.4605M636.9 89.8105C629.65 92.2605 622 86.2405 622.64 78.6405C624.39 78.6405 631.21 78.6405 633.08 78.6405C633.67 76.8305 635.71 70.5605 636.26 68.8605C646.76 71.6505 647.26 86.3605 636.91 89.8105M607.1 89.8105C596.83 93.0605 588.55 81.1705 595.15 72.6705C596.55 70.8705 598.64 69.4505 601 68.8605C601.54 70.5205 603.6 76.8605 604.18 78.6405C606.09 78.6405 612.83 78.6405 614.62 78.6405C614.98 83.6105 611.9 88.2505 607.1 89.8105ZM584.13 54.4505C580.51 42.2505 596.35 34.6405 603.62 45.0605L601.45 46.6305L595.24 51.1405L597.69 58.6805L598.52 61.2305C598.31 61.3105 598.1 61.3905 597.89 61.4605C592.3 63.3205 585.97 60.2205 584.13 54.4505ZM610.92 69.3705C609.65 65.4705 607.42 58.5905 606.15 54.7005C609.42 52.3205 615.36 48.0105 618.63 45.6305C621.9 48.0105 627.84 52.3205 631.11 54.7005C629.85 58.5905 627.61 65.4805 626.34 69.3705C622.2 69.3705 615.05 69.3705 610.91 69.3705M607.71 33.5605C607.71 27.5305 612.6 22.6405 618.63 22.6405C627.74 22.5905 632.84 33.3505 627.17 40.3605C625.75 39.3305 620.16 35.2705 618.63 34.1605C617.07 35.2905 611.56 39.3005 610.1 40.3605C608.61 38.5005 607.72 36.0805 607.72 33.5505M663.3 44.4005C660.16 34.5205 650.13 28.2205 639.88 29.6605C635.13 6.18047 602.15 6.16047 597.39 29.6605C594.2 29.2305 590.91 29.5205 587.84 30.5305C569.83 36.3305 567.69 61.2805 584.26 70.1005C577.33 84.0505 587.93 101.22 603.73 101.03C609.17 101.08 614.82 98.7805 618.63 95.0705C634.93 110.28 660.75 94.2205 654.09 72.7505C653.79 71.8305 653.43 70.9405 653.02 70.0805C662.01 65.4305 666.63 54.0105 663.3 44.3905" fill="#FAAD40"/>
<path d="M13.8996 23.9405H6.59961V20.0205H25.8496V23.9405H18.4696V44.1305H13.8996V23.9405Z" fill="#702B8F"/>
<path d="M43.399 39.6103C44.459 38.9403 45.289 37.9803 45.869 36.7003C46.449 35.4303 46.739 33.9103 46.739 32.1403V31.9203C46.739 30.2003 46.459 28.7103 45.889 27.4303C45.319 26.1603 44.509 25.1903 43.459 24.5203C42.409 23.8603 41.139 23.5203 39.659 23.5203C38.179 23.5203 36.939 23.8503 35.859 24.5203C34.779 25.1903 33.959 26.1503 33.389 27.4103C32.819 28.6703 32.539 30.1803 32.539 31.9503V32.1003C32.539 33.8703 32.819 35.3903 33.379 36.6603C33.939 37.9303 34.739 38.9103 35.789 39.5803C36.839 40.2603 38.109 40.6003 39.589 40.6003C41.069 40.6003 42.339 40.2703 43.399 39.6003M33.339 43.0103C31.549 41.9603 30.159 40.4803 29.179 38.5803C28.199 36.6803 27.709 34.5103 27.709 32.0603C27.709 29.6103 28.209 27.4403 29.219 25.5403C30.229 23.6403 31.639 22.1603 33.449 21.1103C35.269 20.0603 37.359 19.5303 39.729 19.5303C42.099 19.5303 44.109 20.0603 45.899 21.1103C47.689 22.1603 49.079 23.6403 50.059 25.5403C51.039 27.4403 51.529 29.6103 51.529 32.0603C51.529 34.5103 51.029 36.6803 50.039 38.5803C49.049 40.4803 47.639 41.9603 45.809 43.0103C43.979 44.0603 41.879 44.5903 39.509 44.5903C37.139 44.5903 35.129 44.0603 33.339 43.0103Z" fill="#702B8F"/>
<path d="M55.7402 20.0205H60.9702L71.6502 36.4705V20.0205H76.0102V44.1705H71.6202L60.1002 26.4805V44.1305H55.7402V20.0205Z" fill="#702B8F"/>
<path d="M85.5088 43.1C83.8488 42.09 82.5688 40.67 81.6588 38.83C80.7488 36.99 80.2988 34.86 80.2988 32.44C80.2988 29.82 80.7888 27.55 81.7688 25.61C82.7488 23.67 84.1088 22.18 85.8588 21.12C87.5988 20.07 89.6088 19.54 91.8888 19.54C94.7688 19.54 97.1188 20.27 98.9388 21.74C100.759 23.21 101.869 25.32 102.279 28.08H97.5188C97.2488 26.58 96.6388 25.47 95.6788 24.74C94.7188 24.01 93.4488 23.65 91.8488 23.65C90.4888 23.65 89.3088 23.99 88.2888 24.69C87.2688 25.38 86.4688 26.37 85.8888 27.67C85.3088 28.97 85.0188 30.51 85.0188 32.3V32.63C85.0188 34.3 85.2888 35.74 85.8388 36.95C86.3788 38.16 87.1788 39.08 88.2188 39.71C89.2588 40.34 90.4788 40.66 91.8888 40.66C92.9788 40.66 93.9688 40.45 94.8488 40.02C95.7288 39.6 96.4288 38.98 96.9388 38.17C97.4488 37.36 97.6988 36.4 97.6988 35.28V34.48L99.6188 35.9H92.3188V32.12H102.379V44.14H98.3088V40.83C97.6088 42.04 96.6488 42.97 95.4388 43.63C94.2288 44.28 92.8488 44.61 91.2988 44.61C89.0988 44.61 87.1688 44.11 85.5088 43.1Z" fill="#702B8F"/>
<path d="M129.179 39.3907C130.289 38.8007 131.129 37.9007 131.689 36.7007C132.249 35.5007 132.529 34.0107 132.529 32.2107V31.9907C132.529 30.1207 132.269 28.5907 131.749 27.4007C131.229 26.2007 130.429 25.3107 129.349 24.7307C128.269 24.1507 126.899 23.8607 125.229 23.8607H121.129V30.2907H126.319V33.7807H121.129V40.2807H125.019C126.689 40.2807 128.079 39.9807 129.199 39.3907M116.449 33.7807H113.979V30.2907H116.449V20.0107H125.309C129.159 20.0107 132.119 21.0407 134.189 23.1007C136.259 25.1607 137.299 28.1707 137.299 32.1407C137.299 36.1107 136.229 38.9807 134.089 41.0407C131.949 43.1007 128.909 44.1307 124.989 44.1307H116.449V33.7807Z" fill="#702B8F"/>
<path d="M147.94 46.5705H152.63V50.9305H147.94V46.5705ZM153.35 33.8605L150.19 24.9205L146.89 33.8605H153.36H153.35ZM147.76 20.0205H153.03L161.78 44.1405H156.91L154.62 37.6705H145.61L143.21 44.1405H138.67L147.75 20.0205H147.76Z" fill="#702B8F"/>
<path d="M169.779 20.0107H165.199V44.1307H169.779V20.0107Z" fill="#702B8F"/>
<path d="M183.619 20.0205H188.189V40.2105H199.089V44.1305H183.619V20.0205Z" fill="#702B8F"/>
<path d="M210.469 12.0901H215.479V12.4501L209.559 17.4201H207.199L210.469 12.0801V12.0901ZM206.289 33.2401L197.609 20.0201H202.809L208.729 29.2801L214.649 20.0201H219.629L210.879 33.2801V44.1401H206.299V33.2401H206.289Z" fill="#702B8F"/>
<path d="M38.0287 12.0801H41.5187L45.2987 17.2801H42.3587L39.6688 14.4101L37.0887 17.2001L34.2188 17.2801L38.0287 12.0801Z" fill="#702B8F"/>
<path d="M45.8194 12.6008C45.9694 12.3308 46.1894 12.0908 46.5094 11.8708L46.6194 11.8008C46.7194 11.7508 46.7794 11.7108 46.8194 11.6708C46.8594 11.6308 46.9094 11.5908 46.9794 11.5408C47.3394 11.3208 47.6094 11.1408 47.7794 10.9808C47.9494 10.8208 48.0294 10.6308 48.0294 10.4208C48.0294 10.1808 47.8994 9.98078 47.6494 9.82078C47.3994 9.66078 46.9994 9.59078 46.4694 9.59078C45.9394 9.59078 45.3694 9.68078 44.8494 9.86078C44.3294 10.0408 43.8594 10.3408 43.4494 10.7508L42.1094 9.15078C42.4194 8.71078 43.0394 8.30078 43.9394 7.90078C44.8494 7.50078 45.8594 7.30078 46.9694 7.30078C48.0794 7.30078 49.1194 7.54078 49.9294 8.03078C50.7394 8.51078 51.1494 9.16078 51.1494 9.95078C51.1494 10.4808 50.9994 10.9008 50.6994 11.2008C50.3994 11.5008 49.9394 11.8508 49.3394 12.2408C49.1394 12.3908 48.9394 12.5308 48.7194 12.6808C48.4794 12.8508 48.2994 13.0208 48.1894 13.1908C48.0794 13.3608 48.0294 13.5808 48.0294 13.8408V13.9508H45.5994V13.5508C45.5994 13.1908 45.6694 12.8708 45.8194 12.6108" fill="#702B8F"/>
</svg>
