<svg width="669" height="137" viewBox="0 0 669 137" fill="none" xmlns="http://www.w3.org/2000/svg">
<path d="M112.111 117.43C110.991 119.73 109.431 121.5 107.441 122.76C105.441 124.02 103.151 124.65 100.551 124.65C98.4206 124.65 96.7806 124.19 95.6506 123.26C94.5206 122.33 93.9505 120.95 93.9505 119.12C93.9505 117.48 94.4406 116.16 95.4106 115.16C96.3806 114.16 97.8906 113.44 99.9406 113.01L113.771 109.97C113.701 112.81 113.161 115.31 112.121 117.44M123.441 123.67V102.1C123.441 98.5696 122.741 95.6596 121.351 93.3696C119.961 91.0696 117.881 89.3696 115.121 88.2596C112.361 87.1496 108.941 86.5996 104.871 86.5996C100.801 86.5996 97.3605 87.1296 94.5605 88.1996C91.7605 89.2696 89.5506 90.8496 87.9406 92.9596C86.3306 95.0596 85.2905 97.6596 84.8205 100.75L94.2105 102.43C94.6705 100.05 95.7505 98.2796 97.4305 97.1196C99.1105 95.9596 101.371 95.3796 104.221 95.3796C106.191 95.3796 107.861 95.6696 109.241 96.2396C110.621 96.8096 111.671 97.6696 112.381 98.7996C113.091 99.9296 113.441 101.36 113.441 103.09V104.14L97.6206 107.28C92.6706 108.24 89.0905 109.71 86.8805 111.71C84.6705 113.71 83.5605 116.58 83.5605 120.32C83.5605 124.34 84.7706 127.41 87.1906 129.54C89.6106 131.67 93.1606 132.74 97.8306 132.74C102.231 132.74 105.731 131.6 108.331 129.32C110.931 127.04 112.521 123.6 113.131 119.01H113.461V126.27C113.461 128.13 113.901 129.56 114.791 130.57C115.681 131.58 116.941 132.09 118.581 132.09H129.321V123.68H123.461L123.441 123.67Z" fill="white"/>
<path d="M139.95 67.9902H151.55V78.9002H139.95V67.9902ZM151.1 123.67H158.36V132.08H133.35V123.67H141.1V95.9502H133.35V87.5402H151.1V123.66V123.67Z" fill="white"/>
<path d="M240.44 70.1602V91.9302H230.52V79.2202H215.43V123.01H223.8V132.07H196.74V123.01H205.1V79.2202H189.97V91.9302H180.09V70.1602H240.44Z" fill="white"/>
<path d="M270.249 117.43C269.129 119.73 267.569 121.5 265.579 122.76C263.579 124.02 261.289 124.65 258.689 124.65C256.559 124.65 254.919 124.19 253.789 123.26C252.659 122.33 252.089 120.95 252.089 119.12C252.089 117.48 252.579 116.16 253.549 115.16C254.519 114.16 256.029 113.44 258.079 113.01L271.909 109.97C271.829 112.81 271.299 115.31 270.259 117.44M281.579 123.67V102.1C281.579 98.5696 280.879 95.6596 279.489 93.3696C278.099 91.0796 276.019 89.3696 273.259 88.2596C270.499 87.1496 267.079 86.5996 263.009 86.5996C258.939 86.5996 255.499 87.1296 252.699 88.1996C249.899 89.2696 247.689 90.8496 246.079 92.9596C244.469 95.0596 243.429 97.6596 242.959 100.75L252.349 102.43C252.819 100.05 253.889 98.2796 255.569 97.1196C257.249 95.9596 259.509 95.3796 262.359 95.3796C264.329 95.3796 265.999 95.6696 267.379 96.2396C268.759 96.8096 269.809 97.6696 270.519 98.7996C271.229 99.9296 271.579 101.36 271.579 103.09V104.14L255.749 107.28C250.799 108.24 247.219 109.71 245.009 111.71C242.799 113.71 241.689 116.58 241.689 120.32C241.689 124.34 242.899 127.41 245.319 129.54C247.739 131.67 251.289 132.74 255.959 132.74C260.359 132.74 263.859 131.6 266.459 129.32C269.059 127.04 270.659 123.6 271.259 119.01H271.589V126.27C271.589 128.13 272.029 129.56 272.919 130.57C273.809 131.58 275.069 132.09 276.709 132.09H287.449V123.68H281.589L281.579 123.67Z" fill="white"/>
<path d="M263.03 74.4196L274.51 81.1896L278.49 75.7796L266.19 66.3096H259.88L247.58 75.8196L251.55 81.2296L263.03 74.4196Z" fill="white"/>
<path d="M366.89 123.66V101.97C366.89 97.0497 365.74 93.2397 363.45 90.5297C361.15 87.8197 357.71 86.4697 353.12 86.4697C349.07 86.4697 345.72 87.6397 343.05 89.9797C340.38 92.3197 338.74 95.8197 338.11 100.5H337.7C337.49 96.2897 336.35 92.9697 334.28 90.5397C331.97 87.8297 328.53 86.4797 323.97 86.4797C319.9 86.4797 316.53 87.6497 313.88 89.9897C311.23 92.3297 309.59 95.8297 308.96 100.51H308.55V87.5497H291.08V95.9597H298.54V123.68H291.08V132.09H314.94V123.68H308.54V109.86C308.54 106.69 309.04 104 310.04 101.78C311.04 99.5697 312.39 97.8797 314.1 96.7397C315.81 95.5897 317.7 95.0197 319.78 95.0197C322.46 95.0197 324.45 95.8297 325.77 97.4597C327.08 99.0897 327.74 101.33 327.74 104.2V123.68H321.43V132.09H344.96V123.68H337.74V109.86C337.74 106.69 338.24 104 339.24 101.78C340.24 99.5697 341.58 97.8797 343.28 96.7397C344.98 95.5897 346.87 95.0197 348.98 95.0197C351.63 95.0197 353.61 95.8297 354.92 97.4597C356.23 99.0897 356.89 101.33 356.89 104.2V123.68H350.58V132.09H374.11V123.68H366.89V123.66Z" fill="white"/>
<path d="M511.821 123.66V102.34C511.821 97.3097 510.611 93.4397 508.191 90.7397C505.771 88.0297 502.281 86.6797 497.711 86.6797C494.921 86.6797 492.461 87.2097 490.311 88.2597C488.161 89.3097 486.401 90.8797 485.021 92.9597C483.641 95.0397 482.721 97.6497 482.251 100.79H481.881V87.5497H464.131V95.9597H471.881V123.68H464.131V132.09H488.321V123.68H481.881V109.86C481.881 106.77 482.401 104.12 483.441 101.91C484.481 99.6897 485.891 97.9897 487.661 96.7997C489.441 95.6097 491.461 95.0197 493.731 95.0197C496.441 95.0197 498.461 95.8497 499.801 97.5197C501.141 99.1897 501.811 101.46 501.811 104.33V123.68H495.501V132.09H519.031V123.68H511.811L511.821 123.66Z" fill="white"/>
<path d="M569.879 123.66V101.97C569.879 97.0496 568.729 93.2396 566.439 90.5296C564.139 87.8196 560.709 86.4696 556.149 86.4696C553.249 86.4696 550.699 87.0396 548.499 88.1696C546.299 89.2996 544.499 90.9896 543.089 93.2296C541.679 95.4696 540.759 98.2896 540.319 101.68H539.949V70.0996H522.439V78.4996H529.939V123.65H522.439V132.06H546.339V123.65H539.939V110.9C539.939 107.51 540.469 104.63 541.539 102.25C542.599 99.8696 544.049 98.0696 545.869 96.8396C547.689 95.6096 549.729 94.9896 551.999 94.9896C554.619 94.9896 556.589 95.7996 557.899 97.4296C559.209 99.0596 559.869 101.3 559.869 104.17V123.65H553.519V132.06H577.089V123.65H569.869L569.879 123.66Z" fill="white"/>
<path d="M418.409 104.31L427.229 81.4302H428.109L436.929 104.31H418.419H418.409ZM455.159 123.01L434.249 70.1602H408.489V79.2202H418.399L401.039 123.01H395.789V132.07H422.359V123.01H411.209L415.179 112.72H440.169L444.139 123.01H433.149V132.07H460.369V123.01H455.159Z" fill="white"/>
<path d="M71.8895 123.01V79.2202H79.3295V70.1602H61.2195L40.5595 104.75L21.2895 70.1602H2.01953V79.2202H10.1195V123.01H2.01953V132.07H28.4095V123.01H20.4495V87.8902L36.4495 116.13H44.4295L61.5295 87.2602H61.5595V123.01H53.1695V132.07H79.5595V123.01H71.8895Z" fill="white"/>
<path d="M9.29023 23.0001H1.99023V19.0801H21.2402V23.0001H13.8602V43.1901H9.29023V23.0001Z" fill="white"/>
<path d="M38.7896 38.6698C39.8496 37.9998 40.6796 37.0398 41.2596 35.7598C41.8396 34.4898 42.1296 32.9698 42.1296 31.1998V30.9798C42.1296 29.2598 41.8496 27.7698 41.2796 26.4898C40.7096 25.2198 39.8996 24.2498 38.8496 23.5798C37.7996 22.9198 36.5296 22.5798 35.0496 22.5798C33.5696 22.5798 32.3296 22.9098 31.2496 23.5798C30.1696 24.2498 29.3496 25.2098 28.7796 26.4698C28.2096 27.7298 27.9296 29.2398 27.9296 31.0098V31.1598C27.9296 32.9298 28.2096 34.4498 28.7696 35.7198C29.3296 36.9898 30.1296 37.9698 31.1796 38.6398C32.2296 39.3198 33.4996 39.6598 34.9796 39.6598C36.4596 39.6598 37.7296 39.3298 38.7896 38.6598M28.7296 42.0698C26.9396 41.0198 25.5496 39.5398 24.5696 37.6398C23.5896 35.7398 23.0996 33.5698 23.0996 31.1198C23.0996 28.6698 23.5996 26.4998 24.6096 24.5998C25.6196 22.6998 27.0296 21.2198 28.8396 20.1698C30.6596 19.1198 32.7496 18.5898 35.1196 18.5898C37.4896 18.5898 39.4996 19.1198 41.2896 20.1698C43.0796 21.2198 44.4696 22.6998 45.4496 24.5998C46.4296 26.4998 46.9196 28.6698 46.9196 31.1198C46.9196 33.5698 46.4196 35.7398 45.4296 37.6398C44.4396 39.5398 43.0296 41.0198 41.1996 42.0698C39.3696 43.1198 37.2696 43.6498 34.8996 43.6498C32.5296 43.6498 30.5196 43.1198 28.7296 42.0698Z" fill="white"/>
<path d="M51.1309 19.0801H56.3609L67.0409 35.5301V19.0801H71.4009V43.2301H67.0109L55.4909 25.5401V43.1901H51.1309V19.0801Z" fill="white"/>
<path d="M80.8995 42.1596C79.2395 41.1496 77.9595 39.7296 77.0495 37.8896C76.1395 36.0496 75.6895 33.9196 75.6895 31.4996C75.6895 28.8796 76.1795 26.6096 77.1595 24.6696C78.1395 22.7296 79.4995 21.2396 81.2495 20.1796C82.9895 19.1296 84.9994 18.5996 87.2794 18.5996C90.1594 18.5996 92.5095 19.3296 94.3295 20.7996C96.1495 22.2696 97.2594 24.3796 97.6694 27.1396H92.9095C92.6395 25.6396 92.0295 24.5296 91.0695 23.7996C90.1095 23.0696 88.8394 22.7096 87.2394 22.7096C85.8794 22.7096 84.6995 23.0496 83.6795 23.7496C82.6595 24.4396 81.8594 25.4296 81.2794 26.7296C80.6994 28.0296 80.4095 29.5696 80.4095 31.3596V31.6896C80.4095 33.3596 80.6795 34.7996 81.2295 36.0096C81.7695 37.2196 82.5695 38.1396 83.6095 38.7696C84.6495 39.3996 85.8694 39.7196 87.2794 39.7196C88.3694 39.7196 89.3594 39.5096 90.2394 39.0796C91.1194 38.6596 91.8195 38.0396 92.3295 37.2296C92.8395 36.4196 93.0894 35.4596 93.0894 34.3396V33.5396L95.0095 34.9596H87.7094V31.1796H97.7694V43.1996H93.6994V39.8896C92.9994 41.0996 92.0395 42.0296 90.8295 42.6896C89.6195 43.3396 88.2395 43.6696 86.6895 43.6696C84.4895 43.6696 82.5595 43.1696 80.8995 42.1596Z" fill="white"/>
<path d="M124.569 38.4503C125.679 37.8603 126.519 36.9603 127.079 35.7603C127.639 34.5603 127.919 33.0703 127.919 31.2703V31.0503C127.919 29.1803 127.659 27.6503 127.139 26.4603C126.619 25.2603 125.819 24.3703 124.739 23.7903C123.659 23.2103 122.289 22.9203 120.619 22.9203H116.519V29.3503H121.709V32.8403H116.519V39.3403H120.409C122.079 39.3403 123.469 39.0403 124.589 38.4503M111.839 32.8403H109.369V29.3503H111.839V19.0703H120.699C124.549 19.0703 127.509 20.1003 129.579 22.1603C131.649 24.2203 132.689 27.2303 132.689 31.2003C132.689 35.1703 131.619 38.0403 129.479 40.1003C127.339 42.1603 124.299 43.1903 120.379 43.1903H111.839V32.8403Z" fill="white"/>
<path d="M143.331 45.6301H148.021V49.9901H143.331V45.6301ZM148.741 32.9201L145.581 23.9801L142.281 32.9201H148.751H148.741ZM143.151 19.0801H148.421L157.171 43.2001H152.301L150.011 36.7301H141.001L138.601 43.2001H134.061L143.141 19.0801H143.151Z" fill="white"/>
<path d="M165.17 19.0703H160.59V43.1903H165.17V19.0703Z" fill="white"/>
<path d="M179.01 19.0801H183.58V39.2701H194.48V43.1901H179.01V19.0801Z" fill="white"/>
<path d="M205.86 11.1496H210.87V11.5096L204.95 16.4796H202.59L205.86 11.1396V11.1496ZM201.68 32.2996L193 19.0796H198.2L204.12 28.3396L210.04 19.0796H215.02L206.27 32.3396V43.1996H201.69V32.2996H201.68Z" fill="white"/>
<path d="M33.4194 11.1396H36.9094L40.6894 16.3396H37.7494L35.0594 13.4696L32.4794 16.2596L29.6094 16.3396L33.4194 11.1396Z" fill="white"/>
<path d="M41.21 11.6604C41.36 11.3904 41.58 11.1504 41.9 10.9304L42.01 10.8604C42.11 10.8104 42.17 10.7704 42.21 10.7304C42.25 10.6904 42.3 10.6504 42.37 10.6004C42.73 10.3804 43 10.2004 43.17 10.0404C43.34 9.88035 43.42 9.69035 43.42 9.48035C43.42 9.24035 43.29 9.04035 43.04 8.88035C42.79 8.72035 42.39 8.65035 41.86 8.65035C41.33 8.65035 40.76 8.74035 40.24 8.92035C39.72 9.10035 39.25 9.40035 38.84 9.81035L37.5 8.21035C37.81 7.77035 38.43 7.36035 39.33 6.96035C40.24 6.56035 41.25 6.36035 42.36 6.36035C43.47 6.36035 44.51 6.60035 45.32 7.09035C46.13 7.57035 46.54 8.22035 46.54 9.01035C46.54 9.54035 46.39 9.96035 46.09 10.2604C45.79 10.5604 45.33 10.9104 44.73 11.3004C44.53 11.4504 44.33 11.5904 44.11 11.7404C43.87 11.9104 43.69 12.0804 43.58 12.2504C43.47 12.4204 43.42 12.6404 43.42 12.9004V13.0104H40.99V12.6104C40.99 12.2504 41.06 11.9304 41.21 11.6704" fill="white"/>
<path d="M648.15 61.0695C645.71 61.8495 643.05 61.7795 640.69 60.8395L641.531 58.2595L644 50.6595C642.44 49.5295 637.001 45.5795 635.531 44.5095C637.411 41.5395 641.14 39.4895 644.74 39.5495C657.17 39.7395 660.06 56.9595 648.15 61.0795M638.84 89.7295C631.51 92.1995 623.79 86.1295 624.43 78.4495H634.98C635.57 76.6195 637.63 70.2895 638.19 68.5695C648.8 71.3895 649.311 86.2495 638.84 89.7395M608.72 89.7395C598.34 93.0295 589.98 81.0095 596.64 72.4195C598.06 70.5995 600.17 69.1595 602.55 68.5695C603.1 70.2495 605.18 76.6595 605.76 78.4495H616.31C616.67 83.4695 613.57 88.1595 608.72 89.7295M585.51 53.9995C581.85 41.6695 597.86 33.9895 605.2 44.5195L603.01 46.1095L596.73 50.6695L599.2 58.2795L600.04 60.8495C599.83 60.9295 599.62 61.0095 599.4 61.0795C593.75 62.9595 587.36 59.8195 585.5 53.9995M612.57 69.0695C611.29 65.1295 609.03 58.1795 607.75 54.2395C611.06 51.8395 617.06 47.4795 620.36 45.0795C623.67 47.4795 629.66 51.8395 632.97 54.2395C631.69 58.1695 629.43 65.1295 628.15 69.0695C623.97 69.0695 616.74 69.0695 612.56 69.0695M609.32 32.8795C609.32 26.7895 614.26 21.8495 620.35 21.8495C629.55 21.7995 634.71 32.6695 628.97 39.7595C627.53 38.7195 621.89 34.6095 620.35 33.4895C618.78 34.6295 613.21 38.6795 611.73 39.7595C610.22 37.8795 609.32 35.4395 609.32 32.8795ZM665.48 43.8395C662.31 33.8595 652.18 27.4995 641.82 28.9495C637.02 5.21953 603.69 5.19953 598.88 28.9495C595.66 28.5195 592.33 28.8095 589.23 29.8295C571.03 35.6895 568.87 60.8995 585.61 69.8095C578.61 83.8995 589.321 101.26 605.281 101.07C610.771 101.12 616.48 98.7995 620.33 95.0395C636.8 110.41 662.89 94.1795 656.16 72.4895C655.86 71.5595 655.5 70.6595 655.08 69.7995C664.16 65.0995 668.83 53.5695 665.47 43.8495" fill="#FAAD40"/>
</svg>
