<svg xmlns="http://www.w3.org/2000/svg" width="37" height="37" fill="none" viewBox="0 0 37 37">
  <rect width="37" height="37" fill="#fff" rx="5"/>
  <path fill="#702B8F" stroke="#702B8F" stroke-width=".4" d="M12.64 13H4.23v1.803h5.836L4.31 21.935C4.131 22.197 4 22.443 4 23v.46h7.934a.728.728 0 0 0 .722-.722v-.967H6.525l5.41-6.787.295-.361.032-.05c.312-.458.377-.852.377-1.327V13Zm10.704 10.46h1.197V13h-1.803v9.853c0 .328.262.606.606.606Zm6.525-8.198a4.135 4.135 0 0 0-4.131 4.132 4.135 4.135 0 0 0 4.13 4.131A4.135 4.135 0 0 0 34 19.394a4.135 4.135 0 0 0-4.131-4.131Zm0 6.575a2.42 2.42 0 0 1-2.427-2.427 2.42 2.42 0 0 1 2.427-2.426 2.42 2.42 0 0 1 2.426 2.426 2.42 2.42 0 0 1-2.426 2.427ZM17.18 15.328a4.1 4.1 0 0 0-4.098 4.099 4.1 4.1 0 0 0 4.098 4.098 4.1 4.1 0 0 0 4.099-4.098c.016-2.262-1.82-4.099-4.099-4.099Zm0 6.509a2.414 2.414 0 0 1-2.41-2.41 2.414 2.414 0 0 1 2.41-2.41 2.414 2.414 0 0 1 2.41 2.41 2.403 2.403 0 0 1-2.41 2.41Z"/>
  <path fill="#702B8F" stroke="#702B8F" stroke-width=".4" d="M20.33 23.459h.967v-7.902H19.61v7.197c0 .377.327.705.721.705Z"/>
</svg>
