<svg xmlns="http://www.w3.org/2000/svg" width="200" height="60" fill="none"><g clip-path="url(#a)"><rect width="200" height="60" fill="#141414" rx="8"/><path fill="#fff" d="M53.649 12.773v-1.227h7.317v1.227h-2.95V21h-1.422v-8.227h-2.945Zm10.655 8.366a2.748 2.748 0 0 1-1.532-.44c-.447-.295-.798-.715-1.053-1.26-.252-.547-.379-1.204-.379-1.97 0-.767.128-1.422.384-1.967.258-.545.612-.962 1.061-1.251.45-.29.96-.434 1.528-.434.44 0 .794.074 1.062.221.271.145.48.314.628.508.15.194.268.365.35.513h.084v-1.15h1.38V21H66.47v-1.103h-.115a3.65 3.65 0 0 1-.36.517 2 2 0 0 1-.637.508c-.271.144-.622.216-1.053.216Zm.305-1.178c.397 0 .732-.104 1.006-.314.277-.212.487-.506.628-.881.145-.376.217-.813.217-1.311 0-.493-.07-.924-.212-1.293a1.899 1.899 0 0 0-.624-.863c-.273-.207-.612-.31-1.015-.31-.416 0-.762.108-1.039.323-.277.216-.486.51-.628.882a3.596 3.596 0 0 0-.207 1.26c0 .474.07.9.212 1.28.142.378.35.678.628.9.28.218.624.327 1.034.327Zm.71-7.03H64.23l-.037-.942c.327-.016.557-.059.693-.13.135-.073.201-.18.198-.318.003-.166-.09-.285-.281-.356a1.958 1.958 0 0 0-.688-.106l.041-.761c.7 0 1.228.11 1.588.332.364.221.544.52.54.896.004.304-.096.529-.3.674-.2.141-.421.23-.664.267v.443ZM69.918 21v-7.09h1.38V21h-1.38Zm.698-8.185a.877.877 0 0 1-.62-.24.78.78 0 0 1-.253-.582.77.77 0 0 1 .254-.581.868.868 0 0 1 .619-.245c.24 0 .444.082.614.245.172.16.258.353.258.581a.774.774 0 0 1-.258.582.861.861 0 0 1-.614.24Zm12.999.753h1.02c-.003.492-.072.904-.208 1.237a1.394 1.394 0 0 1-.692.743c-.33.166-.787.25-1.371.25v-.8c.397 0 .681-.049.854-.147a.668.668 0 0 0 .327-.466 3.9 3.9 0 0 0 .07-.817Zm-2.249 4.491v-4.15h1.38V21h-1.357v-1.228h-.073a2.225 2.225 0 0 1-.78.946c-.358.25-.804.374-1.34.374-.452 0-.853-.1-1.204-.3a2.1 2.1 0 0 1-.827-.9c-.197-.397-.295-.888-.295-1.473v-4.51h1.38v4.344c0 .483.134.868.402 1.154.27.287.619.43 1.043.43.259 0 .516-.065.771-.194.259-.13.473-.325.642-.587.172-.261.258-.594.258-.997Zm-2.118-5.096 1.08-2.128h1.454l-1.431 2.128h-1.103Zm7.586 3.827V21h-1.38v-7.09h1.325v1.153h.088c.163-.375.418-.677.766-.905.35-.227.792-.341 1.325-.341.483 0 .906.101 1.27.304.362.2.644.499.844.896.2.397.3.888.3 1.473V21h-1.38v-4.344c0-.514-.134-.916-.402-1.205-.267-.292-.635-.439-1.103-.439-.32 0-.605.07-.854.208a1.494 1.494 0 0 0-.586.61c-.142.264-.213.584-.213.96Zm9.493 7.017c-.564 0-1.048-.074-1.455-.222a2.816 2.816 0 0 1-.988-.586 2.462 2.462 0 0 1-.572-.799l1.186-.49c.083.136.194.28.333.43.141.154.332.285.572.393.243.107.556.161.937.161.523 0 .956-.127 1.297-.383.342-.252.513-.655.513-1.21v-1.394h-.088a3.145 3.145 0 0 1-.36.504 1.948 1.948 0 0 1-.637.48c-.27.135-.623.203-1.057.203-.56 0-1.065-.131-1.514-.393-.447-.264-.8-.654-1.062-1.168-.259-.517-.388-1.152-.388-1.906s.128-1.4.383-1.94c.259-.538.613-.95 1.062-1.236.45-.29.959-.434 1.528-.434.44 0 .796.074 1.067.221.27.145.481.314.632.508.154.194.272.365.355.513h.102v-1.15h1.353v7.248c0 .61-.142 1.11-.425 1.5-.283.391-.666.68-1.15.868a4.434 4.434 0 0 1-1.624.282Zm-.014-4.058c.397 0 .732-.092 1.006-.277.277-.188.486-.456.628-.803.145-.351.217-.771.217-1.26 0-.478-.071-.898-.212-1.26a1.873 1.873 0 0 0-.624-.85c-.274-.207-.612-.31-1.015-.31-.416 0-.762.108-1.04.323a1.949 1.949 0 0 0-.627.868 3.45 3.45 0 0 0-.208 1.228c0 .465.071.873.213 1.224.141.35.35.624.627.821.28.197.625.296 1.035.296Zm11.419 1.39a2.747 2.747 0 0 1-1.533-.44c-.446-.295-.797-.715-1.052-1.26-.253-.547-.379-1.204-.379-1.97 0-.767.128-1.422.383-1.967.259-.545.613-.962 1.062-1.251.449-.29.959-.434 1.528-.434.44 0 .794.074 1.062.221.271.145.48.314.628.508.15.194.267.365.351.513h.083v-3.513h1.38V21h-1.348v-1.103h-.115c-.084.15-.204.323-.361.517a1.988 1.988 0 0 1-.637.508c-.27.144-.621.216-1.052.216Zm.304-1.178c.397 0 .733-.104 1.007-.314.277-.212.486-.506.628-.881.144-.376.217-.813.217-1.311 0-.493-.071-.924-.213-1.293a1.894 1.894 0 0 0-.623-.863c-.274-.207-.612-.31-1.016-.31-.415 0-.761.108-1.038.323-.277.216-.487.51-.628.882a3.585 3.585 0 0 0-.208 1.26c0 .474.071.9.213 1.28.141.378.35.678.627.9.28.218.625.327 1.034.327Zm9.801-1.902v-4.15h1.385V21h-1.357v-1.228h-.074a2.213 2.213 0 0 1-.785.946c-.357.25-.802.374-1.334.374a2.4 2.4 0 0 1-1.21-.3 2.114 2.114 0 0 1-.822-.9c-.197-.397-.295-.888-.295-1.473v-4.51h1.38v4.344c0 .483.134.868.402 1.154.268.287.615.43 1.043.43.259 0 .516-.065.771-.194a1.62 1.62 0 0 0 .642-.587c.172-.261.257-.594.254-.997Zm-1.45 5.388a.873.873 0 0 1-.614-.24.766.766 0 0 1-.258-.582c0-.228.086-.422.258-.582a.873.873 0 0 1 .614-.24c.24 0 .445.08.614.24.173.16.259.354.259.582a.763.763 0 0 1-.259.582.861.861 0 0 1-.614.24Zm6.2-6.657V21h-1.381v-7.09h1.325v1.153h.088a2.03 2.03 0 0 1 .766-.905c.351-.227.793-.341 1.325-.341.484 0 .907.101 1.27.304.363.2.645.499.845.896.2.397.3.888.3 1.473V21h-1.381v-4.344c0-.514-.133-.916-.401-1.205-.268-.292-.636-.439-1.104-.439-.32 0-.604.07-.854.208a1.497 1.497 0 0 0-.586.61c-.141.264-.212.584-.212.96Zm9.492 7.017c-.563 0-1.048-.074-1.454-.222a2.813 2.813 0 0 1-.988-.586 2.467 2.467 0 0 1-.573-.799l1.187-.49c.083.136.194.28.332.43.142.154.333.285.573.393.243.107.555.161.937.161.523 0 .955-.127 1.297-.383.342-.252.513-.655.513-1.21v-1.394h-.088a3.145 3.145 0 0 1-.36.504 1.958 1.958 0 0 1-.637.48c-.271.135-.624.203-1.058.203-.56 0-1.064-.131-1.514-.393-.446-.264-.8-.654-1.062-1.168-.258-.517-.387-1.152-.387-1.906s.127-1.4.383-1.94c.258-.538.612-.95 1.062-1.236.449-.29.958-.434 1.528-.434.44 0 .795.074 1.066.221.271.145.482.314.633.508.153.194.272.365.355.513h.102v-1.15h1.352v7.248c0 .61-.141 1.11-.425 1.5-.283.391-.666.68-1.149.868a4.434 4.434 0 0 1-1.625.282Zm-.014-4.058c.397 0 .733-.092 1.007-.277a1.72 1.72 0 0 0 .627-.803c.145-.351.217-.771.217-1.26 0-.478-.07-.898-.212-1.26a1.874 1.874 0 0 0-.623-.85c-.274-.207-.613-.31-1.016-.31-.415 0-.762.108-1.039.323a1.943 1.943 0 0 0-.627.868 3.438 3.438 0 0 0-.208 1.228c0 .465.071.873.212 1.224.142.35.351.624.628.821.28.197.625.296 1.034.296Zm12.075-5.84v1.108h-3.873v-1.108h3.873Zm-2.835-1.699h1.381v6.708c0 .268.04.47.12.605.08.132.183.223.309.272.129.046.269.07.42.07.111 0 .208-.008.291-.024.083-.015.148-.027.194-.037l.249 1.14a2.702 2.702 0 0 1-.895.148 2.428 2.428 0 0 1-1.016-.194 1.743 1.743 0 0 1-.762-.627c-.194-.284-.291-.639-.291-1.067V12.21Zm4.492 8.79v-7.09h1.334v1.126h.074a1.71 1.71 0 0 1 .683-.9 1.955 1.955 0 0 1 1.117-.333 5.978 5.978 0 0 1 .587.032v1.32a2.506 2.506 0 0 0-.296-.05 2.816 2.816 0 0 0-.425-.033c-.326 0-.617.07-.872.208a1.534 1.534 0 0 0-.6.568c-.148.24-.222.514-.222.822V21h-1.38Zm7.921.143c-.698 0-1.3-.15-1.805-.448a3.042 3.042 0 0 1-1.163-1.27c-.271-.547-.406-1.189-.406-1.924 0-.727.135-1.367.406-1.92a3.151 3.151 0 0 1 1.145-1.298c.492-.31 1.068-.466 1.726-.466.4 0 .788.066 1.164.198.375.133.712.34 1.011.623.298.284.534.651.706 1.104.172.45.258.995.258 1.639v.489h-5.636v-1.034h4.284c0-.363-.074-.685-.222-.965a1.668 1.668 0 0 0-.623-.67 1.74 1.74 0 0 0-.932-.244 1.8 1.8 0 0 0-1.016.286 1.923 1.923 0 0 0-.665.739 2.13 2.13 0 0 0-.231.983v.808c0 .474.083.877.25 1.21.169.332.404.586.706.761.302.173.654.259 1.057.259.262 0 .5-.037.716-.111a1.482 1.482 0 0 0 .918-.9l1.307.235a2.378 2.378 0 0 1-.563 1.011c-.268.287-.605.51-1.011.67a3.792 3.792 0 0 1-1.381.235Zm.799-8.083-.947-1.238-.951 1.238h-1.246v-.07l1.62-1.957h1.15l1.625 1.957v.07h-1.251Zm5.285 3.73V21h-1.38v-7.09h1.325v1.153h.088c.163-.375.418-.677.766-.905.351-.227.792-.341 1.325-.341.483 0 .906.101 1.269.304.364.2.645.499.845.896.2.397.3.888.3 1.473V21h-1.38v-4.344c0-.514-.134-.916-.402-1.205-.267-.292-.635-.439-1.103-.439-.32 0-.605.07-.854.208a1.49 1.49 0 0 0-.586.61c-.142.264-.213.584-.213.96ZM56.733 47h-3.145l6.205-17.454h3.554L69.55 47h-3.145l-4.764-14.037h-.136L56.733 47Zm.256-6.844h9.145v2.412h-9.145v-2.412ZM72.033 51.91v-18h2.812v2.148h.196c.154-.296.372-.622.656-.98.29-.364.682-.676 1.177-.938.494-.267 1.133-.4 1.917-.4 1.029 0 1.952.261 2.77.784.824.522 1.474 1.287 1.952 2.292.477 1 .716 2.222.716 3.665 0 1.426-.236 2.645-.708 3.656-.466 1.006-1.108 1.776-1.926 2.31-.818.528-1.747.793-2.787.793-.773 0-1.409-.128-1.909-.384-.494-.256-.89-.562-1.185-.92a6.256 6.256 0 0 1-.673-.989h-.136v6.963h-2.872Zm2.812-11.454c0 .875.125 1.644.375 2.31.25.658.614 1.172 1.091 1.542.483.363 1.068.545 1.756.545.704 0 1.298-.19 1.781-.57.483-.381.847-.904 1.09-1.569.25-.665.376-1.418.376-2.258 0-.836-.122-1.577-.367-2.225-.244-.653-.608-1.167-1.09-1.542-.478-.376-1.074-.563-1.79-.563-.7 0-1.287.179-1.764.537-.478.358-.841.864-1.091 1.517-.245.648-.367 1.406-.367 2.276ZM87.202 51.91v-18h2.813v2.148h.196c.153-.296.372-.622.656-.98.29-.364.682-.676 1.176-.938.494-.267 1.134-.4 1.918-.4 1.028 0 1.951.261 2.77.784.824.522 1.474 1.287 1.951 2.292.478 1 .716 2.222.716 3.665 0 1.426-.236 2.645-.707 3.656-.466 1.006-1.108 1.776-1.926 2.31-.818.528-1.747.793-2.787.793-.773 0-1.41-.128-1.91-.384-.493-.256-.888-.562-1.184-.92a6.25 6.25 0 0 1-.673-.989h-.136v6.963h-2.873Zm2.813-11.454c0 .875.125 1.644.375 2.31.25.658.613 1.172 1.09 1.542.484.363 1.069.545 1.756.545.705 0 1.299-.19 1.782-.57.483-.381.846-.904 1.09-1.569.25-.665.376-1.418.376-2.258 0-.836-.123-1.577-.367-2.225-.244-.653-.608-1.167-1.09-1.542-.478-.376-1.075-.563-1.79-.563-.7 0-1.287.179-1.765.537-.477.358-.84.864-1.09 1.517-.245.648-.367 1.406-.367 2.276Zm28.379-6.197c-.085-.767-.438-1.363-1.057-1.79-.614-.425-1.4-.639-2.361-.639-.681 0-1.27.103-1.764.307-.489.205-.866.489-1.133.853a2.036 2.036 0 0 0-.401 1.235c-.006.381.082.714.264.998a2.4 2.4 0 0 0 .725.707c.301.188.63.347.988.477s.716.239 1.074.324l1.662.418c.619.147 1.227.346 1.824.596a6.7 6.7 0 0 1 1.636.963c.489.387.881.861 1.176 1.424.296.562.444 1.23.444 2.002 0 1.006-.259 1.895-.776 2.668-.517.773-1.264 1.378-2.241 1.816-.978.437-2.157.656-3.537.656-1.336 0-2.495-.208-3.478-.622-.983-.42-1.75-1.026-2.301-1.816-.551-.79-.852-1.741-.903-2.855h2.923c.051.62.247 1.134.588 1.543.341.403.784.707 1.33.912.545.198 1.15.298 1.815.298.71 0 1.338-.108 1.884-.324.545-.221.974-.528 1.287-.92.312-.398.468-.858.468-1.381 0-.477-.136-.872-.409-1.185-.273-.312-.65-.57-1.133-.775a10.934 10.934 0 0 0-1.662-.554l-2.012-.537c-1.426-.375-2.551-.935-3.375-1.68-.823-.75-1.235-1.74-1.235-2.974 0-1.022.275-1.914.826-2.676.551-.761 1.304-1.355 2.259-1.781.954-.426 2.031-.64 3.23-.64 1.216 0 2.284.214 3.204.64.927.42 1.654 1.003 2.182 1.747.529.744.804 1.6.827 2.565h-2.838Zm12.481-.349v2.25h-7.372v-2.25h7.372Zm-5.497-3.136h2.88v12.332c0 .443.066.781.196 1.014.137.228.316.384.537.47.222.079.466.118.733.118.193 0 .367-.014.52-.042l.375-.068.494 2.284a5.636 5.636 0 0 1-.673.179c-.29.068-.648.108-1.074.119a4.84 4.84 0 0 1-2.011-.358 3.204 3.204 0 0 1-1.441-1.185c-.357-.534-.536-1.207-.536-2.02V30.774Zm13.91 16.491c-1.261 0-2.355-.281-3.281-.844-.926-.568-1.645-1.358-2.156-2.369-.512-1.011-.768-2.19-.768-3.537 0-1.358.256-2.545.768-3.562.511-1.017 1.23-1.807 2.156-2.37.926-.562 2.02-.843 3.281-.843 1.256 0 2.347.28 3.273.843.932.563 1.653 1.353 2.165 2.37.511 1.017.767 2.204.767 3.562 0 1.347-.256 2.526-.767 3.537-.512 1.011-1.233 1.801-2.165 2.37-.926.562-2.017.843-3.273.843Zm.009-2.344c.738 0 1.349-.198 1.832-.596.489-.398.852-.93 1.091-1.594.244-.67.366-1.415.366-2.233 0-.812-.122-1.554-.366-2.224-.239-.67-.602-1.208-1.091-1.611-.483-.404-1.094-.605-1.832-.605-.745 0-1.364.201-1.858.605-.489.403-.853.94-1.091 1.61-.239.671-.358 1.413-.358 2.225 0 .818.119 1.563.358 2.233.238.665.602 1.196 1.091 1.594.494.398 1.113.596 1.858.596Zm9.129 2.08V33.91h2.778v2.138h.137c.238-.733.653-1.304 1.244-1.713.591-.415 1.267-.622 2.028-.622.165 0 .355.009.571.026.216.011.392.03.529.06v2.675a3.666 3.666 0 0 0-.597-.11 5.507 5.507 0 0 0-.793-.06c-.585 0-1.105.122-1.559.366a2.73 2.73 0 0 0-1.074 1.023c-.261.432-.392.93-.392 1.492V47h-2.872Zm14.858.264c-1.306 0-2.431-.275-3.375-.827a5.63 5.63 0 0 1-2.173-2.343c-.506-1.012-.758-2.2-.758-3.563 0-1.34.252-2.523.758-3.545.511-1.023 1.224-1.818 2.139-2.387.921-.573 2-.86 3.239-.86.778 0 1.523.128 2.233.383.71.25 1.341.642 1.892 1.176.551.529.986 1.21 1.304 2.046.318.835.477 1.832.477 2.991v.93h-10.602v-2.012h7.824c0-.62-.131-1.17-.392-1.654a2.858 2.858 0 0 0-1.083-1.15c-.46-.284-1-.426-1.619-.426-.67 0-1.256.162-1.756.485a3.274 3.274 0 0 0-1.15 1.262 3.654 3.654 0 0 0-.418 1.696v1.679c0 .807.145 1.497.435 2.07a3.07 3.07 0 0 0 1.219 1.305c.522.301 1.136.452 1.84.452.461 0 .881-.066 1.262-.196.38-.131.707-.327.98-.589.273-.26.483-.585.631-.971l2.693.366a4.429 4.429 0 0 1-1.04 1.935c-.506.551-1.145.98-1.918 1.287-.772.307-1.653.46-2.642.46ZM27.946 19.145c-.41-2.21.647-4.483 1.921-6.015 1.404-1.691 3.813-2.988 5.872-3.13.347 2.316-.61 4.573-1.87 6.17-1.351 1.715-3.674 3.044-5.923 2.975Zm12.075 8.006c.637-1.756 1.9-3.335 3.857-4.4-1.978-2.44-4.756-3.855-7.377-3.855-3.468 0-4.935 1.632-7.344 1.632-2.481 0-4.364-1.632-7.368-1.632-2.945 0-6.081 1.773-8.07 4.802-.73 1.12-1.226 2.51-1.496 4.06-.75 4.345.37 10.006 3.71 15.032 1.624 2.439 3.788 5.186 6.616 5.21 2.52.024 3.234-1.591 6.644-1.608 3.415-.019 4.062 1.624 6.578 1.6 2.828-.023 5.112-3.063 6.736-5.502 1.157-1.75 1.594-2.633 2.493-4.612-4.572-1.703-6.452-6.679-4.979-10.727Z"/></g><defs><clipPath id="a"><path fill="#fff" d="M0 0h200v60H0z"/></clipPath></defs></svg>