<svg width="455" height="100" viewBox="0 0 455 100" fill="none" xmlns="http://www.w3.org/2000/svg">
<g id="mb_full_logo">
<g id="Group 43">
<path id="Vector" fill-rule="evenodd" clip-rule="evenodd" d="M222.027 22.0968C230.381 23.4188 233.423 27.4121 234.737 29.6073C235.997 31.725 236.838 34.078 236.637 37.1364C236.4 40.7253 235.239 43.669 231.574 46.5653L230.928 47.0758L231.666 47.4471C234.202 48.7261 235.826 50.7593 236.934 52.7523C238.268 55.1611 238.943 57.9026 238.943 60.9037C238.943 66.9717 236.766 71.5614 232.344 74.6341C228.512 77.3011 223.197 78.5715 213.013 78.6273L212.311 78.6289C205.249 78.6289 198.633 78.4682 193.472 78.1843V21.9162C195.266 21.7613 200.827 21.6395 208.692 21.443C213.622 21.3212 218.337 21.5146 222.026 22.0983L222.027 22.0968ZM213.425 53.5911C210.04 53.5911 206.772 53.9495 206.654 53.9668L206.687 67.0234C209.515 67.1982 212.566 67.323 215.634 67.214C218.017 67.1309 221.17 66.9444 223.408 64.6532C225.411 62.6057 225.772 59.5344 224.279 57.0079C222.893 54.6593 220.13 53.5093 213.425 53.5911ZM206.67 32.3846V43.4238L207.151 43.4697C207.177 43.4725 209.791 43.6918 212.804 43.6918C217.689 43.6918 220.521 43.3205 222.24 41.8078C223.969 40.285 224.412 37.7787 223.339 35.6265C221.698 32.3387 216.68 32.0936 213.303 32.0807H212.992C211.774 32.0807 208.571 32.0348 206.67 32.3846ZM167.567 21.8832C166.397 24.2892 158.263 41.1039 154.535 50.6962L154.279 51.3529H153.84L153.584 50.6962C149.858 41.1039 141.722 24.2892 140.552 21.8832H127.492C124.67 42.2108 123.273 73.6505 123.082 78.1542H136.082C136.204 74.3846 136.984 50.6661 137.524 45.3351L137.66 43.9915H137.979L138.498 45.1773C142.836 55.0794 148.421 68.6823 149.344 70.9334H158.775C159.696 68.6823 165.283 55.0794 169.621 45.1773L170.139 43.9915H170.459L170.594 45.3351C171.135 50.6661 171.915 74.3846 172.037 78.1542H185.037C184.846 73.652 183.448 42.2122 180.626 21.8832H167.567Z" fill="#141ED2"/>
<path id="Vector_2" fill-rule="evenodd" clip-rule="evenodd" d="M73.096 71.5878C74.402 69.7855 76.921 69.3868 78.7195 70.6945C79.7413 71.4372 80.2739 72.5685 80.3743 73.74L81.666 89.2599C81.7752 90.4755 81.4407 91.7344 80.667 92.8013C78.9376 95.1832 75.6049 95.7126 73.2252 93.9817C71.5874 92.7919 70.9157 90.8631 71.0722 88.9683L72.3497 73.5407C72.4214 72.8567 72.6625 72.1842 73.096 71.5878ZM49.9277 62.4542C51.2625 59.8318 54.4732 58.7893 57.094 60.1271C58.0844 60.6333 58.8221 61.4175 59.3459 62.3152L68.2864 77.4995C68.8719 78.5448 68.9739 79.8363 68.3912 80.9792C67.4812 82.7628 65.2996 83.4725 63.5155 82.5625C63.0605 82.3307 62.6758 82.0145 62.3701 81.6444L50.6539 68.3731C49.2617 66.7902 48.9115 64.4472 49.9277 62.4542ZM43.2651 67.5114C43.9369 67.368 44.6516 67.3894 45.352 67.6175C47.4662 68.3086 48.6216 70.5826 47.9326 72.699C47.5409 73.9005 46.6294 74.7551 45.5458 75.2111L31.1858 81.2193C30.0634 81.6994 28.7631 81.7685 27.5115 81.3598C24.7127 80.4464 23.1855 77.4364 24.0969 74.6376C24.7242 72.7119 26.3518 71.4788 28.2018 71.0444L35.5118 69.3294L36.3945 69.1216L43.2637 67.5114H43.2651ZM89.5873 52.8475C90.7628 52.6123 92.0216 52.9135 92.9287 53.8211C94.3453 55.2362 94.3468 57.5333 92.9315 58.9499C92.5713 59.3112 92.1522 59.5808 91.7058 59.7572L75.4771 66.8203C73.5423 67.6562 71.2086 67.2691 69.6269 65.6875C67.5458 63.6056 67.5429 60.2303 69.6226 58.1469C70.4091 57.3597 71.3808 56.8995 72.397 56.6788L89.5873 52.8475ZM41.5055 45.2409C42.5805 43.4272 44.696 42.3704 46.9064 42.7231C49.8114 43.1849 51.7936 45.9177 51.3313 48.8256C51.1563 49.9254 50.6382 50.8674 49.9463 51.6431L49.9334 51.6574L49.8431 51.7607L44.2698 58.0624L43.634 58.7793L38.2732 64.8401C37.4609 65.7205 36.2638 66.2166 34.9964 66.0145C33.0201 65.699 31.6724 63.8407 31.9867 61.8621C32.0671 61.3573 32.2494 60.8942 32.5062 60.4899L41.5055 45.2409ZM86.3752 40.8462C87.3957 40.1021 88.6358 39.943 89.7811 40.2082L104.935 43.7526C106.126 44.0222 107.22 44.7277 107.995 45.793C109.729 48.1732 109.206 51.5068 106.829 53.2418C105.193 54.4347 103.152 54.4806 101.4 53.7494C101.365 53.735 87.1559 47.8033 87.1216 47.7861C86.4943 47.5093 85.9274 47.072 85.4939 46.4769C84.1836 44.6789 84.5783 42.1582 86.3752 40.8462ZM74.7178 22.0774C76.5019 21.1682 78.685 21.8794 79.5935 23.6645C79.8245 24.1191 79.9494 24.6009 79.981 25.0798L81.6603 42.7102C81.8555 44.8108 80.7647 46.91 78.771 47.9252C76.1488 49.2615 72.9409 48.2162 71.6062 45.5923C71.101 44.6 70.966 43.5333 71.0693 42.498L71.8444 34.4428L71.9363 33.4893L72.7572 24.9564C72.8965 23.7664 73.574 22.6623 74.7164 22.0788L74.7178 22.0774ZM27.3264 21.9081C29.35 21.9067 31.0265 23.0724 32.0125 24.6969C32.0326 24.7284 40.0272 37.8955 40.0443 37.9284C40.3888 38.522 40.5897 39.2102 40.5897 39.9458C40.5897 42.1711 38.7885 43.9763 36.5637 43.9778C35.3008 43.9778 34.2056 43.3755 33.4363 42.4866L23.2745 30.6947C22.4678 29.7771 22 28.5611 22 27.242C22 24.2983 24.3826 21.9095 27.3264 21.9081ZM41.9188 25.4568C42.4226 25.3765 42.9192 25.4067 43.3828 25.5257L43.4029 25.53L60.6607 29.3656C62.7161 29.8272 64.3753 31.5134 64.7254 33.7244C65.1847 36.6336 63.2041 39.3637 60.2962 39.8254C59.1981 39.9988 58.1418 39.7981 57.1902 39.3809L49.7712 36.1562L48.4537 35.5841C44.6559 33.9337 41.052 32.368 41.0361 32.3593C39.9468 31.8589 39.1057 30.8739 38.9061 29.6065C38.5919 27.6277 39.941 25.7694 41.9188 25.4568ZM71.741 5.26265C74.5399 4.35213 77.5453 5.88496 78.4553 8.68524C79.0797 10.6108 78.4898 12.5667 77.2497 14.0077L72.3497 19.6999L71.7568 20.3882L67.151 25.7365C66.6932 26.2469 66.1019 26.6498 65.4015 26.8778C63.2873 27.5661 61.0152 26.4075 60.3277 24.2898C59.9373 23.0881 60.1698 21.8594 60.7784 20.8543L64.4054 14.8723L64.8746 14.0994L68.8519 7.5411C69.4776 6.49146 70.4881 5.66983 71.741 5.26265Z" fill="#EB2D4B"/>
<path id="Vector_3" d="M270.385 73.9102V78.0668H258.601C258.591 77.9608 258.564 77.8034 258.564 77.6461C258.568 59.0165 258.571 40.3872 258.576 21.7575C258.576 20.9243 258.576 20.091 258.576 19.2617H271.027V43.0133C271.262 42.8714 271.438 42.8071 271.558 42.6866C273.547 40.6808 275.906 39.2879 278.67 38.7135C280.051 38.4263 281.497 38.3611 282.915 38.3589C285.083 38.3557 287.151 38.8905 289.15 39.7544C293.529 41.6479 296.5 44.879 298.278 49.2296C298.782 50.4621 299.201 51.7502 299.469 53.0518C299.758 54.445 299.876 55.8811 299.967 57.3049C300.047 58.5526 300.108 59.8242 299.957 61.0582C299.76 62.6655 299.392 64.257 299.014 65.8354C298.513 67.9331 297.53 69.8297 296.282 71.5763C294.009 74.7553 290.99 76.9041 287.224 78.0313C285.047 78.683 282.823 78.9535 280.581 78.7872C277.911 78.5891 275.28 78.0897 273.075 76.4137C272.234 75.7746 271.52 74.9701 270.748 74.2415C270.66 74.1589 270.57 74.0784 270.385 73.9102ZM287.295 58.4286C287.446 57.2479 287.173 55.9683 286.714 54.7282C285.143 50.4985 280.999 48.6669 276.965 49.6508C273.902 50.3983 271.984 52.4652 270.987 55.3561C270.49 56.7934 270.356 58.3112 270.559 59.8655C270.752 61.3563 271.235 62.7109 272.011 63.9748C273.532 66.453 277.322 68.2962 280.558 67.565C282.505 67.1249 284.137 66.3191 285.367 64.7977C286.819 62.9986 287.404 60.887 287.295 58.4286Z" fill="#141ED2"/>
<path id="Vector_4" d="M432.284 78.0414C432.075 78.0724 431.953 78.1066 431.831 78.1066C427.586 78.1125 423.341 78.1084 419.098 78.1277C418.605 78.13 418.331 77.9749 418.085 77.538C415.437 72.8144 412.766 68.1036 410.1 63.3903C410.01 63.233 409.899 63.0887 409.75 62.8662C409.148 63.5287 408.59 64.1436 408.029 64.7562C407.488 65.3481 406.968 65.963 406.393 66.5189C406.01 66.8884 405.875 67.2853 405.878 67.803C405.902 71.026 405.893 74.249 405.922 77.472C405.926 77.9714 405.813 78.1218 405.272 78.1174C401.683 78.0895 398.092 78.1071 394.503 78.1088C394.316 78.1088 394.129 78.1034 393.942 78.0963C393.654 78.0851 393.532 77.9753 393.533 77.6464C393.55 71.0701 393.555 64.4933 393.554 57.9169C393.553 45.1364 393.546 32.3554 393.541 19.5748C393.541 19.4845 393.554 19.3941 393.564 19.2715H405.863V53.0391C406.045 52.8961 406.214 52.8053 406.325 52.6677C409.901 48.2461 413.467 43.8154 417.06 39.4073C417.261 39.161 417.683 38.9622 418.002 38.9618C422.133 38.9546 426.264 38.9893 430.395 39.0067C430.853 39.0086 431.31 38.9695 431.878 38.9448C431.742 39.1668 431.657 39.3564 431.528 39.5093C428.574 43.0185 425.619 46.5257 422.659 50.0295C421.455 51.4538 420.237 52.8651 419.043 54.2971C418.937 54.4242 418.867 54.7119 418.938 54.8355C420.908 58.2778 422.897 61.708 424.882 65.1414C427.236 69.2143 429.588 73.2886 431.94 77.3632C432.05 77.5551 432.141 77.7583 432.286 78.0423L432.284 78.0414Z" fill="#141ED2"/>
<path id="Vector_5" d="M330.946 43.1273V38.9663C331.524 38.9663 332.059 38.9676 332.593 38.9663C335.396 38.9591 338.2 38.9465 341.004 38.947C341.675 38.947 342.345 39.0197 343.014 39.0023C343.48 38.9901 343.632 39.164 343.631 39.6095C343.618 42.7385 343.619 45.8676 343.619 48.9966C343.618 57.6579 343.619 66.3198 343.619 74.9811C343.619 75.9972 343.619 77.0135 343.619 78.0985C342.584 78.0985 341.691 78.0971 340.798 78.0985C337.919 78.1044 335.04 78.103 332.161 78.1277C331.737 78.1313 331.607 78.0081 331.615 77.5924C331.638 76.4445 331.622 75.2961 331.622 73.9868C331.346 74.2521 331.152 74.4076 330.995 74.5923C329.119 76.7892 326.726 78.1187 323.894 78.5556C322.379 78.7889 320.808 78.8967 319.284 78.7825C314.57 78.4297 310.493 76.6176 307.306 73.0664C305.805 71.3931 304.661 69.4754 303.808 67.389C303.093 65.638 302.641 63.8163 302.468 61.9448C302.313 60.2517 302.168 58.538 302.262 56.8467C302.391 54.4624 302.88 52.1216 303.786 49.887C304.991 46.913 306.671 44.2639 309.2 42.2311C311.124 40.6828 313.257 39.4826 315.67 38.8575C317.332 38.4274 319.035 38.2584 320.747 38.3506C324.584 38.5573 327.877 39.9924 330.543 42.7847C330.631 42.8761 330.736 42.9488 330.946 43.1273ZM315.017 58.6971C314.983 59.9686 315.213 61.1906 315.668 62.3717C316.907 65.5912 319.306 67.3625 322.693 67.7189C324.657 67.9256 326.473 67.313 328.066 66.1233C330.553 64.2654 331.41 61.6347 331.494 58.6949C331.525 57.5698 331.343 56.4467 330.98 55.3437C329.897 52.0651 327.81 49.9944 324.291 49.5023C321.736 49.145 319.54 49.9004 317.714 51.6555C315.723 53.568 315.064 56.0269 315.017 58.6971Z" fill="#141ED2"/>
<path id="Vector_6" d="M349.485 38.969C350.22 38.969 350.907 38.9714 351.592 38.969C354.118 38.9583 356.641 38.939 359.165 38.9385C359.947 38.9385 360.731 39.0082 361.513 39.005C361.938 39.0032 362.063 39.161 362.053 39.5686C362.024 40.6487 362.03 41.7292 362.027 42.8096C362.027 43.0047 362.043 43.1998 362.057 43.5297C362.539 43.069 362.927 42.7071 363.305 42.3354C365.257 40.4123 367.648 39.2779 370.291 38.7345C371.708 38.4432 373.194 38.3332 374.644 38.3673C377.368 38.4315 380.002 38.9704 382.317 40.5331C384.181 41.7912 385.452 43.496 386.301 45.581C386.982 47.2542 387.367 48.9828 387.611 50.7474C387.769 51.8948 387.836 53.0633 387.839 54.2225C387.859 61.9544 387.849 69.6867 387.849 77.4186V78.0985C387.034 78.0985 386.292 78.0985 385.549 78.0985C382.315 78.0968 379.08 78.0855 375.844 78.1022C375.395 78.1044 375.277 77.9718 375.277 77.5331C375.288 70.4161 375.307 63.2991 375.261 56.1821C375.251 54.6193 374.927 53.0733 374.094 51.6957C373.34 50.4484 372.195 49.8098 370.765 49.6282C369.562 49.4754 368.37 49.4188 367.175 49.7289C365.744 50.1006 364.597 50.8768 363.745 52.0629C362.79 53.3905 362.244 54.8876 362.164 56.5179C362.083 58.2038 362.058 59.8941 362.053 61.5822C362.035 66.8548 362.031 72.1277 362.046 77.4001C362.047 77.9314 361.912 78.0878 361.362 78.0865C357.586 78.0752 353.808 78.0982 350.031 78.1206C349.634 78.1229 349.471 78.007 349.471 77.5768C349.482 65.2438 349.482 52.911 349.485 40.5781C349.485 40.077 349.485 39.5766 349.485 38.969Z" fill="#141ED2"/>
</g>
</g>
</svg>
