<svg width="913" height="230" viewBox="0 0 913 230" fill="none" xmlns="http://www.w3.org/2000/svg">
<path d="M14.1241 58.0654C8.11689 58.1366 2.77734 60.4159 2.77734 60.4159C2.77734 60.4159 11.3016 124.771 14.4013 142.998C17.501 161.226 29.1247 172.758 48.1103 172.758C67.096 172.758 80.2701 149.694 80.2701 149.694L126.766 61.1596C94.9939 51.1158 86.0821 74.9231 86.0821 74.9231L57.4104 128.118C57.4104 128.118 52.7599 141.138 48.1103 140.766C43.4608 140.394 42.2984 131.838 42.2984 131.838C42.2984 131.838 34.9366 80.1318 32.6118 70.832C30.287 61.5322 23.701 58.9274 16.7267 58.1834C15.8548 58.0904 14.9822 58.0552 14.1241 58.0654ZM550.263 58.1834C550.263 58.1834 522.559 57.8122 517.522 83.2937C512.485 108.775 506.286 144.671 506.286 144.671C506.286 144.671 500.085 170.711 529.92 171.641C529.92 171.641 554.717 174.06 559.173 146.718C559.173 146.718 533.795 153.227 536.701 137.046L542.707 104.497C542.707 104.497 566.148 106.915 570.411 80.1318H546.581L550.263 58.1834ZM614.373 58.1834C614.373 58.1834 586.668 57.8122 581.631 83.2937C576.594 108.775 570.396 144.671 570.396 144.671C570.396 144.671 564.197 170.711 594.031 171.641C594.031 171.641 618.829 174.06 623.284 146.718C623.284 146.718 597.905 153.227 600.811 137.046L606.817 104.497C606.817 104.497 630.258 106.915 634.52 80.1318H610.691L614.373 58.1834ZM362.669 58.2136C361.129 58.2251 359.473 58.3351 357.693 58.5559L342.388 145.229C342.388 145.229 335.802 170.71 365.249 170.153C394.697 169.595 394.889 145.602 394.889 145.602C394.889 145.602 370.673 153.228 373.192 136.675C375.71 120.121 382.879 79.9448 382.879 79.9448C382.879 79.9448 385.773 58.0399 362.669 58.2136ZM309.514 58.4754C302.84 58.5497 284.511 60.787 278.845 82.5485L268.577 144.486C268.577 144.486 261.989 172.013 292.792 171.269C292.792 171.269 315.848 171.642 320.691 146.718C320.691 146.718 300.931 153.228 298.025 140.394L304.416 104.497C304.416 104.497 328.827 107.659 331.539 80.1318H308.679L311.972 58.5559C311.972 58.5559 311.054 58.4582 309.514 58.4754ZM457.465 77.8993C457.465 77.8993 403.027 78.2705 395.858 131.651C395.858 131.651 393.727 172.013 441.191 171.641C441.191 171.641 493.886 172.2 499.698 116.773C495.435 77.5279 457.465 77.8993 457.465 77.8993ZM223.81 78.2877C214.791 78.3926 204.031 80.7387 191.665 87.1991C191.665 87.1991 162.994 103.195 166.094 133.14C166.094 133.14 164.931 171.455 210.264 172.943C210.264 172.943 246.878 172.2 256.565 140.394C247.395 148.764 217.691 156.017 202.321 140.951C181.98 113.61 209.876 98.5445 209.876 98.5445C231.38 91.8486 234.093 107.101 234.093 107.101C233.706 130.536 205.227 126.073 205.227 126.073C205.227 126.073 217.238 146.16 249.01 130.164C249.01 130.164 274.195 117.516 256.76 90.3609C256.76 90.3609 245.17 78.0391 223.81 78.2877ZM149.626 92.5935C149.626 92.5935 123.473 91.8487 118.242 109.704C113.011 127.56 111.267 146.718 111.267 146.718C111.267 146.718 106.977 171.165 135.678 172.012C160.863 172.756 164.931 148.578 164.156 147.276C164.156 147.276 140.908 152.856 141.683 139.836C142.458 126.817 149.626 92.5935 149.626 92.5935ZM451.265 101.335C451.265 101.335 467.733 100.776 469.67 120.306C467.539 146.903 442.741 147.647 442.741 147.647C424.724 144.113 425.5 128.862 425.5 128.862C427.631 104.869 451.265 101.335 451.265 101.335Z" fill="white"/>
<path d="M154.819 58.2611C146.68 58.2829 135.194 60.2297 131.804 70.4594L129.285 84.5955C129.285 84.5955 155.438 87.9431 159.506 76.0393C161.766 70.7075 162.089 64.6309 163.381 58.9271C163.381 58.9271 159.703 58.248 154.819 58.2611Z" fill="white"/>
<path d="M794.399 2.87635C782.415 2.7848 770.619 4.04688 762.01 6.66245C746.706 11.3123 732.951 18.3804 732.951 18.3804C732.951 18.3804 718.034 27.1228 732.176 33.6327C746.318 40.1426 767.822 50.7435 767.822 50.7435C767.822 50.7435 775.571 55.5795 794.363 56.3234C813.155 57.0674 822.454 56.696 822.454 56.696L832.917 22.6585C832.917 22.6585 839.891 9.4521 821.293 5.54618C813.156 3.83734 803.72 2.94755 794.399 2.87635ZM846.422 15.0301C841.977 14.9337 838.388 17.3208 839.308 22.6585L849.964 56.696H885.029C885.029 56.696 894.329 53.9056 889.292 47.5817C884.255 41.2579 864.495 22.2859 855.583 18.566C852.907 16.3243 849.464 15.0962 846.422 15.0301ZM892.505 60.2217C888.315 60.1393 884.836 63.3922 884.836 63.3922L858.876 81.6193C858.876 81.6193 864.688 101.149 867.207 107.101C869.725 113.053 875.536 120.493 875.536 120.493L901.497 138.906C901.497 138.906 906.727 142.811 909.826 137.231C912.926 131.651 911.959 119.562 911.959 107.844C911.959 96.1266 904.597 69.5295 898.397 63.0196C896.46 60.9853 894.409 60.2592 892.505 60.2217ZM777.079 62.5607C773.653 62.5651 771.504 63.2052 771.504 63.2052L696.916 66.9251C684.517 66.5531 682.58 78.0849 682.58 78.0849C682.58 78.0849 677.157 90.9195 676.382 116.215C675.607 141.51 689.942 170.339 697.304 180.569C704.666 190.798 715.903 183.172 715.903 183.172C715.903 183.172 783.514 132.21 793.975 123.84C804.437 115.471 807.537 102.637 807.537 102.637L814.511 82.1774L794.751 68.4139C787.995 63.6013 781.483 62.555 777.079 62.5607ZM836.984 96.3134L814.125 112.866C814.125 112.866 804.631 122.538 800.369 136.302C796.107 150.066 777.702 211.444 777.702 211.444C777.702 211.444 769.76 229.3 794.363 228.742C816.25 228.246 836.596 224.093 858.1 211.259C879.604 198.425 885.417 186.707 885.417 186.707C885.417 186.707 890.067 183.546 885.611 171.456C881.155 159.366 867.982 123.84 867.982 123.84C867.982 123.84 863.525 116.772 856.744 111.564C849.964 106.356 836.984 96.3134 836.984 96.3134Z" fill="white"/>
</svg>
