<svg width="400" height="100" viewBox="0 0 400 100" fill="none" xmlns="http://www.w3.org/2000/svg">
<g id="vietlott_full_logo_white">
<g id="Group 44">
<path id="Vector" d="M13.773 26.2136C11.2461 26.2436 9 27.2022 9 27.2022C9 27.2022 12.5857 54.2681 13.8896 61.9338C15.1935 69.6 20.083 74.45 28.0693 74.45C36.0556 74.45 41.5973 64.75 41.5973 64.75L61.1557 27.5149C47.7908 23.2908 44.0421 33.3035 44.0421 33.3035L31.9813 55.6757C31.9813 55.6757 30.0251 61.1516 28.0693 60.9951C26.1135 60.8387 25.6245 57.2403 25.6245 57.2403C25.6245 57.2403 22.5278 35.4941 21.5498 31.5829C20.5719 27.6716 17.8015 26.5761 14.8678 26.2632C14.501 26.2241 14.134 26.2093 13.773 26.2136ZM239.299 26.2632C239.299 26.2632 227.646 26.1071 225.527 36.8239C223.408 47.5406 220.8 62.6375 220.8 62.6375C220.8 62.6375 218.192 73.5891 230.742 73.9803C230.742 73.9803 241.173 74.9976 243.047 63.4984C243.047 63.4984 232.372 66.2359 233.594 59.4306L236.121 45.7414C236.121 45.7414 245.981 46.7584 247.775 35.4941H237.751L239.299 26.2632ZM266.267 26.2632C266.267 26.2632 254.613 26.1071 252.494 36.8239C250.375 47.5406 247.768 62.6375 247.768 62.6375C247.768 62.6375 245.161 73.5891 257.71 73.9803C257.71 73.9803 268.142 74.9976 270.016 63.4984C270.016 63.4984 259.34 66.2359 260.562 59.4306L263.089 45.7414C263.089 45.7414 272.949 46.7584 274.742 35.4941H264.718L266.267 26.2632ZM160.388 26.2759C159.74 26.2808 159.044 26.327 158.295 26.4199L151.857 62.8721C151.857 62.8721 149.087 73.5887 161.473 73.3545C173.861 73.1198 173.941 63.029 173.941 63.029C173.941 63.029 163.755 66.2363 164.815 59.2746C165.874 52.3124 168.889 35.4155 168.889 35.4155C168.889 35.4155 170.107 26.2029 160.388 26.2759ZM138.028 26.386C135.221 26.4173 127.511 27.3582 125.128 36.5105L120.808 62.5596C120.808 62.5596 118.037 74.1367 130.994 73.8238C130.994 73.8238 140.693 73.9807 142.73 63.4984C142.73 63.4984 134.418 66.2363 133.196 60.8387L135.884 45.7414C135.884 45.7414 146.152 47.0713 147.293 35.4941H137.677L139.062 26.4199C139.062 26.4199 138.676 26.3788 138.028 26.386ZM200.264 34.5552C200.264 34.5552 177.365 34.7113 174.349 57.1616C174.349 57.1616 173.453 74.1367 193.418 73.9803C193.418 73.9803 215.584 74.2154 218.029 50.9044C216.236 34.399 200.264 34.5552 200.264 34.5552ZM101.977 34.7185C98.1833 34.7626 93.6572 35.7493 88.4554 38.4664C88.4554 38.4664 76.395 45.1938 77.699 57.7878C77.699 57.7878 77.2098 73.902 96.2791 74.5279C96.2791 74.5279 111.681 74.2154 115.756 60.8387C111.898 64.3589 99.4032 67.4093 92.9379 61.0729C84.3814 49.5741 96.1159 43.238 96.1159 43.238C105.162 40.4219 106.303 46.8366 106.303 46.8366C106.14 56.6927 94.1603 54.8157 94.1603 54.8157C94.1603 54.8157 99.2127 63.2637 112.578 56.5362C112.578 56.5362 123.172 51.2168 115.838 39.7962C115.838 39.7962 110.962 34.614 101.977 34.7185ZM70.7718 40.7351C70.7718 40.7351 59.7705 40.4219 57.5701 47.9313C55.3697 55.4411 54.6361 63.4984 54.6361 63.4984C54.6361 63.4984 52.8315 73.7801 64.9045 74.1363C75.4986 74.4492 77.2098 64.2806 76.8838 63.733C76.8838 63.733 67.1045 66.0798 67.4305 60.604C67.7565 55.1286 70.7718 40.7351 70.7718 40.7351ZM197.656 44.4116C197.656 44.4116 204.583 44.1765 205.398 52.3902C204.502 63.5762 194.07 63.8891 194.07 63.8891C186.491 62.4028 186.818 55.9886 186.818 55.9886C187.714 45.8979 197.656 44.4116 197.656 44.4116Z" fill="white"/>
<path id="Vector_2" d="M72.9557 26.295C69.532 26.3042 64.7005 27.1229 63.2745 31.4253L62.2148 37.3705C62.2148 37.3705 73.2161 38.7784 74.9273 33.772C75.8779 31.5296 76.0138 28.974 76.5573 26.5751C76.5573 26.5751 75.0101 26.2895 72.9557 26.295Z" fill="white"/>
<path id="Vector_3" d="M341.992 3.00195C336.951 2.96345 331.989 3.49424 328.368 4.59428C321.93 6.54987 316.144 9.52251 316.144 9.52251C316.144 9.52251 309.87 13.1993 315.818 15.9372C321.767 18.6751 330.813 23.1335 330.813 23.1335C330.813 23.1335 334.072 25.1674 341.977 25.4803C349.882 25.7932 353.794 25.637 353.794 25.637L358.195 11.3218C358.195 11.3218 361.129 5.76753 353.305 4.12481C349.883 3.40612 345.913 3.0319 341.992 3.00195ZM363.876 8.11347C362.006 8.07293 360.496 9.07688 360.883 11.3218L365.366 25.637H380.116C380.116 25.637 384.028 24.4634 381.909 21.8037C379.79 19.1441 371.478 11.1651 367.729 9.60057C366.604 8.65778 365.155 8.14127 363.876 8.11347ZM383.261 27.1198C381.498 27.0851 380.035 28.4532 380.035 28.4532L369.115 36.119C369.115 36.119 371.559 44.3326 372.619 46.8359C373.678 49.3391 376.123 52.4682 376.123 52.4682L387.043 60.2122C387.043 60.2122 389.243 61.8545 390.547 59.5077C391.851 57.1609 391.444 52.0766 391.444 47.1484C391.444 42.2204 388.347 31.0344 385.739 28.2965C384.924 27.4409 384.061 27.1355 383.261 27.1198ZM334.707 28.1035C332.362 28.3745 332.362 28.3745 332.362 28.3745L300.986 29.939C295.771 29.7826 294.956 34.6325 294.956 34.6325C294.956 34.6325 292.675 40.0304 292.349 50.669C292.023 61.3073 298.053 73.432 301.149 77.7344C304.246 82.0364 308.973 78.8292 308.973 78.8292C308.973 78.8292 337.414 57.396 341.814 53.8758C346.215 50.3561 347.519 44.9584 347.519 44.9584L350.452 36.3537L342.14 30.5652C339.299 28.5411 336.559 28.1011 334.707 28.1035ZM359.906 42.2989L350.29 49.2605C350.29 49.2605 346.296 53.3282 344.504 59.117C342.711 64.9057 334.969 90.7196 334.969 90.7196C334.969 90.7196 331.628 98.2293 341.977 97.9946C351.184 97.786 359.742 96.0394 368.788 90.6418C377.834 85.2441 380.279 80.3159 380.279 80.3159C380.279 80.3159 382.235 78.9865 380.361 73.9017C378.486 68.817 372.945 53.8758 372.945 53.8758C372.945 53.8758 371.07 50.9032 368.218 48.7129C365.366 46.5225 359.906 42.2989 359.906 42.2989Z" fill="white"/>
</g>
</g>
</svg>
