<svg xmlns="http://www.w3.org/2000/svg" width="200" height="60" fill="none"><g clip-path="url(#a)"><rect width="200" height="60" fill="#141414" rx="8"/><path fill="#fff" d="M52.649 12.773v-1.227h7.317v1.227h-2.95V21h-1.422v-8.227h-2.945Zm10.655 8.366a2.748 2.748 0 0 1-1.532-.44c-.447-.295-.798-.715-1.053-1.26-.252-.547-.379-1.204-.379-1.97 0-.767.128-1.422.384-1.967.258-.545.612-.962 1.061-1.251.45-.29.96-.434 1.528-.434.44 0 .794.074 1.062.221.271.145.48.314.628.508.15.194.268.365.35.513h.084v-1.15h1.38V21H65.47v-1.103h-.115a3.65 3.65 0 0 1-.36.517 2 2 0 0 1-.637.508c-.271.144-.622.216-1.053.216Zm.305-1.178c.397 0 .732-.104 1.006-.314.277-.212.487-.506.628-.881.145-.376.217-.813.217-1.311 0-.493-.07-.924-.212-1.293a1.899 1.899 0 0 0-.624-.863c-.273-.207-.612-.31-1.015-.31-.416 0-.762.108-1.039.323-.277.216-.486.51-.628.882a3.596 3.596 0 0 0-.207 1.26c0 .474.07.9.212 1.28.142.378.35.678.628.9.28.218.624.327 1.034.327Zm.71-7.03H63.23l-.037-.942c.327-.016.557-.059.693-.13.135-.073.201-.18.198-.318.003-.166-.09-.285-.281-.356a1.958 1.958 0 0 0-.688-.106l.041-.761c.7 0 1.228.11 1.589.332.363.221.543.52.54.896.003.304-.097.529-.3.674-.2.141-.422.23-.665.267v.443ZM68.918 21v-7.09h1.38V21h-1.38Zm.698-8.185a.877.877 0 0 1-.62-.24.78.78 0 0 1-.253-.582.77.77 0 0 1 .254-.581.868.868 0 0 1 .619-.245c.24 0 .444.082.614.245.172.16.258.353.258.581a.774.774 0 0 1-.258.582.861.861 0 0 1-.614.24Zm12.999.753h1.02c-.003.492-.072.904-.208 1.237a1.394 1.394 0 0 1-.692.743c-.33.166-.787.25-1.371.25v-.8c.397 0 .681-.049.854-.147a.668.668 0 0 0 .327-.466 3.9 3.9 0 0 0 .07-.817Zm-2.249 4.491v-4.15h1.38V21h-1.357v-1.228h-.073a2.225 2.225 0 0 1-.78.946c-.358.25-.804.374-1.34.374-.452 0-.853-.1-1.204-.3a2.1 2.1 0 0 1-.827-.9c-.197-.397-.295-.888-.295-1.473v-4.51h1.38v4.344c0 .483.134.868.402 1.154.27.287.619.43 1.043.43.259 0 .516-.065.771-.194.259-.13.473-.325.642-.587.172-.261.258-.594.258-.997Zm-2.118-5.096 1.08-2.128h1.454l-1.431 2.128h-1.103Zm7.586 3.827V21h-1.38v-7.09h1.325v1.153h.088c.163-.375.418-.677.766-.905.35-.227.792-.341 1.325-.341.483 0 .906.101 1.27.304.362.2.644.499.844.896.2.397.3.888.3 1.473V21h-1.38v-4.344c0-.514-.134-.916-.402-1.205-.267-.292-.635-.439-1.103-.439-.32 0-.605.07-.854.208a1.494 1.494 0 0 0-.586.61c-.142.264-.213.584-.213.96Zm9.493 7.017c-.564 0-1.048-.074-1.455-.222a2.816 2.816 0 0 1-.988-.586 2.462 2.462 0 0 1-.572-.799l1.186-.49c.083.136.194.28.333.43.141.154.332.285.572.393.243.107.556.161.937.161.523 0 .956-.127 1.297-.383.342-.252.513-.655.513-1.21v-1.394h-.088a3.145 3.145 0 0 1-.36.504 1.948 1.948 0 0 1-.637.48c-.27.135-.623.203-1.057.203-.56 0-1.065-.131-1.514-.393-.447-.264-.8-.654-1.062-1.168-.259-.517-.388-1.152-.388-1.906s.128-1.4.383-1.94c.259-.538.613-.95 1.062-1.236.45-.29.959-.434 1.528-.434.44 0 .796.074 1.067.221.27.145.481.314.632.508.154.194.272.365.355.513h.102v-1.15h1.353v7.248c0 .61-.142 1.11-.425 1.5-.283.391-.666.68-1.15.868a4.434 4.434 0 0 1-1.624.282Zm-.014-4.058c.397 0 .732-.092 1.006-.277.277-.188.486-.456.628-.803.145-.351.217-.771.217-1.26 0-.478-.071-.898-.212-1.26a1.873 1.873 0 0 0-.624-.85c-.274-.207-.612-.31-1.015-.31-.416 0-.762.108-1.04.323a1.949 1.949 0 0 0-.627.868 3.45 3.45 0 0 0-.208 1.228c0 .465.071.873.213 1.224.141.35.35.624.627.821.28.197.625.296 1.035.296Zm11.419 1.39a2.747 2.747 0 0 1-1.533-.44c-.446-.295-.797-.715-1.052-1.26-.253-.547-.379-1.204-.379-1.97 0-.767.128-1.422.383-1.967.259-.545.613-.962 1.062-1.251.449-.29.959-.434 1.528-.434.44 0 .794.074 1.062.221.271.145.48.314.628.508.15.194.267.365.351.513h.083v-3.513h1.38V21h-1.348v-1.103h-.115c-.084.15-.204.323-.361.517a1.988 1.988 0 0 1-.637.508c-.27.144-.621.216-1.052.216Zm.304-1.178c.397 0 .733-.104 1.007-.314.277-.212.486-.506.628-.881.144-.376.217-.813.217-1.311 0-.493-.071-.924-.213-1.293a1.894 1.894 0 0 0-.623-.863c-.274-.207-.612-.31-1.016-.31-.415 0-.761.108-1.038.323-.277.216-.487.51-.628.882a3.585 3.585 0 0 0-.208 1.26c0 .474.071.9.213 1.28.141.378.35.678.627.9.28.218.625.327 1.034.327Zm9.801-1.902v-4.15h1.385V21h-1.357v-1.228h-.074a2.213 2.213 0 0 1-.785.946c-.357.25-.802.374-1.334.374a2.4 2.4 0 0 1-1.21-.3 2.114 2.114 0 0 1-.822-.9c-.197-.397-.295-.888-.295-1.473v-4.51h1.38v4.344c0 .483.134.868.402 1.154.268.287.615.43 1.043.43.259 0 .516-.065.771-.194a1.62 1.62 0 0 0 .642-.587c.172-.261.257-.594.254-.997Zm-1.45 5.388a.873.873 0 0 1-.614-.24.766.766 0 0 1-.258-.582c0-.228.086-.422.258-.582a.873.873 0 0 1 .614-.24c.24 0 .445.08.614.24.173.16.259.354.259.582a.763.763 0 0 1-.259.582.861.861 0 0 1-.614.24Zm6.2-6.657V21h-1.381v-7.09h1.325v1.153h.088a2.03 2.03 0 0 1 .766-.905c.351-.227.793-.341 1.325-.341.484 0 .907.101 1.27.304.363.2.645.499.845.896.2.397.3.888.3 1.473V21h-1.381v-4.344c0-.514-.133-.916-.401-1.205-.268-.292-.636-.439-1.104-.439-.32 0-.604.07-.854.208a1.497 1.497 0 0 0-.586.61c-.141.264-.212.584-.212.96Zm9.492 7.017c-.563 0-1.048-.074-1.454-.222a2.813 2.813 0 0 1-.988-.586 2.467 2.467 0 0 1-.573-.799l1.187-.49c.083.136.194.28.332.43.142.154.333.285.573.393.243.107.555.161.937.161.523 0 .955-.127 1.297-.383.342-.252.513-.655.513-1.21v-1.394h-.088a3.145 3.145 0 0 1-.36.504 1.958 1.958 0 0 1-.637.48c-.271.135-.624.203-1.058.203-.56 0-1.064-.131-1.514-.393-.446-.264-.8-.654-1.062-1.168-.258-.517-.387-1.152-.387-1.906s.127-1.4.383-1.94c.258-.538.612-.95 1.062-1.236.449-.29.958-.434 1.528-.434.44 0 .795.074 1.066.221.271.145.482.314.633.508.153.194.272.365.355.513h.102v-1.15h1.352v7.248c0 .61-.141 1.11-.425 1.5-.283.391-.666.68-1.149.868a4.434 4.434 0 0 1-1.625.282Zm-.014-4.058c.397 0 .733-.092 1.007-.277a1.72 1.72 0 0 0 .627-.803c.145-.351.217-.771.217-1.26 0-.478-.07-.898-.212-1.26a1.874 1.874 0 0 0-.623-.85c-.274-.207-.613-.31-1.016-.31-.415 0-.762.108-1.039.323a1.943 1.943 0 0 0-.627.868 3.438 3.438 0 0 0-.208 1.228c0 .465.071.873.212 1.224.142.35.351.624.628.821.28.197.625.296 1.034.296Zm12.075-5.84v1.108h-3.873v-1.108h3.873Zm-2.835-1.699h1.381v6.708c0 .268.04.47.12.605.08.132.183.223.309.272.129.046.269.07.42.07.111 0 .208-.008.291-.024.083-.015.148-.027.194-.037l.249 1.14a2.702 2.702 0 0 1-.895.148 2.428 2.428 0 0 1-1.016-.194 1.743 1.743 0 0 1-.762-.627c-.194-.284-.291-.639-.291-1.067V12.21Zm4.492 8.79v-7.09h1.334v1.126h.074a1.71 1.71 0 0 1 .683-.9 1.955 1.955 0 0 1 1.117-.333 5.978 5.978 0 0 1 .587.032v1.32a2.506 2.506 0 0 0-.296-.05 2.816 2.816 0 0 0-.425-.033c-.326 0-.617.07-.872.208a1.534 1.534 0 0 0-.6.568c-.148.24-.222.514-.222.822V21h-1.38Zm7.921.143c-.698 0-1.3-.15-1.805-.448a3.042 3.042 0 0 1-1.163-1.27c-.271-.547-.406-1.189-.406-1.924 0-.727.135-1.367.406-1.92a3.151 3.151 0 0 1 1.145-1.298c.492-.31 1.068-.466 1.726-.466.4 0 .788.066 1.164.198.375.133.712.34 1.011.623.298.284.534.651.706 1.104.172.45.258.995.258 1.639v.489h-5.636v-1.034h4.284c0-.363-.074-.685-.222-.965a1.668 1.668 0 0 0-.623-.67 1.74 1.74 0 0 0-.932-.244 1.8 1.8 0 0 0-1.016.286 1.923 1.923 0 0 0-.665.739 2.13 2.13 0 0 0-.231.983v.808c0 .474.083.877.25 1.21.169.332.404.586.706.761.302.173.654.259 1.057.259.262 0 .5-.037.716-.111a1.482 1.482 0 0 0 .918-.9l1.307.235a2.378 2.378 0 0 1-.563 1.011c-.268.287-.605.51-1.011.67a3.792 3.792 0 0 1-1.381.235Zm.799-8.083-.947-1.238-.951 1.238h-1.246v-.07l1.62-1.957h1.15l1.625 1.957v.07h-1.251Zm5.285 3.73V21h-1.38v-7.09h1.325v1.153h.088c.163-.375.418-.677.766-.905.351-.227.792-.341 1.325-.341.483 0 .906.101 1.269.304.364.2.645.499.845.896.2.397.3.888.3 1.473V21h-1.38v-4.344c0-.514-.134-.916-.402-1.205-.267-.292-.635-.439-1.103-.439-.32 0-.605.07-.854.208a1.49 1.49 0 0 0-.586.61c-.142.264-.213.584-.213.96ZM61.6 47.24c-1.712 0-3.216-.376-4.512-1.128a8.174 8.174 0 0 1-3.048-3.168c-.736-1.344-1.104-2.872-1.104-4.584 0-1.728.368-3.256 1.104-4.584.752-1.344 1.776-2.392 3.072-3.144 1.296-.768 2.792-1.152 4.488-1.152 1.392 0 2.632.256 3.72.768s1.976 1.208 2.664 2.088a6.375 6.375 0 0 1 1.296 2.952h-2.856a3.922 3.922 0 0 0-.816-1.728c-.416-.512-.96-.92-1.632-1.224-.672-.304-1.448-.456-2.328-.456-1.184 0-2.208.272-3.072.816-.864.528-1.528 1.28-1.992 2.256-.464.96-.696 2.096-.696 3.408 0 1.296.224 2.432.672 3.408.464.976 1.128 1.736 1.992 2.28.88.528 1.92.792 3.12.792 1.024 0 1.92-.208 2.688-.624.784-.432 1.392-1.072 1.824-1.92.448-.864.672-1.944.672-3.24h2.712c0 1.744-.344 3.232-1.032 4.464-.688 1.216-1.632 2.144-2.832 2.784-1.184.624-2.552.936-4.104.936Zm5.808-7.08h-5.424v-2.328h7.584v1.224l-2.16 1.104Zm10.405 7.08c-1.264 0-2.384-.272-3.36-.816a5.878 5.878 0 0 1-2.256-2.256c-.544-.976-.816-2.088-.816-3.336 0-1.248.272-2.344.816-3.288a5.757 5.757 0 0 1 2.256-2.208c.976-.544 2.096-.816 3.36-.816 1.296 0 2.424.272 3.384.816a5.554 5.554 0 0 1 2.256 2.208c.528.944.792 2.04.792 3.288 0 1.248-.272 2.36-.816 3.336a5.71 5.71 0 0 1-2.232 2.256c-.96.544-2.088.816-3.384.816Zm0-2.28c.688 0 1.296-.168 1.824-.504a3.654 3.654 0 0 0 1.248-1.44c.304-.624.456-1.36.456-2.208 0-1.248-.328-2.224-.984-2.928-.656-.72-1.504-1.08-2.544-1.08-1.008 0-1.848.36-2.52 1.08-.656.72-.984 1.696-.984 2.928 0 .848.152 1.584.456 2.208.304.608.72 1.088 1.248 1.44a3.28 3.28 0 0 0 1.8.504Zm14.514 2.28c-1.264 0-2.384-.272-3.36-.816a5.878 5.878 0 0 1-2.256-2.256c-.544-.976-.816-2.088-.816-3.336 0-1.248.272-2.344.816-3.288a5.757 5.757 0 0 1 2.256-2.208c.976-.544 2.096-.816 3.36-.816 1.296 0 2.424.272 3.384.816a5.554 5.554 0 0 1 2.256 2.208c.528.944.792 2.04.792 3.288 0 1.248-.272 2.36-.816 3.336a5.71 5.71 0 0 1-2.232 2.256c-.96.544-2.088.816-3.384.816Zm0-2.28c.688 0 1.296-.168 1.824-.504a3.654 3.654 0 0 0 1.248-1.44c.304-.624.456-1.36.456-2.208 0-1.248-.328-2.224-.984-2.928-.656-.72-1.504-1.08-2.544-1.08-1.008 0-1.848.36-2.52 1.08-.656.72-.984 1.696-.984 2.928 0 .848.152 1.584.456 2.208.304.608.72 1.088 1.248 1.44a3.281 3.281 0 0 0 1.8.504Zm14.392 7.2c-1.584 0-2.888-.352-3.912-1.056-1.008-.704-1.608-1.64-1.8-2.808h2.664c.144.448.472.8.984 1.056.512.272 1.192.408 2.04.408 1.168 0 2.032-.272 2.592-.816.56-.528.84-1.336.84-2.424v-2.64l.216.048c-.208.912-.712 1.64-1.512 2.184-.784.528-1.744.792-2.88.792-1.072 0-2.016-.256-2.832-.768-.816-.512-1.448-1.224-1.896-2.136-.448-.928-.672-2.008-.672-3.24 0-1.248.232-2.336.696-3.264.464-.944 1.112-1.672 1.944-2.184.848-.528 1.832-.792 2.952-.792 1.152 0 2.104.28 2.856.84.752.544 1.224 1.312 1.416 2.304l-.192.024V34.76h2.712v11.736c0 1.744-.552 3.12-1.656 4.128-1.104 1.024-2.624 1.536-4.56 1.536Zm.12-7.512c1.024 0 1.84-.344 2.448-1.032.608-.704.912-1.68.912-2.928 0-1.232-.312-2.192-.936-2.88-.608-.688-1.424-1.032-2.448-1.032-1.008 0-1.816.352-2.424 1.056-.608.688-.912 1.656-.912 2.904 0 1.232.304 2.192.912 2.88.624.688 1.44 1.032 2.448 1.032ZM116.514 47V29.72h2.832V47h-2.832Zm11.805.24c-1.28 0-2.4-.272-3.36-.816a5.927 5.927 0 0 1-2.232-2.256c-.528-.96-.792-2.064-.792-3.312 0-1.248.264-2.344.792-3.288a5.755 5.755 0 0 1 2.232-2.232c.96-.544 2.064-.816 3.312-.816 1.2 0 2.24.256 3.12.768a5.052 5.052 0 0 1 2.064 2.112c.496.896.744 1.96.744 3.192a5.974 5.974 0 0 1-.096 1.128h-10.368v-2.016h8.28l-.624.648c0-1.216-.28-2.136-.84-2.76-.544-.624-1.312-.936-2.304-.936-1.072 0-1.92.368-2.544 1.104-.624.736-.936 1.776-.936 3.12s.312 2.384.936 3.12c.624.736 1.504 1.104 2.64 1.104.672 0 1.256-.128 1.752-.384.512-.272.88-.672 1.104-1.2h2.664c-.4 1.152-1.08 2.064-2.04 2.736-.944.656-2.112.984-3.504.984Zm13.36-.24V29.72h7.584c1.248 0 2.32.216 3.216.648.896.416 1.584 1.016 2.064 1.8.48.768.72 1.688.72 2.76 0 1.056-.248 1.984-.744 2.784-.48.784-1.168 1.4-2.064 1.848-.88.432-1.944.648-3.192.648h-5.352V37.88h5.208c1.056 0 1.864-.256 2.424-.768.56-.528.84-1.256.84-2.184 0-.912-.28-1.616-.84-2.112-.56-.512-1.368-.768-2.424-.768h-4.56V47h-2.88Zm16.249 0V29.72h2.832V47h-2.832Zm14.012 0a9.127 9.127 0 0 1-.192-1.032 16.77 16.77 0 0 1-.048-1.368h-.096v-5.832c0-.688-.192-1.208-.576-1.56-.368-.368-.936-.552-1.704-.552-.768 0-1.376.144-1.824.432-.448.288-.72.704-.816 1.248h-2.688c.128-1.152.664-2.072 1.608-2.76.944-.704 2.216-1.056 3.816-1.056 1.648 0 2.888.376 3.72 1.128.832.752 1.248 1.856 1.248 3.312v5.64c0 .368.024.752.072 1.152.064.384.152.8.264 1.248h-2.784Zm-4.248.24c-1.232 0-2.216-.304-2.952-.912-.736-.624-1.104-1.456-1.104-2.496 0-1.12.4-2 1.2-2.64.8-.64 1.936-1.072 3.408-1.296l3.912-.624v1.872l-3.456.528c-.752.112-1.32.32-1.704.624-.368.288-.552.704-.552 1.248 0 .496.176.88.528 1.152.352.256.848.384 1.488.384.896 0 1.64-.224 2.232-.672.608-.448.912-1 .912-1.656l.336 1.824c-.32.864-.848 1.528-1.584 1.992-.72.448-1.608.672-2.664.672Zm10.668 4.92c-.256 0-.504-.024-.744-.072a4.148 4.148 0 0 1-.672-.144V49.64c.128.048.28.088.456.12.192.032.4.048.624.048.528 0 .952-.136 1.272-.408.32-.272.6-.728.84-1.368l1.104-2.928.624-.816 3.456-9.528h2.856l-5.856 14.424c-.272.672-.592 1.232-.96 1.68-.368.448-.8.776-1.296.984-.496.208-1.064.312-1.704.312Zm2.424-5.232-5.088-12.168h3l4.248 10.872-2.16 1.296Z"/><path fill="#32BBFF" d="M37.23 24.349c-4.182-2.34-10.895-6.096-21.306-11.925a2.51 2.51 0 0 0-2.208-.288L31.58 29.999l5.65-5.65Z"/><path fill="#32BBFF" d="M13.717 12.136A2.512 2.512 0 0 0 12 14.532v30.934a2.512 2.512 0 0 0 1.716 2.396L31.58 30 13.717 12.136Z"/><path fill="#32BBFF" d="M31.58 29.998 13.716 47.862a2.484 2.484 0 0 0 2.208-.288c10.097-5.654 16.734-9.366 20.964-11.725l.347-.195-5.655-5.656Z"/><path fill="#2C9FD9" d="M12 29.998v15.468a2.512 2.512 0 0 0 1.716 2.396L31.58 29.998H12Z"/><path fill="#29CC5E" d="M15.924 12.424a2.518 2.518 0 0 0-2.588-.126L31.308 30.27l5.921-5.921c-4.182-2.34-10.894-6.096-21.305-11.925Z"/><path fill="#D93F21" d="M31.308 29.728 13.336 47.699a2.5 2.5 0 0 0 2.588-.125c10.096-5.654 16.733-9.366 20.964-11.725l.347-.195-5.927-5.926Z"/><path fill="#FFD500" d="M44.689 29.999c0-.857-.433-1.722-1.29-2.202l-6.517-3.643L31.038 30l5.85 5.85c4.86-2.728 6.511-3.649 6.511-3.649A2.505 2.505 0 0 0 44.689 30Z"/><path fill="#FA0" d="M43.399 32.2a2.505 2.505 0 0 0 1.29-2.202H31.038l5.85 5.851c4.86-2.729 6.511-3.649 6.511-3.649Z"/></g><defs><clipPath id="a"><path fill="#fff" d="M0 0h200v60H0z"/></clipPath></defs></svg>