<svg xmlns="http://www.w3.org/2000/svg" width="505" height="505" fill="none"><g clip-path="url(#a)"><path fill="#fff" d="M505 0H0v505h505V0Z"/><mask id="b" width="425" height="425" x="40" y="40" maskUnits="userSpaceOnUse" style="mask-type:alpha"><path fill="#000" stroke="#000" d="M128.5 40.667a5.167 5.167 0 1 1 0 10.333 5.167 5.167 0 0 1 0-10.333Z"/><path fill="#000" stroke="#000" d="M138.833 40.667a5.167 5.167 0 1 1 0 10.333 5.167 5.167 0 0 1 0-10.333Zm20.667 0a5.166 5.166 0 1 1 0 10.333 5.166 5.166 0 0 1 0-10.333Zm20.666 0a5.167 5.167 0 1 1 0 10.333 5.167 5.167 0 0 1 0-10.333Z"/><path fill="#000" stroke="#000" d="M190.5 40.667a5.167 5.167 0 1 1 0 10.333 5.167 5.167 0 0 1 0-10.333Z"/><path fill="#000" stroke="#000" d="M200.834 40.667a5.166 5.166 0 1 1 0 10.333 5.166 5.166 0 0 1 0-10.333Z"/><path fill="#000" stroke="#000" d="M211.167 40.667a5.166 5.166 0 1 1 0 10.333 5.166 5.166 0 0 1 0-10.333Z"/><path fill="#000" stroke="#000" d="M221.5 40.667a5.167 5.167 0 1 1 0 10.333 5.167 5.167 0 0 1 0-10.333Z"/><path fill="#000" stroke="#000" d="M231.833 40.667a5.167 5.167 0 1 1 0 10.333 5.167 5.167 0 0 1 0-10.333Z"/><path fill="#000" stroke="#000" d="M242.166 40.667a5.167 5.167 0 1 1 0 10.333 5.167 5.167 0 0 1 0-10.333Z"/><path fill="#000" stroke="#000" d="M252.5 40.667a5.166 5.166 0 1 1 0 10.333 5.166 5.166 0 0 1 0-10.333Z"/><path fill="#000" stroke="#000" d="M262.833 40.667a5.167 5.167 0 1 1 0 10.333 5.167 5.167 0 0 1 0-10.333Zm20.667 0a5.167 5.167 0 1 1 0 10.333 5.167 5.167 0 0 1 0-10.333Zm20.667 0a5.166 5.166 0 1 1 0 10.333 5.166 5.166 0 0 1 0-10.333Zm20.666 0a5.167 5.167 0 1 1 0 10.333 5.167 5.167 0 0 1 0-10.333Zm31 0a5.166 5.166 0 1 1 0 10.333 5.166 5.166 0 0 1 0-10.333ZM128.5 51a5.167 5.167 0 1 1 0 10.333 5.167 5.167 0 0 1 0-10.333Z"/><path fill="#000" stroke="#000" d="M138.833 51a5.167 5.167 0 1 1 0 10.333 5.167 5.167 0 0 1 0-10.333Zm20.667 0a5.166 5.166 0 1 1 0 10.333 5.166 5.166 0 0 1 0-10.333Zm20.666 0a5.167 5.167 0 1 1 0 10.333 5.167 5.167 0 0 1 0-10.333Z"/><path fill="#000" stroke="#000" d="M190.5 51a5.167 5.167 0 1 1 0 10.333 5.167 5.167 0 0 1 0-10.333Z"/><path fill="#000" stroke="#000" d="M200.834 51a5.166 5.166 0 1 1 0 10.333 5.166 5.166 0 0 1 0-10.333Zm41.332 0a5.167 5.167 0 1 1 0 10.333 5.167 5.167 0 0 1 0-10.333Zm41.334 0a5.167 5.167 0 1 1 0 10.333 5.167 5.167 0 0 1 0-10.333Z"/><path fill="#000" stroke="#000" d="M293.834 51a5.166 5.166 0 1 1 0 10.333 5.166 5.166 0 0 1 0-10.333Z"/><path fill="#000" stroke="#000" d="M304.167 51a5.166 5.166 0 1 1 0 10.333 5.166 5.166 0 0 1 0-10.333Z"/><path fill="#000" stroke="#000" d="M314.5 51a5.167 5.167 0 1 1 0 10.333 5.167 5.167 0 0 1 0-10.333Z"/><path fill="#000" stroke="#000" d="M324.833 51a5.167 5.167 0 1 1 0 10.333 5.167 5.167 0 0 1 0-10.333Zm20.667 0a5.166 5.166 0 1 1 0 10.333 5.166 5.166 0 0 1 0-10.333Zm31 0a5.166 5.166 0 1 1 0 10.333 5.166 5.166 0 0 1 0-10.333Zm-186 10.334a5.167 5.167 0 1 1 0 10.333 5.167 5.167 0 0 1 0-10.334Z"/><path fill="#000" stroke="#000" d="M200.834 61.334a5.166 5.166 0 1 1 0 10.332 5.166 5.166 0 0 1 0-10.332Zm41.332 0a5.167 5.167 0 1 1 0 10.333 5.167 5.167 0 0 1 0-10.334Zm41.334 0a5.167 5.167 0 1 1 0 10.333 5.167 5.167 0 0 1 0-10.334Zm20.667 0a5.166 5.166 0 1 1 0 10.332 5.166 5.166 0 0 1 0-10.332Zm20.666 0a5.167 5.167 0 1 1 0 10.333 5.167 5.167 0 0 1 0-10.334Zm20.667 0a5.166 5.166 0 1 1 0 10.332 5.166 5.166 0 0 1 0-10.332Zm20.666 0a5.167 5.167 0 1 1 0 10.333 5.167 5.167 0 0 1 0-10.334ZM128.5 71.667a5.167 5.167 0 1 1 0 10.333 5.167 5.167 0 0 1 0-10.333Zm31 0a5.166 5.166 0 1 1 0 10.332 5.166 5.166 0 0 1 0-10.332Zm62 0a5.167 5.167 0 1 1 0 10.333 5.167 5.167 0 0 1 0-10.333Z"/><path fill="#000" stroke="#000" d="M231.833 71.667a5.167 5.167 0 1 1 0 10.333 5.167 5.167 0 0 1 0-10.333Zm20.667 0a5.166 5.166 0 1 1 0 10.332 5.166 5.166 0 0 1 0-10.332Z"/><path fill="#000" stroke="#000" d="M262.833 71.667a5.167 5.167 0 1 1 0 10.333 5.167 5.167 0 0 1 0-10.333Z"/><path fill="#000" stroke="#000" d="M273.166 71.667a5.167 5.167 0 1 1 0 10.333 5.167 5.167 0 0 1 0-10.333Zm31.001 0a5.166 5.166 0 1 1 0 10.332 5.166 5.166 0 0 1 0-10.332Z"/><path fill="#000" stroke="#000" d="M314.5 71.667a5.167 5.167 0 1 1 0 10.333 5.167 5.167 0 0 1 0-10.333Zm31 0a5.166 5.166 0 1 1 0 10.332 5.166 5.166 0 0 1 0-10.332Zm20.666 0a5.167 5.167 0 1 1 0 10.333 5.167 5.167 0 0 1 0-10.333ZM128.5 82a5.167 5.167 0 1 1 0 10.333 5.167 5.167 0 0 1 0-10.333Zm20.666 0a5.167 5.167 0 1 1 0 10.333 5.167 5.167 0 0 1 0-10.333Zm20.667 0a5.166 5.166 0 1 1 0 10.333 5.166 5.166 0 0 1 0-10.333Zm31.001 0a5.166 5.166 0 1 1 0 10.333 5.166 5.166 0 0 1 0-10.333Zm41.332 0a5.167 5.167 0 1 1 0 10.333 5.167 5.167 0 0 1 0-10.333Zm41.334 0a5.167 5.167 0 1 1 0 10.333 5.167 5.167 0 0 1 0-10.333Zm20.667 0a5.166 5.166 0 1 1 0 10.333 5.166 5.166 0 0 1 0-10.333Z"/><path fill="#000" stroke="#000" d="M314.5 82a5.167 5.167 0 1 1 0 10.333 5.167 5.167 0 0 1 0-10.333Z"/><path fill="#000" stroke="#000" d="M324.833 82a5.167 5.167 0 1 1 0 10.333 5.167 5.167 0 0 1 0-10.333Zm51.667 0a5.166 5.166 0 1 1 0 10.333 5.166 5.166 0 0 1 0-10.333Zm-248 10.333a5.167 5.167 0 1 1 0 10.334 5.167 5.167 0 0 1 0-10.334Zm20.666 0a5.167 5.167 0 1 1 0 10.334 5.167 5.167 0 0 1 0-10.334Zm41.334 0a5.167 5.167 0 1 1 0 10.334 5.167 5.167 0 0 1 0-10.334Z"/><path fill="#000" stroke="#000" d="M200.834 92.333a5.166 5.166 0 1 1 0 10.333 5.166 5.166 0 0 1 0-10.333Zm20.666 0a5.167 5.167 0 1 1 0 10.334 5.167 5.167 0 0 1 0-10.334Z"/><path fill="#000" stroke="#000" d="M231.833 92.333a5.167 5.167 0 1 1 0 10.334 5.167 5.167 0 0 1 0-10.334Zm51.667 0a5.167 5.167 0 1 1 0 10.334 5.167 5.167 0 0 1 0-10.334Z"/><path fill="#000" stroke="#000" d="M293.834 92.333a5.166 5.166 0 1 1 0 10.333 5.166 5.166 0 0 1 0-10.333Zm20.666 0a5.167 5.167 0 1 1 0 10.334 5.167 5.167 0 0 1 0-10.334Z"/><path fill="#000" stroke="#000" d="M324.833 92.333a5.167 5.167 0 1 1 0 10.334 5.167 5.167 0 0 1 0-10.334Z"/><path fill="#000" stroke="#000" d="M335.166 92.333a5.167 5.167 0 1 1 0 10.334 5.167 5.167 0 0 1 0-10.334Zm31 0a5.167 5.167 0 1 1 0 10.334 5.167 5.167 0 0 1 0-10.334ZM128.5 102.667a5.167 5.167 0 1 1 0 10.333 5.167 5.167 0 0 1 0-10.333Zm20.666 0a5.167 5.167 0 1 1 0 10.333 5.167 5.167 0 0 1 0-10.333Zm20.667 0a5.166 5.166 0 1 1 0 10.333 5.166 5.166 0 0 1 0-10.333Zm20.667 0a5.167 5.167 0 1 1 0 10.333 5.167 5.167 0 0 1 0-10.333Zm20.667 0a5.166 5.166 0 1 1 0 10.333 5.166 5.166 0 0 1 0-10.333Zm20.666 0a5.167 5.167 0 1 1 0 10.333 5.167 5.167 0 0 1 0-10.333Zm20.667 0a5.166 5.166 0 1 1 0 10.333 5.166 5.166 0 0 1 0-10.333Zm20.666 0a5.167 5.167 0 1 1 0 10.333 5.167 5.167 0 0 1 0-10.333Zm20.668 0a5.166 5.166 0 1 1 0 10.333 5.166 5.166 0 0 1 0-10.333Zm20.666 0a5.167 5.167 0 1 1 0 10.333 5.167 5.167 0 0 1 0-10.333Z"/><path fill="#000" stroke="#000" d="M335.166 102.667a5.167 5.167 0 1 1 0 10.333 5.167 5.167 0 0 1 0-10.333Zm20.667 0a5.166 5.166 0 1 1 0 10.333 5.166 5.166 0 0 1 0-10.333Zm20.667 0a5.166 5.166 0 1 1 0 10.333 5.166 5.166 0 0 1 0-10.333ZM149.166 113a5.167 5.167 0 1 1 0 10.333 5.167 5.167 0 0 1 0-10.333Z"/><path fill="#000" stroke="#000" d="M159.5 113a5.166 5.166 0 1 1 0 10.333 5.166 5.166 0 0 1 0-10.333Zm31 0a5.167 5.167 0 1 1 0 10.333 5.167 5.167 0 0 1 0-10.333Zm31 0a5.167 5.167 0 1 1 0 10.333 5.167 5.167 0 0 1 0-10.333Z"/><path fill="#000" stroke="#000" d="M231.833 113a5.167 5.167 0 1 1 0 10.333 5.167 5.167 0 0 1 0-10.333Z"/><path fill="#000" stroke="#000" d="M242.166 113a5.167 5.167 0 1 1 0 10.333 5.167 5.167 0 0 1 0-10.333Z"/><path fill="#000" stroke="#000" d="M252.5 113a5.166 5.166 0 1 1 0 10.333 5.166 5.166 0 0 1 0-10.333Z"/><path fill="#000" stroke="#000" d="M262.833 113a5.167 5.167 0 1 1 0 10.333 5.167 5.167 0 0 1 0-10.333Z"/><path fill="#000" stroke="#000" d="M273.166 113a5.167 5.167 0 1 1 0 10.333 5.167 5.167 0 0 1 0-10.333Zm62 0a5.167 5.167 0 1 1 0 10.333 5.167 5.167 0 0 1 0-10.333Z"/><path fill="#000" stroke="#000" d="M345.5 113a5.166 5.166 0 1 1 0 10.333 5.166 5.166 0 0 1 0-10.333Z"/><path fill="#000" stroke="#000" d="M355.833 113a5.166 5.166 0 1 1 0 10.333 5.166 5.166 0 0 1 0-10.333Zm-279 10.333a5.167 5.167 0 1 1-.001 10.334 5.167 5.167 0 0 1 0-10.334Zm31.001 0a5.167 5.167 0 1 1-.002 10.334 5.167 5.167 0 0 1 .002-10.334Zm51.666 0a5.167 5.167 0 1 1-.002 10.334 5.167 5.167 0 0 1 .002-10.334Zm20.666 0a5.167 5.167 0 1 1 0 10.334 5.167 5.167 0 0 1 0-10.334Zm31.001 0a5.167 5.167 0 1 1-.002 10.334 5.167 5.167 0 0 1 .002-10.334Z"/><path fill="#000" stroke="#000" d="M221.5 123.333a5.167 5.167 0 1 1 0 10.334 5.167 5.167 0 0 1 0-10.334Zm20.666 0a5.167 5.167 0 1 1 0 10.334 5.167 5.167 0 0 1 0-10.334Zm20.667 0a5.167 5.167 0 1 1 0 10.334 5.167 5.167 0 0 1 0-10.334Z"/><path fill="#000" stroke="#000" d="M273.166 123.333a5.167 5.167 0 1 1 0 10.334 5.167 5.167 0 0 1 0-10.334Zm31.001 0a5.167 5.167 0 1 1-.002 10.334 5.167 5.167 0 0 1 .002-10.334Zm20.666 0a5.167 5.167 0 1 1 0 10.334 5.167 5.167 0 0 1 0-10.334Z"/><path fill="#000" stroke="#000" d="M335.166 123.333a5.167 5.167 0 1 1 0 10.334 5.167 5.167 0 0 1 0-10.334Zm31 0a5.167 5.167 0 1 1 0 10.334 5.167 5.167 0 0 1 0-10.334Z"/><path fill="#000" stroke="#000" d="M376.5 123.333a5.167 5.167 0 1 1-.002 10.334 5.167 5.167 0 0 1 .002-10.334Zm31 0a5.167 5.167 0 1 1 0 10.334 5.167 5.167 0 0 1 0-10.334Z"/><path fill="#000" stroke="#000" d="M417.833 123.333a5.167 5.167 0 1 1 0 10.334 5.167 5.167 0 0 1 0-10.334Z"/><path fill="#000" stroke="#000" d="M428.166 123.333a5.167 5.167 0 1 1 0 10.334 5.167 5.167 0 0 1 0-10.334Zm20.667 0a5.167 5.167 0 1 1-.002 10.334 5.167 5.167 0 0 1 .002-10.334Z"/><path fill="#000" stroke="#000" d="M459.166 123.333a5.167 5.167 0 1 1 0 10.334 5.167 5.167 0 0 1 0-10.334ZM45.833 133.667a5.166 5.166 0 1 1 0 10.333 5.166 5.166 0 0 1 0-10.333Zm31 0a5.166 5.166 0 1 1 0 10.333 5.166 5.166 0 0 1 0-10.333Z"/><path fill="#000" stroke="#000" d="M87.166 133.667a5.166 5.166 0 1 1 0 10.333 5.166 5.166 0 0 1 0-10.333Z"/><path fill="#000" stroke="#000" d="M97.5 133.667A5.166 5.166 0 1 1 97.501 144a5.166 5.166 0 0 1 0-10.333Zm62 0a5.166 5.166 0 1 1 0 10.332 5.166 5.166 0 0 1 0-10.332Zm31 0a5.166 5.166 0 1 1 .001 10.333 5.166 5.166 0 0 1-.001-10.333Zm31 0a5.166 5.166 0 1 1 .001 10.333 5.166 5.166 0 0 1-.001-10.333Zm41.333 0a5.166 5.166 0 1 1 .001 10.333 5.166 5.166 0 0 1-.001-10.333Zm41.334 0a5.166 5.166 0 1 1 0 10.332 5.166 5.166 0 0 1 0-10.332Zm51.666 0a5.166 5.166 0 1 1 0 10.332 5.166 5.166 0 0 1 0-10.332Zm20.667 0a5.166 5.166 0 1 1 0 10.332 5.166 5.166 0 0 1 0-10.332Z"/><path fill="#000" stroke="#000" d="M386.834 133.667a5.166 5.166 0 1 1 0 10.332 5.166 5.166 0 0 1 0-10.332Z"/><path fill="#000" stroke="#000" d="M397.167 133.667a5.166 5.166 0 1 1 0 10.332 5.166 5.166 0 0 1 0-10.332Zm30.999 0a5.166 5.166 0 1 1 .001 10.333 5.166 5.166 0 0 1-.001-10.333Z"/><path fill="#000" stroke="#000" d="M438.5 133.667a5.166 5.166 0 1 1 0 10.332 5.166 5.166 0 0 1 0-10.332Z"/><path fill="#000" stroke="#000" d="M448.833 133.667a5.166 5.166 0 1 1 0 10.332 5.166 5.166 0 0 1 0-10.332Z"/><path fill="#000" stroke="#000" d="M459.166 133.667a5.166 5.166 0 1 1 .001 10.333 5.166 5.166 0 0 1-.001-10.333ZM45.833 144a5.166 5.166 0 1 1 0 10.333 5.166 5.166 0 0 1 0-10.333Z"/><path fill="#000" stroke="#000" d="M56.166 144a5.166 5.166 0 1 1 0 10.333 5.166 5.166 0 0 1 0-10.333Z"/><path fill="#000" stroke="#000" d="M66.5 144a5.166 5.166 0 1 1 0 10.333 5.166 5.166 0 0 1 0-10.333Z"/><path fill="#000" stroke="#000" d="M76.833 144a5.166 5.166 0 1 1 0 10.333 5.166 5.166 0 0 1 0-10.333Z"/><path fill="#000" stroke="#000" d="M87.166 144a5.166 5.166 0 1 1 0 10.333 5.166 5.166 0 0 1 0-10.333Zm20.668 0a5.166 5.166 0 1 1 0 10.333 5.166 5.166 0 0 1 0-10.333Z"/><path fill="#000" stroke="#000" d="M118.167 144a5.166 5.166 0 1 1 0 10.333 5.166 5.166 0 0 1 0-10.333Zm20.666 0a5.167 5.167 0 1 1 0 10.333 5.167 5.167 0 0 1 0-10.333Zm41.333 0a5.167 5.167 0 1 1 0 10.333 5.167 5.167 0 0 1 0-10.333Z"/><path fill="#000" stroke="#000" d="M190.5 144a5.167 5.167 0 1 1 0 10.333 5.167 5.167 0 0 1 0-10.333Zm31 0a5.167 5.167 0 1 1 0 10.333 5.167 5.167 0 0 1 0-10.333Zm31 0a5.166 5.166 0 1 1 0 10.333 5.166 5.166 0 0 1 0-10.333Zm20.666 0a5.167 5.167 0 1 1 0 10.333 5.167 5.167 0 0 1 0-10.333Z"/><path fill="#000" stroke="#000" d="M283.5 144a5.167 5.167 0 1 1 0 10.333 5.167 5.167 0 0 1 0-10.333Zm20.667 0a5.166 5.166 0 1 1 0 10.333 5.166 5.166 0 0 1 0-10.333Zm30.999 0a5.167 5.167 0 1 1 0 10.333 5.167 5.167 0 0 1 0-10.333Z"/><path fill="#000" stroke="#000" d="M345.5 144a5.166 5.166 0 1 1 0 10.333 5.166 5.166 0 0 1 0-10.333Zm20.666 0a5.167 5.167 0 1 1 0 10.333 5.167 5.167 0 0 1 0-10.333Zm41.334 0a5.167 5.167 0 1 1 0 10.333 5.167 5.167 0 0 1 0-10.333Zm20.666 0a5.167 5.167 0 1 1 0 10.333 5.167 5.167 0 0 1 0-10.333Z"/><path fill="#000" stroke="#000" d="M438.5 144a5.166 5.166 0 1 1 0 10.333 5.166 5.166 0 0 1 0-10.333Z"/><path fill="#000" stroke="#000" d="M448.833 144a5.166 5.166 0 1 1 0 10.333 5.166 5.166 0 0 1 0-10.333Zm-403 10.333a5.167 5.167 0 1 1 0 10.334 5.167 5.167 0 0 1 0-10.334Zm20.667 0a5.167 5.167 0 1 1-.001 10.334 5.167 5.167 0 0 1 0-10.334Zm31 0a5.167 5.167 0 1 1 0 10.334 5.167 5.167 0 0 1 0-10.334Zm31 0a5.167 5.167 0 1 1 0 10.334 5.167 5.167 0 0 1 0-10.334Z"/><path fill="#000" stroke="#000" d="M138.833 154.333a5.167 5.167 0 1 1 0 10.334 5.167 5.167 0 0 1 0-10.334Z"/><path fill="#000" stroke="#000" d="M149.166 154.333a5.167 5.167 0 1 1 0 10.334 5.167 5.167 0 0 1 0-10.334Z"/><path fill="#000" stroke="#000" d="M159.5 154.333a5.167 5.167 0 1 1-.002 10.334 5.167 5.167 0 0 1 .002-10.334Z"/><path fill="#000" stroke="#000" d="M169.833 154.333a5.167 5.167 0 1 1-.002 10.334 5.167 5.167 0 0 1 .002-10.334Z"/><path fill="#000" stroke="#000" d="M180.166 154.333a5.167 5.167 0 1 1 0 10.334 5.167 5.167 0 0 1 0-10.334Z"/><path fill="#000" stroke="#000" d="M190.5 154.333a5.167 5.167 0 1 1 0 10.334 5.167 5.167 0 0 1 0-10.334Zm51.666 0a5.167 5.167 0 1 1 0 10.334 5.167 5.167 0 0 1 0-10.334Z"/><path fill="#000" stroke="#000" d="M252.5 154.333a5.167 5.167 0 1 1-.002 10.334 5.167 5.167 0 0 1 .002-10.334Z"/><path fill="#000" stroke="#000" d="M262.833 154.333a5.167 5.167 0 1 1 0 10.334 5.167 5.167 0 0 1 0-10.334Z"/><path fill="#000" stroke="#000" d="M273.166 154.333a5.167 5.167 0 1 1 0 10.334 5.167 5.167 0 0 1 0-10.334Zm31.001 0a5.167 5.167 0 1 1-.002 10.334 5.167 5.167 0 0 1 .002-10.334Zm20.666 0a5.167 5.167 0 1 1 0 10.334 5.167 5.167 0 0 1 0-10.334Z"/><path fill="#000" stroke="#000" d="M335.166 154.333a5.167 5.167 0 1 1 0 10.334 5.167 5.167 0 0 1 0-10.334Zm20.667 0a5.167 5.167 0 1 1-.002 10.334 5.167 5.167 0 0 1 .002-10.334Zm51.667 0a5.167 5.167 0 1 1 0 10.334 5.167 5.167 0 0 1 0-10.334Z"/><path fill="#000" stroke="#000" d="M417.833 154.333a5.167 5.167 0 1 1 0 10.334 5.167 5.167 0 0 1 0-10.334Zm20.667 0a5.167 5.167 0 1 1-.002 10.334 5.167 5.167 0 0 1 .002-10.334Z"/><path fill="#000" stroke="#000" d="M448.833 154.333a5.167 5.167 0 1 1-.002 10.334 5.167 5.167 0 0 1 .002-10.334Zm-403 10.334a5.166 5.166 0 1 1 0 10.333 5.166 5.166 0 0 1 0-10.333Zm20.667 0a5.166 5.166 0 1 1 0 10.333 5.166 5.166 0 0 1 0-10.333Zm20.666 0a5.166 5.166 0 1 1 0 10.333 5.166 5.166 0 0 1 0-10.333Zm20.668 0a5.166 5.166 0 1 1 0 10.332 5.166 5.166 0 0 1 0-10.332Z"/><path fill="#000" stroke="#000" d="M118.167 164.667a5.166 5.166 0 1 1 0 10.332 5.166 5.166 0 0 1 0-10.332Z"/><path fill="#000" stroke="#000" d="M128.5 164.667a5.166 5.166 0 1 1 .001 10.333 5.166 5.166 0 0 1-.001-10.333Zm31 0a5.166 5.166 0 1 1 0 10.332 5.166 5.166 0 0 1 0-10.332Z"/><path fill="#000" stroke="#000" d="M169.833 164.667a5.166 5.166 0 1 1 0 10.332 5.166 5.166 0 0 1 0-10.332Z"/><path fill="#000" stroke="#000" d="M180.166 164.667a5.166 5.166 0 1 1 .001 10.333 5.166 5.166 0 0 1-.001-10.333Z"/><path fill="#000" stroke="#000" d="M190.5 164.667a5.166 5.166 0 1 1 .001 10.333 5.166 5.166 0 0 1-.001-10.333Zm20.667 0a5.166 5.166 0 1 1 0 10.332 5.166 5.166 0 0 1 0-10.332Z"/><path fill="#000" stroke="#000" d="M221.5 164.667a5.166 5.166 0 1 1 .001 10.333 5.166 5.166 0 0 1-.001-10.333Zm31 0a5.166 5.166 0 1 1 0 10.332 5.166 5.166 0 0 1 0-10.332Z"/><path fill="#000" stroke="#000" d="M262.833 164.667a5.166 5.166 0 1 1 .001 10.333 5.166 5.166 0 0 1-.001-10.333Zm20.667 0a5.166 5.166 0 1 1 .001 10.333 5.166 5.166 0 0 1-.001-10.333Z"/><path fill="#000" stroke="#000" d="M293.834 164.667a5.166 5.166 0 1 1 0 10.332 5.166 5.166 0 0 1 0-10.332Zm20.666 0a5.166 5.166 0 1 1 .001 10.333 5.166 5.166 0 0 1-.001-10.333Zm31 0a5.166 5.166 0 1 1 0 10.332 5.166 5.166 0 0 1 0-10.332Zm20.666 0a5.166 5.166 0 1 1 .001 10.333 5.166 5.166 0 0 1-.001-10.333Z"/><path fill="#000" stroke="#000" d="M376.5 164.667a5.166 5.166 0 1 1 0 10.332 5.166 5.166 0 0 1 0-10.332Zm20.667 0a5.166 5.166 0 1 1 0 10.332 5.166 5.166 0 0 1 0-10.332Zm30.999 0a5.166 5.166 0 1 1 .001 10.333 5.166 5.166 0 0 1-.001-10.333ZM76.833 175a5.166 5.166 0 1 1 0 10.333 5.166 5.166 0 0 1 0-10.333Z"/><path fill="#000" stroke="#000" d="M87.166 175a5.166 5.166 0 1 1 0 10.333 5.166 5.166 0 0 1 0-10.333Zm41.334 0a5.167 5.167 0 1 1 0 10.333 5.167 5.167 0 0 1 0-10.333Z"/><path fill="#000" stroke="#000" d="M138.833 175a5.167 5.167 0 1 1 0 10.333 5.167 5.167 0 0 1 0-10.333Z"/><path fill="#000" stroke="#000" d="M149.166 175a5.167 5.167 0 1 1 0 10.333 5.167 5.167 0 0 1 0-10.333Z"/><path fill="#000" stroke="#000" d="M159.5 175a5.166 5.166 0 1 1 0 10.333 5.166 5.166 0 0 1 0-10.333Z"/><path fill="#000" stroke="#000" d="M169.833 175a5.166 5.166 0 1 1 0 10.333 5.166 5.166 0 0 1 0-10.333Zm41.334 0a5.166 5.166 0 1 1 0 10.333 5.166 5.166 0 0 1 0-10.333Z"/><path fill="#000" stroke="#000" d="M221.5 175a5.167 5.167 0 1 1 0 10.333 5.167 5.167 0 0 1 0-10.333Z"/><path fill="#000" stroke="#000" d="M231.833 175a5.167 5.167 0 1 1 0 10.333 5.167 5.167 0 0 1 0-10.333Zm93 0a5.167 5.167 0 1 1 0 10.333 5.167 5.167 0 0 1 0-10.333Z"/><path fill="#000" stroke="#000" d="M335.166 175a5.167 5.167 0 1 1 0 10.333 5.167 5.167 0 0 1 0-10.333Z"/><path fill="#000" stroke="#000" d="M345.5 175a5.166 5.166 0 1 1 0 10.333 5.166 5.166 0 0 1 0-10.333Zm31 0a5.166 5.166 0 1 1 0 10.333 5.166 5.166 0 0 1 0-10.333Zm20.667 0a5.166 5.166 0 1 1 0 10.333 5.166 5.166 0 0 1 0-10.333Zm51.666 0a5.166 5.166 0 1 1 0 10.333 5.166 5.166 0 0 1 0-10.333Zm-403 10.333a5.167 5.167 0 1 1 0 10.334 5.167 5.167 0 0 1 0-10.334Zm62.001 0a5.167 5.167 0 1 1-.002 10.334 5.167 5.167 0 0 1 .002-10.334Z"/><path fill="#000" stroke="#000" d="M118.167 185.333a5.167 5.167 0 1 1-.002 10.334 5.167 5.167 0 0 1 .002-10.334Zm51.666 0a5.167 5.167 0 1 1-.002 10.334 5.167 5.167 0 0 1 .002-10.334Z"/><path fill="#000" stroke="#000" d="M180.166 185.333a5.167 5.167 0 1 1 0 10.334 5.167 5.167 0 0 1 0-10.334Zm186 0a5.167 5.167 0 1 1 0 10.334 5.167 5.167 0 0 1 0-10.334Zm31.001 0a5.167 5.167 0 1 1-.002 10.334 5.167 5.167 0 0 1 .002-10.334Zm41.333 0a5.167 5.167 0 1 1-.002 10.334 5.167 5.167 0 0 1 .002-10.334Z"/><path fill="#000" stroke="#000" d="M448.833 185.333a5.167 5.167 0 1 1-.002 10.334 5.167 5.167 0 0 1 .002-10.334Z"/><path fill="#000" stroke="#000" d="M459.166 185.333a5.167 5.167 0 1 1 0 10.334 5.167 5.167 0 0 1 0-10.334Zm-403 10.334a5.166 5.166 0 1 1 0 10.333 5.166 5.166 0 0 1 0-10.333Z"/><path fill="#000" stroke="#000" d="M66.5 195.667a5.166 5.166 0 1 1 0 10.333 5.166 5.166 0 0 1 0-10.333Z"/><path fill="#000" stroke="#000" d="M76.833 195.667a5.166 5.166 0 1 1 0 10.333 5.166 5.166 0 0 1 0-10.333Zm20.667 0a5.167 5.167 0 1 1 0 10.333 5.167 5.167 0 0 1 0-10.333Zm20.667 0a5.166 5.166 0 1 1 0 10.333 5.166 5.166 0 0 1 0-10.333Z"/><path fill="#000" stroke="#000" d="M128.5 195.667a5.167 5.167 0 1 1 0 10.333 5.167 5.167 0 0 1 0-10.333Z"/><path fill="#000" stroke="#000" d="M138.833 195.667a5.167 5.167 0 1 1 0 10.333 5.167 5.167 0 0 1 0-10.333Z"/><path fill="#000" stroke="#000" d="M149.166 195.667a5.167 5.167 0 1 1 0 10.333 5.167 5.167 0 0 1 0-10.333Zm20.667 0a5.166 5.166 0 1 1 0 10.333 5.166 5.166 0 0 1 0-10.333Zm155 0a5.167 5.167 0 1 1 0 10.333 5.167 5.167 0 0 1 0-10.333Zm20.667 0a5.166 5.166 0 1 1 0 10.333 5.166 5.166 0 0 1 0-10.333Zm31 0a5.166 5.166 0 1 1 0 10.333 5.166 5.166 0 0 1 0-10.333Zm20.667 0a5.166 5.166 0 1 1 0 10.333 5.166 5.166 0 0 1 0-10.333Zm20.666 0a5.167 5.167 0 1 1 0 10.333 5.167 5.167 0 0 1 0-10.333Z"/><path fill="#000" stroke="#000" d="M428.166 195.667a5.167 5.167 0 1 1 0 10.333 5.167 5.167 0 0 1 0-10.333Zm20.667 0a5.166 5.166 0 1 1 0 10.333 5.166 5.166 0 0 1 0-10.333ZM87.166 206a5.166 5.166 0 1 1 0 10.333 5.166 5.166 0 0 1 0-10.333Z"/><path fill="#000" stroke="#000" d="M97.5 206a5.167 5.167 0 1 1 0 10.333 5.167 5.167 0 0 1 0-10.333Z"/><path fill="#000" stroke="#000" d="M107.834 206a5.166 5.166 0 1 1 0 10.333 5.166 5.166 0 0 1 0-10.333Z"/><path fill="#000" stroke="#000" d="M118.167 206a5.166 5.166 0 1 1 0 10.333 5.166 5.166 0 0 1 0-10.333Z"/><path fill="#000" stroke="#000" d="M128.5 206a5.167 5.167 0 1 1 0 10.333 5.167 5.167 0 0 1 0-10.333Z"/><path fill="#000" stroke="#000" d="M138.833 206a5.167 5.167 0 1 1 0 10.333 5.167 5.167 0 0 1 0-10.333Z"/><path fill="#000" stroke="#000" d="M149.166 206a5.167 5.167 0 1 1 0 10.333 5.167 5.167 0 0 1 0-10.333Zm20.667 0a5.166 5.166 0 1 1 0 10.333 5.166 5.166 0 0 1 0-10.333Zm175.667 0a5.166 5.166 0 1 1 0 10.333 5.166 5.166 0 0 1 0-10.333Zm62 0a5.167 5.167 0 1 1 0 10.333 5.167 5.167 0 0 1 0-10.333Zm20.666 0a5.167 5.167 0 1 1 0 10.333 5.167 5.167 0 0 1 0-10.333Zm20.667 0a5.166 5.166 0 1 1 0 10.333 5.166 5.166 0 0 1 0-10.333Z"/><path fill="#000" stroke="#000" d="M459.166 206a5.167 5.167 0 1 1 0 10.333 5.167 5.167 0 0 1 0-10.333Zm-403 10.333a5.167 5.167 0 1 1 0 10.334 5.167 5.167 0 0 1 0-10.334Z"/><path fill="#000" stroke="#000" d="M66.5 216.333a5.167 5.167 0 1 1-.001 10.334 5.167 5.167 0 0 1 0-10.334Zm20.666 0a5.167 5.167 0 1 1 0 10.334 5.167 5.167 0 0 1 0-10.334Z"/><path fill="#000" stroke="#000" d="M97.5 216.333a5.167 5.167 0 1 1 0 10.334 5.167 5.167 0 0 1 0-10.334Zm31 0a5.167 5.167 0 1 1 0 10.334 5.167 5.167 0 0 1 0-10.334Z"/><path fill="#000" stroke="#000" d="M138.833 216.333a5.167 5.167 0 1 1 0 10.334 5.167 5.167 0 0 1 0-10.334Zm31 0a5.167 5.167 0 1 1-.002 10.334 5.167 5.167 0 0 1 .002-10.334Z"/><path fill="#000" stroke="#000" d="M180.166 216.333a5.167 5.167 0 1 1 0 10.334 5.167 5.167 0 0 1 0-10.334Zm165.334 0a5.167 5.167 0 1 1-.002 10.334 5.167 5.167 0 0 1 .002-10.334Z"/><path fill="#000" stroke="#000" d="M355.833 216.333a5.167 5.167 0 1 1-.002 10.334 5.167 5.167 0 0 1 .002-10.334Zm20.667 0a5.167 5.167 0 1 1-.002 10.334 5.167 5.167 0 0 1 .002-10.334Zm20.667 0a5.167 5.167 0 1 1-.002 10.334 5.167 5.167 0 0 1 .002-10.334Z"/><path fill="#000" stroke="#000" d="M407.5 216.333a5.167 5.167 0 1 1 0 10.334 5.167 5.167 0 0 1 0-10.334Zm20.666 0a5.167 5.167 0 1 1 0 10.334 5.167 5.167 0 0 1 0-10.334Zm31 0a5.167 5.167 0 1 1 0 10.334 5.167 5.167 0 0 1 0-10.334ZM66.5 226.667a5.166 5.166 0 1 1 0 10.333 5.166 5.166 0 0 1 0-10.333Z"/><path fill="#000" stroke="#000" d="M76.833 226.667a5.166 5.166 0 1 1 0 10.333 5.166 5.166 0 0 1 0-10.333Zm20.667 0A5.166 5.166 0 1 1 97.501 237a5.166 5.166 0 0 1 0-10.333Z"/><path fill="#000" stroke="#000" d="M107.834 226.667a5.166 5.166 0 1 1 0 10.332 5.166 5.166 0 0 1 0-10.332Zm20.666 0a5.166 5.166 0 1 1 .001 10.333 5.166 5.166 0 0 1-.001-10.333Z"/><path fill="#000" stroke="#000" d="M138.833 226.667a5.166 5.166 0 1 1 .001 10.333 5.166 5.166 0 0 1-.001-10.333Zm206.667 0a5.166 5.166 0 1 1 0 10.332 5.166 5.166 0 0 1 0-10.332Zm41.334 0a5.166 5.166 0 1 1 0 10.332 5.166 5.166 0 0 1 0-10.332Zm30.999 0a5.166 5.166 0 1 1 .001 10.333 5.166 5.166 0 0 1-.001-10.333Z"/><path fill="#000" stroke="#000" d="M428.166 226.667a5.166 5.166 0 1 1 .001 10.333 5.166 5.166 0 0 1-.001-10.333Z"/><path fill="#000" stroke="#000" d="M438.5 226.667a5.166 5.166 0 1 1 0 10.332 5.166 5.166 0 0 1 0-10.332Z"/><path fill="#000" stroke="#000" d="M448.833 226.667a5.166 5.166 0 1 1 0 10.332 5.166 5.166 0 0 1 0-10.332Z"/><path fill="#000" stroke="#000" d="M459.166 226.667a5.166 5.166 0 1 1 .001 10.333 5.166 5.166 0 0 1-.001-10.333ZM97.5 237a5.167 5.167 0 1 1 0 10.333 5.167 5.167 0 0 1 0-10.333Zm20.667 0a5.166 5.166 0 0 1 5.166 5.167 5.166 5.166 0 1 1-10.333 0 5.167 5.167 0 0 1 5.167-5.167Zm51.666 0a5.166 5.166 0 0 1 5.166 5.167 5.166 5.166 0 1 1-10.333 0 5.167 5.167 0 0 1 5.167-5.167Zm155 0a5.167 5.167 0 1 1 0 10.333 5.167 5.167 0 0 1 0-10.333Z"/><path fill="#000" stroke="#000" d="M335.166 237a5.167 5.167 0 1 1 0 10.333 5.167 5.167 0 0 1 0-10.333Zm31 0a5.167 5.167 0 1 1 0 10.333 5.167 5.167 0 0 1 0-10.333Zm31.001 0a5.166 5.166 0 0 1 5.166 5.167 5.166 5.166 0 1 1-10.333 0 5.167 5.167 0 0 1 5.167-5.167Z"/><path fill="#000" stroke="#000" d="M407.5 237a5.167 5.167 0 1 1 0 10.333 5.167 5.167 0 0 1 0-10.333Zm20.666 0a5.167 5.167 0 1 1 0 10.333 5.167 5.167 0 0 1 0-10.333Zm31 0a5.167 5.167 0 1 1 0 10.333 5.167 5.167 0 0 1 0-10.333Zm-403 10.333a5.167 5.167 0 1 1 0 10.334 5.167 5.167 0 0 1 0-10.334Zm31 0a5.167 5.167 0 1 1 0 10.334 5.167 5.167 0 0 1 0-10.334Zm20.668 0a5.167 5.167 0 1 1-.002 10.334 5.167 5.167 0 0 1 .002-10.334Z"/><path fill="#000" stroke="#000" d="M118.167 247.333a5.167 5.167 0 1 1-.002 10.334 5.167 5.167 0 0 1 .002-10.334Zm20.666 0a5.167 5.167 0 1 1 0 10.334 5.167 5.167 0 0 1 0-10.334Z"/><path fill="#000" stroke="#000" d="M149.166 247.333a5.167 5.167 0 1 1 0 10.334 5.167 5.167 0 0 1 0-10.334Z"/><path fill="#000" stroke="#000" d="M159.5 247.333a5.167 5.167 0 1 1-.002 10.334 5.167 5.167 0 0 1 .002-10.334Z"/><path fill="#000" stroke="#000" d="M169.833 247.333a5.167 5.167 0 1 1-.002 10.334 5.167 5.167 0 0 1 .002-10.334Zm155 0a5.167 5.167 0 1 1 0 10.334 5.167 5.167 0 0 1 0-10.334Z"/><path fill="#000" stroke="#000" d="M335.166 247.333a5.167 5.167 0 1 1 0 10.334 5.167 5.167 0 0 1 0-10.334Z"/><path fill="#000" stroke="#000" d="M345.5 247.333a5.167 5.167 0 1 1-.002 10.334 5.167 5.167 0 0 1 .002-10.334Zm51.667 0a5.167 5.167 0 1 1-.002 10.334 5.167 5.167 0 0 1 .002-10.334Z"/><path fill="#000" stroke="#000" d="M407.5 247.333a5.167 5.167 0 1 1 0 10.334 5.167 5.167 0 0 1 0-10.334Z"/><path fill="#000" stroke="#000" d="M417.833 247.333a5.167 5.167 0 1 1 0 10.334 5.167 5.167 0 0 1 0-10.334Z"/><path fill="#000" stroke="#000" d="M428.166 247.333a5.167 5.167 0 1 1 0 10.334 5.167 5.167 0 0 1 0-10.334Z"/><path fill="#000" stroke="#000" d="M438.5 247.333a5.167 5.167 0 1 1-.002 10.334 5.167 5.167 0 0 1 .002-10.334Zm20.666 0a5.167 5.167 0 1 1 0 10.334 5.167 5.167 0 0 1 0-10.334ZM45.833 257.667a5.166 5.166 0 1 1 0 10.333 5.166 5.166 0 0 1 0-10.333Z"/><path fill="#000" stroke="#000" d="M56.166 257.667a5.166 5.166 0 1 1 0 10.333 5.166 5.166 0 0 1 0-10.333Z"/><path fill="#000" stroke="#000" d="M66.5 257.667a5.166 5.166 0 1 1 0 10.333 5.166 5.166 0 0 1 0-10.333Z"/><path fill="#000" stroke="#000" d="M76.833 257.667a5.166 5.166 0 1 1 0 10.333 5.166 5.166 0 0 1 0-10.333Zm20.667 0A5.166 5.166 0 1 1 97.501 268a5.166 5.166 0 0 1 0-10.333Zm20.667 0a5.166 5.166 0 1 1 0 10.332 5.166 5.166 0 0 1 0-10.332Zm20.666 0a5.166 5.166 0 1 1 .001 10.333 5.166 5.166 0 0 1-.001-10.333Zm20.667 0a5.166 5.166 0 1 1 0 10.332 5.166 5.166 0 0 1 0-10.332Zm20.666 0a5.166 5.166 0 1 1 .001 10.333 5.166 5.166 0 0 1-.001-10.333Zm155 0a5.166 5.166 0 1 1 .001 10.333 5.166 5.166 0 0 1-.001-10.333Z"/><path fill="#000" stroke="#000" d="M345.5 257.667a5.166 5.166 0 1 1 0 10.332 5.166 5.166 0 0 1 0-10.332Zm31 0a5.166 5.166 0 1 1 0 10.332 5.166 5.166 0 0 1 0-10.332Z"/><path fill="#000" stroke="#000" d="M386.834 257.667a5.166 5.166 0 1 1 0 10.332 5.166 5.166 0 0 1 0-10.332Z"/><path fill="#000" stroke="#000" d="M397.167 257.667a5.166 5.166 0 1 1 0 10.332 5.166 5.166 0 0 1 0-10.332Zm20.666 0a5.166 5.166 0 1 1 .001 10.333 5.166 5.166 0 0 1-.001-10.333Zm20.667 0a5.166 5.166 0 1 1 0 10.332 5.166 5.166 0 0 1 0-10.332Z"/><path fill="#000" stroke="#000" d="M448.833 257.667a5.166 5.166 0 1 1 0 10.332 5.166 5.166 0 0 1 0-10.332Z"/><path fill="#000" stroke="#000" d="M459.166 257.667a5.166 5.166 0 1 1 .001 10.333 5.166 5.166 0 0 1-.001-10.333ZM45.833 268a5.166 5.166 0 1 1 0 10.333 5.166 5.166 0 0 1 0-10.333Zm62.001 0a5.166 5.166 0 1 1 0 10.333 5.166 5.166 0 0 1 0-10.333Z"/><path fill="#000" stroke="#000" d="M118.167 268a5.166 5.166 0 1 1 0 10.333 5.166 5.166 0 0 1 0-10.333Z"/><path fill="#000" stroke="#000" d="M128.5 268a5.167 5.167 0 1 1 0 10.333 5.167 5.167 0 0 1 0-10.333Zm31 0a5.166 5.166 0 1 1 0 10.333 5.166 5.166 0 0 1 0-10.333Z"/><path fill="#000" stroke="#000" d="M169.833 268a5.166 5.166 0 1 1 0 10.333 5.166 5.166 0 0 1 0-10.333Zm175.667 0a5.166 5.166 0 1 1 0 10.333 5.166 5.166 0 0 1 0-10.333Z"/><path fill="#000" stroke="#000" d="M355.833 268a5.166 5.166 0 1 1 0 10.333 5.166 5.166 0 0 1 0-10.333Z"/><path fill="#000" stroke="#000" d="M366.166 268a5.167 5.167 0 1 1 0 10.333 5.167 5.167 0 0 1 0-10.333Z"/><path fill="#000" stroke="#000" d="M376.5 268a5.166 5.166 0 1 1 0 10.333 5.166 5.166 0 0 1 0-10.333Zm20.667 0a5.166 5.166 0 1 1 0 10.333 5.166 5.166 0 0 1 0-10.333Zm51.666 0a5.166 5.166 0 1 1 0 10.333 5.166 5.166 0 0 1 0-10.333ZM66.5 278.333a5.167 5.167 0 1 1-.001 10.334 5.167 5.167 0 0 1 0-10.334Z"/><path fill="#000" stroke="#000" d="M76.833 278.333a5.167 5.167 0 1 1-.001 10.334 5.167 5.167 0 0 1 0-10.334Z"/><path fill="#000" stroke="#000" d="M87.166 278.333a5.167 5.167 0 1 1 0 10.334 5.167 5.167 0 0 1 0-10.334Z"/><path fill="#000" stroke="#000" d="M97.5 278.333a5.167 5.167 0 1 1 0 10.334 5.167 5.167 0 0 1 0-10.334Zm31 0a5.167 5.167 0 1 1 0 10.334 5.167 5.167 0 0 1 0-10.334Zm20.666 0a5.167 5.167 0 1 1 0 10.334 5.167 5.167 0 0 1 0-10.334Z"/><path fill="#000" stroke="#000" d="M159.5 278.333a5.167 5.167 0 1 1-.002 10.334 5.167 5.167 0 0 1 .002-10.334Z"/><path fill="#000" stroke="#000" d="M169.833 278.333a5.167 5.167 0 1 1-.002 10.334 5.167 5.167 0 0 1 .002-10.334Z"/><path fill="#000" stroke="#000" d="M180.166 278.333a5.167 5.167 0 1 1 0 10.334 5.167 5.167 0 0 1 0-10.334Zm155 0a5.167 5.167 0 1 1 0 10.334 5.167 5.167 0 0 1 0-10.334Zm51.668 0a5.167 5.167 0 1 1-.002 10.334 5.167 5.167 0 0 1 .002-10.334Z"/><path fill="#000" stroke="#000" d="M397.167 278.333a5.167 5.167 0 1 1-.002 10.334 5.167 5.167 0 0 1 .002-10.334Z"/><path fill="#000" stroke="#000" d="M407.5 278.333a5.167 5.167 0 1 1 0 10.334 5.167 5.167 0 0 1 0-10.334Z"/><path fill="#000" stroke="#000" d="M417.833 278.333a5.167 5.167 0 1 1 0 10.334 5.167 5.167 0 0 1 0-10.334Zm20.667 0a5.167 5.167 0 1 1-.002 10.334 5.167 5.167 0 0 1 .002-10.334Zm20.666 0a5.167 5.167 0 1 1 0 10.334 5.167 5.167 0 0 1 0-10.334ZM45.833 288.667a5.166 5.166 0 1 1 0 10.333 5.166 5.166 0 0 1 0-10.333Zm20.667 0a5.166 5.166 0 1 1 0 10.333 5.166 5.166 0 0 1 0-10.333Zm31 0a5.167 5.167 0 1 1 0 10.333 5.167 5.167 0 0 1 0-10.333Z"/><path fill="#000" stroke="#000" d="M107.834 288.667a5.166 5.166 0 1 1 0 10.333 5.166 5.166 0 0 1 0-10.333Z"/><path fill="#000" stroke="#000" d="M118.167 288.667a5.166 5.166 0 1 1 0 10.333 5.166 5.166 0 0 1 0-10.333Zm51.666 0a5.166 5.166 0 1 1 0 10.333 5.166 5.166 0 0 1 0-10.333Zm155 0a5.167 5.167 0 1 1 0 10.333 5.167 5.167 0 0 1 0-10.333Z"/><path fill="#000" stroke="#000" d="M335.166 288.667a5.167 5.167 0 1 1 0 10.333 5.167 5.167 0 0 1 0-10.333Z"/><path fill="#000" stroke="#000" d="M345.5 288.667a5.166 5.166 0 1 1 0 10.333 5.166 5.166 0 0 1 0-10.333Z"/><path fill="#000" stroke="#000" d="M355.833 288.667a5.166 5.166 0 1 1 0 10.333 5.166 5.166 0 0 1 0-10.333Zm20.667 0a5.166 5.166 0 1 1 0 10.333 5.166 5.166 0 0 1 0-10.333Z"/><path fill="#000" stroke="#000" d="M386.834 288.667a5.166 5.166 0 1 1 0 10.333 5.166 5.166 0 0 1 0-10.333Z"/><path fill="#000" stroke="#000" d="M397.167 288.667a5.166 5.166 0 1 1 0 10.333 5.166 5.166 0 0 1 0-10.333Zm30.999 0a5.167 5.167 0 1 1 0 10.333 5.167 5.167 0 0 1 0-10.333Zm20.667 0a5.166 5.166 0 1 1 0 10.333 5.166 5.166 0 0 1 0-10.333ZM76.833 299a5.166 5.166 0 1 1 0 10.333 5.166 5.166 0 0 1 0-10.333Z"/><path fill="#000" stroke="#000" d="M87.166 299a5.166 5.166 0 1 1 0 10.333 5.166 5.166 0 0 1 0-10.333Zm31.001 0a5.166 5.166 0 1 1 0 10.333 5.166 5.166 0 0 1 0-10.333Z"/><path fill="#000" stroke="#000" d="M128.5 299a5.167 5.167 0 1 1 0 10.333 5.167 5.167 0 0 1 0-10.333Zm20.666 0a5.167 5.167 0 1 1 0 10.333 5.167 5.167 0 0 1 0-10.333Z"/><path fill="#000" stroke="#000" d="M159.5 299a5.166 5.166 0 1 1 0 10.333 5.166 5.166 0 0 1 0-10.333Z"/><path fill="#000" stroke="#000" d="M169.833 299a5.166 5.166 0 1 1 0 10.333 5.166 5.166 0 0 1 0-10.333Z"/><path fill="#000" stroke="#000" d="M180.166 299a5.167 5.167 0 1 1 0 10.333 5.167 5.167 0 0 1 0-10.333Zm186 0a5.167 5.167 0 1 1 0 10.333 5.167 5.167 0 0 1 0-10.333Zm41.334 0a5.167 5.167 0 1 1 0 10.333 5.167 5.167 0 0 1 0-10.333Zm20.666 0a5.167 5.167 0 1 1 0 10.333 5.167 5.167 0 0 1 0-10.333Zm20.667 0a5.166 5.166 0 1 1 0 10.333 5.166 5.166 0 0 1 0-10.333Zm-403 10.333a5.167 5.167 0 1 1 0 10.334 5.167 5.167 0 0 1 0-10.334Z"/><path fill="#000" stroke="#000" d="M56.166 309.333a5.167 5.167 0 1 1 0 10.334 5.167 5.167 0 0 1 0-10.334Zm31 0a5.167 5.167 0 1 1 0 10.334 5.167 5.167 0 0 1 0-10.334Zm20.668 0a5.167 5.167 0 1 1-.002 10.334 5.167 5.167 0 0 1 .002-10.334Z"/><path fill="#000" stroke="#000" d="M118.167 309.333a5.167 5.167 0 1 1-.002 10.334 5.167 5.167 0 0 1 .002-10.334Zm61.999 0a5.167 5.167 0 1 1 0 10.334 5.167 5.167 0 0 1 0-10.334Zm165.334 0a5.167 5.167 0 1 1-.002 10.334 5.167 5.167 0 0 1 .002-10.334Zm31 0a5.167 5.167 0 1 1-.002 10.334 5.167 5.167 0 0 1 .002-10.334Z"/><path fill="#000" stroke="#000" d="M386.834 309.333a5.167 5.167 0 1 1-.002 10.334 5.167 5.167 0 0 1 .002-10.334Zm20.666 0a5.167 5.167 0 1 1 0 10.334 5.167 5.167 0 0 1 0-10.334Z"/><path fill="#000" stroke="#000" d="M417.833 309.333a5.167 5.167 0 1 1 0 10.334 5.167 5.167 0 0 1 0-10.334Zm31 0a5.167 5.167 0 1 1-.002 10.334 5.167 5.167 0 0 1 .002-10.334Z"/><path fill="#000" stroke="#000" d="M459.166 309.333a5.167 5.167 0 1 1 0 10.334 5.167 5.167 0 0 1 0-10.334Zm-403 10.334a5.166 5.166 0 1 1 0 10.333 5.166 5.166 0 0 1 0-10.333Zm31 0a5.166 5.166 0 1 1 0 10.333 5.166 5.166 0 0 1 0-10.333Zm31.001 0a5.166 5.166 0 1 1 0 10.332 5.166 5.166 0 0 1 0-10.332Zm51.666 0a5.166 5.166 0 1 1 0 10.332 5.166 5.166 0 0 1 0-10.332Z"/><path fill="#000" stroke="#000" d="M180.166 319.667a5.166 5.166 0 1 1 .001 10.333 5.166 5.166 0 0 1-.001-10.333Z"/><path fill="#000" stroke="#000" d="M190.5 319.667a5.166 5.166 0 1 1 .001 10.333 5.166 5.166 0 0 1-.001-10.333Z"/><path fill="#000" stroke="#000" d="M200.834 319.667a5.166 5.166 0 1 1 0 10.332 5.166 5.166 0 0 1 0-10.332Zm30.999 0a5.166 5.166 0 1 1 .001 10.333 5.166 5.166 0 0 1-.001-10.333Zm31 0a5.166 5.166 0 1 1 .001 10.333 5.166 5.166 0 0 1-.001-10.333Zm41.334 0a5.166 5.166 0 1 1 0 10.332 5.166 5.166 0 0 1 0-10.332Zm20.666 0a5.166 5.166 0 1 1 .001 10.333 5.166 5.166 0 0 1-.001-10.333Z"/><path fill="#000" stroke="#000" d="M335.166 319.667a5.166 5.166 0 1 1 .001 10.333 5.166 5.166 0 0 1-.001-10.333Z"/><path fill="#000" stroke="#000" d="M345.5 319.667a5.166 5.166 0 1 1 0 10.332 5.166 5.166 0 0 1 0-10.332Zm31 0a5.166 5.166 0 1 1 0 10.332 5.166 5.166 0 0 1 0-10.332Z"/><path fill="#000" stroke="#000" d="M386.834 319.667a5.166 5.166 0 1 1 0 10.332 5.166 5.166 0 0 1 0-10.332Z"/><path fill="#000" stroke="#000" d="M397.167 319.667a5.166 5.166 0 1 1 0 10.332 5.166 5.166 0 0 1 0-10.332Zm61.999 0a5.166 5.166 0 1 1 .001 10.333 5.166 5.166 0 0 1-.001-10.333ZM56.166 330a5.166 5.166 0 1 1 0 10.333 5.166 5.166 0 0 1 0-10.333Z"/><path fill="#000" stroke="#000" d="M66.5 330a5.166 5.166 0 1 1 0 10.333 5.166 5.166 0 0 1 0-10.333Zm20.666 0a5.166 5.166 0 1 1 0 10.333 5.166 5.166 0 0 1 0-10.333Z"/><path fill="#000" stroke="#000" d="M97.5 330a5.167 5.167 0 1 1 0 10.333 5.167 5.167 0 0 1 0-10.333Z"/><path fill="#000" stroke="#000" d="M107.834 330a5.166 5.166 0 0 1 5.166 5.167 5.166 5.166 0 1 1-10.333 0 5.167 5.167 0 0 1 5.167-5.167Z"/><path fill="#000" stroke="#000" d="M118.167 330a5.166 5.166 0 0 1 5.166 5.167 5.166 5.166 0 1 1-10.333 0 5.167 5.167 0 0 1 5.167-5.167Z"/><path fill="#000" stroke="#000" d="M128.5 330a5.167 5.167 0 1 1 0 10.333 5.167 5.167 0 0 1 0-10.333Z"/><path fill="#000" stroke="#000" d="M138.833 330a5.167 5.167 0 1 1 0 10.333 5.167 5.167 0 0 1 0-10.333Z"/><path fill="#000" stroke="#000" d="M149.166 330a5.167 5.167 0 1 1 0 10.333 5.167 5.167 0 0 1 0-10.333Z"/><path fill="#000" stroke="#000" d="M159.5 330a5.166 5.166 0 0 1 5.166 5.167 5.166 5.166 0 1 1-10.333 0A5.167 5.167 0 0 1 159.5 330Zm41.334 0a5.166 5.166 0 0 1 5.166 5.167 5.166 5.166 0 1 1-10.333 0 5.167 5.167 0 0 1 5.167-5.167Zm41.332 0a5.167 5.167 0 1 1 0 10.333 5.167 5.167 0 0 1 0-10.333Z"/><path fill="#000" stroke="#000" d="M252.5 330a5.166 5.166 0 0 1 5.166 5.167 5.166 5.166 0 1 1-10.333 0A5.167 5.167 0 0 1 252.5 330Z"/><path fill="#000" stroke="#000" d="M262.833 330a5.167 5.167 0 1 1 0 10.333 5.167 5.167 0 0 1 0-10.333Z"/><path fill="#000" stroke="#000" d="M273.166 330a5.167 5.167 0 1 1 0 10.333 5.167 5.167 0 0 1 0-10.333Z"/><path fill="#000" stroke="#000" d="M283.5 330a5.167 5.167 0 1 1 0 10.333 5.167 5.167 0 0 1 0-10.333Z"/><path fill="#000" stroke="#000" d="M293.834 330a5.166 5.166 0 0 1 5.166 5.167 5.166 5.166 0 1 1-10.333 0 5.167 5.167 0 0 1 5.167-5.167Z"/><path fill="#000" stroke="#000" d="M304.167 330a5.166 5.166 0 0 1 5.166 5.167 5.166 5.166 0 1 1-10.333 0 5.167 5.167 0 0 1 5.167-5.167Zm20.666 0a5.167 5.167 0 1 1 0 10.333 5.167 5.167 0 0 1 0-10.333Zm20.667 0a5.166 5.166 0 0 1 5.166 5.167 5.166 5.166 0 1 1-10.333 0A5.167 5.167 0 0 1 345.5 330Zm41.334 0a5.166 5.166 0 0 1 5.166 5.167 5.166 5.166 0 1 1-10.333 0 5.167 5.167 0 0 1 5.167-5.167Z"/><path fill="#000" stroke="#000" d="M397.167 330a5.166 5.166 0 0 1 5.166 5.167 5.166 5.166 0 1 1-10.333 0 5.167 5.167 0 0 1 5.167-5.167ZM76.833 340.333a5.167 5.167 0 1 1-.001 10.334 5.167 5.167 0 0 1 0-10.334Z"/><path fill="#000" stroke="#000" d="M87.166 340.333a5.167 5.167 0 1 1 0 10.334 5.167 5.167 0 0 1 0-10.334Zm51.667 0a5.167 5.167 0 1 1 0 10.334 5.167 5.167 0 0 1 0-10.334Z"/><path fill="#000" stroke="#000" d="M149.166 340.333a5.167 5.167 0 1 1 0 10.334 5.167 5.167 0 0 1 0-10.334Zm93 0a5.167 5.167 0 1 1 0 10.334 5.167 5.167 0 0 1 0-10.334Z"/><path fill="#000" stroke="#000" d="M252.5 340.333a5.167 5.167 0 1 1-.002 10.334 5.167 5.167 0 0 1 .002-10.334Z"/><path fill="#000" stroke="#000" d="M262.833 340.333a5.167 5.167 0 1 1 0 10.334 5.167 5.167 0 0 1 0-10.334Zm31.001 0a5.167 5.167 0 1 1-.002 10.334 5.167 5.167 0 0 1 .002-10.334Zm30.999 0a5.167 5.167 0 1 1 0 10.334 5.167 5.167 0 0 1 0-10.334Z"/><path fill="#000" stroke="#000" d="M335.166 340.333a5.167 5.167 0 1 1 0 10.334 5.167 5.167 0 0 1 0-10.334Z"/><path fill="#000" stroke="#000" d="M345.5 340.333a5.167 5.167 0 1 1-.002 10.334 5.167 5.167 0 0 1 .002-10.334Zm20.666 0a5.167 5.167 0 1 1 0 10.334 5.167 5.167 0 0 1 0-10.334Z"/><path fill="#000" stroke="#000" d="M376.5 340.333a5.167 5.167 0 1 1-.002 10.334 5.167 5.167 0 0 1 .002-10.334Z"/><path fill="#000" stroke="#000" d="M386.834 340.333a5.167 5.167 0 1 1-.002 10.334 5.167 5.167 0 0 1 .002-10.334Zm20.666 0a5.167 5.167 0 1 1 0 10.334 5.167 5.167 0 0 1 0-10.334Zm41.333 0a5.167 5.167 0 1 1-.002 10.334 5.167 5.167 0 0 1 .002-10.334Z"/><path fill="#000" stroke="#000" d="M459.166 340.333a5.167 5.167 0 1 1 0 10.334 5.167 5.167 0 0 1 0-10.334ZM45.833 350.667a5.166 5.166 0 1 1 0 10.333 5.166 5.166 0 0 1 0-10.333Zm31 0a5.166 5.166 0 1 1 0 10.333 5.166 5.166 0 0 1 0-10.333Z"/><path fill="#000" stroke="#000" d="M87.166 350.667a5.166 5.166 0 1 1 0 10.333 5.166 5.166 0 0 1 0-10.333Zm20.668 0a5.166 5.166 0 1 1 0 10.333 5.166 5.166 0 0 1 0-10.333Zm41.332 0a5.167 5.167 0 1 1 0 10.333 5.167 5.167 0 0 1 0-10.333Z"/><path fill="#000" stroke="#000" d="M159.5 350.667a5.166 5.166 0 1 1 0 10.333 5.166 5.166 0 0 1 0-10.333Z"/><path fill="#000" stroke="#000" d="M169.833 350.667a5.166 5.166 0 1 1 0 10.333 5.166 5.166 0 0 1 0-10.333Zm20.667 0a5.167 5.167 0 1 1 0 10.333 5.167 5.167 0 0 1 0-10.333Zm20.667 0a5.166 5.166 0 1 1 0 10.333 5.166 5.166 0 0 1 0-10.333Zm20.666 0a5.167 5.167 0 1 1 0 10.333 5.167 5.167 0 0 1 0-10.333Z"/><path fill="#000" stroke="#000" d="M242.166 350.667a5.167 5.167 0 1 1 0 10.333 5.167 5.167 0 0 1 0-10.333Zm20.667 0a5.167 5.167 0 1 1 0 10.333 5.167 5.167 0 0 1 0-10.333Z"/><path fill="#000" stroke="#000" d="M273.166 350.667a5.167 5.167 0 1 1 0 10.333 5.167 5.167 0 0 1 0-10.333Zm20.668 0a5.166 5.166 0 1 1 0 10.333 5.166 5.166 0 0 1 0-10.333Zm30.999 0a5.167 5.167 0 1 1 0 10.333 5.167 5.167 0 0 1 0-10.333Z"/><path fill="#000" stroke="#000" d="M335.166 350.667a5.167 5.167 0 1 1 0 10.333 5.167 5.167 0 0 1 0-10.333Zm20.667 0a5.166 5.166 0 1 1 0 10.333 5.166 5.166 0 0 1 0-10.333Zm51.667 0a5.167 5.167 0 1 1 0 10.333 5.167 5.167 0 0 1 0-10.333Zm41.333 0a5.166 5.166 0 1 1 0 10.333 5.166 5.166 0 0 1 0-10.333Z"/><path fill="#000" stroke="#000" d="M459.166 350.667a5.167 5.167 0 1 1 0 10.333 5.167 5.167 0 0 1 0-10.333ZM76.833 361a5.166 5.166 0 1 1 0 10.333 5.166 5.166 0 0 1 0-10.333Z"/><path fill="#000" stroke="#000" d="M87.166 361a5.166 5.166 0 1 1 0 10.333 5.166 5.166 0 0 1 0-10.333Zm41.334 0a5.167 5.167 0 1 1 0 10.333 5.167 5.167 0 0 1 0-10.333Zm20.666 0a5.167 5.167 0 1 1 0 10.333 5.167 5.167 0 0 1 0-10.333Z"/><path fill="#000" stroke="#000" d="M159.5 361a5.166 5.166 0 1 1 0 10.333 5.166 5.166 0 0 1 0-10.333Zm20.666 0a5.167 5.167 0 1 1 0 10.333 5.167 5.167 0 0 1 0-10.333Z"/><path fill="#000" stroke="#000" d="M190.5 361a5.167 5.167 0 1 1 0 10.333 5.167 5.167 0 0 1 0-10.333Z"/><path fill="#000" stroke="#000" d="M200.834 361a5.166 5.166 0 1 1 0 10.333 5.166 5.166 0 0 1 0-10.333Z"/><path fill="#000" stroke="#000" d="M211.167 361a5.166 5.166 0 1 1 0 10.333 5.166 5.166 0 0 1 0-10.333Z"/><path fill="#000" stroke="#000" d="M221.5 361a5.167 5.167 0 1 1 0 10.333 5.167 5.167 0 0 1 0-10.333Zm20.666 0a5.167 5.167 0 1 1 0 10.333 5.167 5.167 0 0 1 0-10.333Zm20.667 0a5.167 5.167 0 1 1 0 10.333 5.167 5.167 0 0 1 0-10.333Z"/><path fill="#000" stroke="#000" d="M273.166 361a5.167 5.167 0 1 1 0 10.333 5.167 5.167 0 0 1 0-10.333Z"/><path fill="#000" stroke="#000" d="M283.5 361a5.167 5.167 0 1 1 0 10.333 5.167 5.167 0 0 1 0-10.333Z"/><path fill="#000" stroke="#000" d="M293.834 361a5.166 5.166 0 1 1 0 10.333 5.166 5.166 0 0 1 0-10.333Zm20.666 0a5.167 5.167 0 1 1 0 10.333 5.167 5.167 0 0 1 0-10.333Zm31 0a5.166 5.166 0 1 1 0 10.333 5.166 5.166 0 0 1 0-10.333Z"/><path fill="#000" stroke="#000" d="M355.833 361a5.166 5.166 0 1 1 0 10.333 5.166 5.166 0 0 1 0-10.333Zm31.001 0a5.166 5.166 0 1 1 0 10.333 5.166 5.166 0 0 1 0-10.333Zm20.666 0a5.167 5.167 0 1 1 0 10.333 5.167 5.167 0 0 1 0-10.333Zm20.666 0a5.167 5.167 0 1 1 0 10.333 5.167 5.167 0 0 1 0-10.333Zm31 0a5.167 5.167 0 1 1 0 10.333 5.167 5.167 0 0 1 0-10.333ZM45.833 371.333a5.167 5.167 0 1 1 0 10.334 5.167 5.167 0 0 1 0-10.334Zm20.667 0a5.167 5.167 0 1 1-.001 10.334 5.167 5.167 0 0 1 0-10.334Z"/><path fill="#000" stroke="#000" d="M76.833 371.333a5.167 5.167 0 1 1-.001 10.334 5.167 5.167 0 0 1 0-10.334Zm20.667 0a5.167 5.167 0 1 1 0 10.334 5.167 5.167 0 0 1 0-10.334Z"/><path fill="#000" stroke="#000" d="M107.834 371.333a5.167 5.167 0 1 1-.002 10.334 5.167 5.167 0 0 1 .002-10.334Zm41.332 0a5.167 5.167 0 1 1 0 10.334 5.167 5.167 0 0 1 0-10.334Zm20.667 0a5.167 5.167 0 1 1-.002 10.334 5.167 5.167 0 0 1 .002-10.334Zm20.667 0a5.167 5.167 0 1 1 0 10.334 5.167 5.167 0 0 1 0-10.334Z"/><path fill="#000" stroke="#000" d="M200.834 371.333a5.167 5.167 0 1 1-.002 10.334 5.167 5.167 0 0 1 .002-10.334Z"/><path fill="#000" stroke="#000" d="M211.167 371.333a5.167 5.167 0 1 1-.002 10.334 5.167 5.167 0 0 1 .002-10.334Z"/><path fill="#000" stroke="#000" d="M221.5 371.333a5.167 5.167 0 1 1 0 10.334 5.167 5.167 0 0 1 0-10.334Zm31 0a5.167 5.167 0 1 1-.002 10.334 5.167 5.167 0 0 1 .002-10.334Zm31 0a5.167 5.167 0 1 1 0 10.334 5.167 5.167 0 0 1 0-10.334Z"/><path fill="#000" stroke="#000" d="M293.834 371.333a5.167 5.167 0 1 1-.002 10.334 5.167 5.167 0 0 1 .002-10.334Zm30.999 0a5.167 5.167 0 1 1 0 10.334 5.167 5.167 0 0 1 0-10.334Z"/><path fill="#000" stroke="#000" d="M335.166 371.333a5.167 5.167 0 1 1 0 10.334 5.167 5.167 0 0 1 0-10.334Zm41.334 0a5.167 5.167 0 1 1-.002 10.334 5.167 5.167 0 0 1 .002-10.334Z"/><path fill="#000" stroke="#000" d="M386.834 371.333a5.167 5.167 0 1 1-.002 10.334 5.167 5.167 0 0 1 .002-10.334Z"/><path fill="#000" stroke="#000" d="M397.167 371.333a5.167 5.167 0 1 1-.002 10.334 5.167 5.167 0 0 1 .002-10.334Z"/><path fill="#000" stroke="#000" d="M407.5 371.333a5.167 5.167 0 1 1 0 10.334 5.167 5.167 0 0 1 0-10.334Z"/><path fill="#000" stroke="#000" d="M417.833 371.333a5.167 5.167 0 1 1 0 10.334 5.167 5.167 0 0 1 0-10.334Zm20.667 0a5.167 5.167 0 1 1-.002 10.334 5.167 5.167 0 0 1 .002-10.334Z"/><path fill="#000" stroke="#000" d="M448.833 371.333a5.167 5.167 0 1 1-.002 10.334 5.167 5.167 0 0 1 .002-10.334ZM128.5 381.667a5.167 5.167 0 1 1 0 10.333 5.167 5.167 0 0 1 0-10.333Zm51.666 0a5.167 5.167 0 1 1 0 10.333 5.167 5.167 0 0 1 0-10.333Z"/><path fill="#000" stroke="#000" d="M190.5 381.667a5.167 5.167 0 1 1 0 10.333 5.167 5.167 0 0 1 0-10.333Z"/><path fill="#000" stroke="#000" d="M200.834 381.667a5.166 5.166 0 1 1 0 10.333 5.166 5.166 0 0 1 0-10.333Z"/><path fill="#000" stroke="#000" d="M211.167 381.667a5.166 5.166 0 1 1 0 10.333 5.166 5.166 0 0 1 0-10.333Z"/><path fill="#000" stroke="#000" d="M221.5 381.667a5.167 5.167 0 1 1 0 10.333 5.167 5.167 0 0 1 0-10.333Zm20.666 0a5.167 5.167 0 1 1 0 10.333 5.167 5.167 0 0 1 0-10.333Zm62.001 0a5.166 5.166 0 1 1 0 10.333 5.166 5.166 0 0 1 0-10.333Zm30.999 0a5.167 5.167 0 1 1 0 10.333 5.167 5.167 0 0 1 0-10.333Z"/><path fill="#000" stroke="#000" d="M345.5 381.667a5.166 5.166 0 1 1 0 10.333 5.166 5.166 0 0 1 0-10.333Zm31 0a5.166 5.166 0 1 1 0 10.333 5.166 5.166 0 0 1 0-10.333Zm41.333 0a5.167 5.167 0 1 1 0 10.333 5.167 5.167 0 0 1 0-10.333Z"/><path fill="#000" stroke="#000" d="M428.166 381.667a5.167 5.167 0 1 1 0 10.333 5.167 5.167 0 0 1 0-10.333Zm31 0a5.167 5.167 0 1 1 0 10.333 5.167 5.167 0 0 1 0-10.333ZM138.833 392a5.167 5.167 0 1 1 0 10.333 5.167 5.167 0 0 1 0-10.333Z"/><path fill="#000" stroke="#000" d="M149.166 392a5.167 5.167 0 1 1 0 10.333 5.167 5.167 0 0 1 0-10.333Zm31 0a5.167 5.167 0 1 1 0 10.333 5.167 5.167 0 0 1 0-10.333Zm20.668 0a5.166 5.166 0 1 1 0 10.333 5.166 5.166 0 0 1 0-10.333Z"/><path fill="#000" stroke="#000" d="M211.167 392a5.166 5.166 0 1 1 0 10.333 5.166 5.166 0 0 1 0-10.333Z"/><path fill="#000" stroke="#000" d="M221.5 392a5.167 5.167 0 1 1 0 10.333 5.167 5.167 0 0 1 0-10.333Z"/><path fill="#000" stroke="#000" d="M231.833 392a5.167 5.167 0 1 1 0 10.333 5.167 5.167 0 0 1 0-10.333Z"/><path fill="#000" stroke="#000" d="M242.166 392a5.167 5.167 0 1 1 0 10.333 5.167 5.167 0 0 1 0-10.333Zm20.667 0a5.167 5.167 0 1 1 0 10.333 5.167 5.167 0 0 1 0-10.333Zm20.667 0a5.167 5.167 0 1 1 0 10.333 5.167 5.167 0 0 1 0-10.333Zm20.667 0a5.166 5.166 0 1 1 0 10.333 5.166 5.166 0 0 1 0-10.333Z"/><path fill="#000" stroke="#000" d="M314.5 392a5.167 5.167 0 1 1 0 10.333 5.167 5.167 0 0 1 0-10.333Zm20.666 0a5.167 5.167 0 1 1 0 10.333 5.167 5.167 0 0 1 0-10.333Zm20.667 0a5.166 5.166 0 1 1 0 10.333 5.166 5.166 0 0 1 0-10.333Zm20.667 0a5.166 5.166 0 1 1 0 10.333 5.166 5.166 0 0 1 0-10.333Zm20.667 0a5.166 5.166 0 1 1 0 10.333 5.166 5.166 0 0 1 0-10.333Zm20.666 0a5.167 5.167 0 1 1 0 10.333 5.167 5.167 0 0 1 0-10.333Zm31 0a5.166 5.166 0 1 1 0 10.333 5.166 5.166 0 0 1 0-10.333Zm-310 10.333a5.167 5.167 0 1 1 0 10.334 5.167 5.167 0 0 1 0-10.334Zm20.667 0a5.167 5.167 0 1 1-.002 10.334 5.167 5.167 0 0 1 .002-10.334Z"/><path fill="#000" stroke="#000" d="M169.833 402.333a5.167 5.167 0 1 1-.002 10.334 5.167 5.167 0 0 1 .002-10.334Zm41.334 0a5.167 5.167 0 1 1-.002 10.334 5.167 5.167 0 0 1 .002-10.334Zm20.666 0a5.167 5.167 0 1 1 0 10.334 5.167 5.167 0 0 1 0-10.334Zm20.667 0a5.167 5.167 0 1 1-.002 10.334 5.167 5.167 0 0 1 .002-10.334Zm20.666 0a5.167 5.167 0 1 1 0 10.334 5.167 5.167 0 0 1 0-10.334Zm31.001 0a5.167 5.167 0 1 1-.002 10.334 5.167 5.167 0 0 1 .002-10.334Zm20.666 0a5.167 5.167 0 1 1 0 10.334 5.167 5.167 0 0 1 0-10.334Zm31 0a5.167 5.167 0 1 1-.002 10.334 5.167 5.167 0 0 1 .002-10.334Zm20.667 0a5.167 5.167 0 1 1-.002 10.334 5.167 5.167 0 0 1 .002-10.334Zm41.333 0a5.167 5.167 0 1 1 0 10.334 5.167 5.167 0 0 1 0-10.334Zm20.667 0a5.167 5.167 0 1 1-.002 10.334 5.167 5.167 0 0 1 .002-10.334Zm-299.667 10.334a5.166 5.166 0 1 1 .001 10.333 5.166 5.166 0 0 1-.001-10.333Z"/><path fill="#000" stroke="#000" d="M252.5 412.667a5.166 5.166 0 1 1 0 10.332 5.166 5.166 0 0 1 0-10.332Zm51.667 0a5.166 5.166 0 1 1 0 10.332 5.166 5.166 0 0 1 0-10.332Zm30.999 0a5.166 5.166 0 1 1 .001 10.333 5.166 5.166 0 0 1-.001-10.333Zm20.667 0a5.166 5.166 0 1 1 0 10.332 5.166 5.166 0 0 1 0-10.332Zm20.667 0a5.166 5.166 0 1 1 0 10.332 5.166 5.166 0 0 1 0-10.332Z"/><path fill="#000" stroke="#000" d="M386.834 412.667a5.166 5.166 0 1 1 0 10.332 5.166 5.166 0 0 1 0-10.332Z"/><path fill="#000" stroke="#000" d="M397.167 412.667a5.166 5.166 0 1 1 0 10.332 5.166 5.166 0 0 1 0-10.332Z"/><path fill="#000" stroke="#000" d="M407.5 412.667a5.166 5.166 0 1 1 .001 10.333 5.166 5.166 0 0 1-.001-10.333Z"/><path fill="#000" stroke="#000" d="M417.833 412.667a5.166 5.166 0 1 1 .001 10.333 5.166 5.166 0 0 1-.001-10.333Z"/><path fill="#000" stroke="#000" d="M428.166 412.667a5.166 5.166 0 1 1 .001 10.333 5.166 5.166 0 0 1-.001-10.333Zm20.667 0a5.166 5.166 0 1 1 0 10.332 5.166 5.166 0 0 1 0-10.332ZM128.5 423a5.167 5.167 0 1 1 0 10.333 5.167 5.167 0 0 1 0-10.333Z"/><path fill="#000" stroke="#000" d="M138.833 423a5.167 5.167 0 1 1 0 10.333 5.167 5.167 0 0 1 0-10.333Zm20.667 0a5.166 5.166 0 0 1 5.166 5.167 5.166 5.166 0 1 1-10.333 0A5.167 5.167 0 0 1 159.5 423Zm31 0a5.167 5.167 0 1 1 0 10.333 5.167 5.167 0 0 1 0-10.333Zm20.667 0a5.166 5.166 0 0 1 5.166 5.167 5.166 5.166 0 1 1-10.333 0 5.167 5.167 0 0 1 5.167-5.167Z"/><path fill="#000" stroke="#000" d="M221.5 423a5.167 5.167 0 1 1 0 10.333 5.167 5.167 0 0 1 0-10.333Zm41.333 0a5.167 5.167 0 1 1 0 10.333 5.167 5.167 0 0 1 0-10.333Z"/><path fill="#000" stroke="#000" d="M273.166 423a5.167 5.167 0 1 1 0 10.333 5.167 5.167 0 0 1 0-10.333Z"/><path fill="#000" stroke="#000" d="M283.5 423a5.167 5.167 0 1 1 0 10.333 5.167 5.167 0 0 1 0-10.333Zm20.667 0a5.166 5.166 0 0 1 5.166 5.167 5.166 5.166 0 1 1-10.333 0 5.167 5.167 0 0 1 5.167-5.167Zm51.666 0a5.166 5.166 0 0 1 5.166 5.167 5.166 5.166 0 1 1-10.333 0 5.167 5.167 0 0 1 5.167-5.167Zm20.667 0a5.166 5.166 0 0 1 5.166 5.167 5.166 5.166 0 1 1-10.333 0A5.167 5.167 0 0 1 376.5 423Zm10.334 0a5.166 5.166 0 0 1 5.166 5.167 5.166 5.166 0 1 1-10.333 0 5.167 5.167 0 0 1 5.167-5.167Z"/><path fill="#000" stroke="#000" d="M397.167 423a5.166 5.166 0 0 1 5.166 5.167 5.166 5.166 0 1 1-10.333 0 5.167 5.167 0 0 1 5.167-5.167Zm20.666 0a5.167 5.167 0 1 1 0 10.333 5.167 5.167 0 0 1 0-10.333Z"/><path fill="#000" stroke="#000" d="M428.166 423a5.167 5.167 0 1 1 0 10.333 5.167 5.167 0 0 1 0-10.333Zm20.667 0a5.166 5.166 0 0 1 5.166 5.167 5.166 5.166 0 1 1-10.333 0 5.167 5.167 0 0 1 5.167-5.167Zm-310 10.333a5.167 5.167 0 1 1 0 10.334 5.167 5.167 0 0 1 0-10.334Zm20.667 0a5.167 5.167 0 1 1-.002 10.334 5.167 5.167 0 0 1 .002-10.334Zm20.666 0a5.167 5.167 0 1 1 0 10.334 5.167 5.167 0 0 1 0-10.334Z"/><path fill="#000" stroke="#000" d="M190.5 433.333a5.167 5.167 0 1 1 0 10.334 5.167 5.167 0 0 1 0-10.334Zm41.333 0a5.167 5.167 0 1 1 0 10.334 5.167 5.167 0 0 1 0-10.334Z"/><path fill="#000" stroke="#000" d="M242.166 433.333a5.167 5.167 0 1 1 0 10.334 5.167 5.167 0 0 1 0-10.334Z"/><path fill="#000" stroke="#000" d="M252.5 433.333a5.167 5.167 0 1 1-.002 10.334 5.167 5.167 0 0 1 .002-10.334Zm20.666 0a5.167 5.167 0 1 1 0 10.334 5.167 5.167 0 0 1 0-10.334Zm31.001 0a5.167 5.167 0 1 1-.002 10.334 5.167 5.167 0 0 1 .002-10.334Z"/><path fill="#000" stroke="#000" d="M314.5 433.333a5.167 5.167 0 1 1 0 10.334 5.167 5.167 0 0 1 0-10.334Zm62 0a5.167 5.167 0 1 1-.002 10.334 5.167 5.167 0 0 1 .002-10.334Zm41.333 0a5.167 5.167 0 1 1 0 10.334 5.167 5.167 0 0 1 0-10.334Z"/><path fill="#000" stroke="#000" d="M428.166 433.333a5.167 5.167 0 1 1 0 10.334 5.167 5.167 0 0 1 0-10.334Z"/><path fill="#000" stroke="#000" d="M438.5 433.333a5.167 5.167 0 1 1-.002 10.334 5.167 5.167 0 0 1 .002-10.334Zm20.666 0a5.167 5.167 0 1 1 0 10.334 5.167 5.167 0 0 1 0-10.334Zm-320.333 10.334a5.167 5.167 0 1 1 0 10.333 5.167 5.167 0 0 1 0-10.333Zm20.667 0a5.166 5.166 0 1 1 0 10.333 5.166 5.166 0 0 1 0-10.333Zm20.666 0a5.167 5.167 0 1 1 0 10.333 5.167 5.167 0 0 1 0-10.333Zm41.334 0a5.167 5.167 0 1 1 0 10.333 5.167 5.167 0 0 1 0-10.333Zm51.666 0a5.167 5.167 0 1 1 0 10.333 5.167 5.167 0 0 1 0-10.333Z"/><path fill="#000" stroke="#000" d="M283.5 443.667a5.167 5.167 0 1 1 0 10.333 5.167 5.167 0 0 1 0-10.333Z"/><path fill="#000" stroke="#000" d="M293.834 443.667a5.166 5.166 0 1 1 0 10.333 5.166 5.166 0 0 1 0-10.333Z"/><path fill="#000" stroke="#000" d="M304.167 443.667a5.166 5.166 0 1 1 0 10.333 5.166 5.166 0 0 1 0-10.333Z"/><path fill="#000" stroke="#000" d="M314.5 443.667a5.167 5.167 0 1 1 0 10.333 5.167 5.167 0 0 1 0-10.333Z"/><path fill="#000" stroke="#000" d="M324.833 443.667a5.167 5.167 0 1 1 0 10.333 5.167 5.167 0 0 1 0-10.333Zm20.667 0a5.166 5.166 0 1 1 0 10.333 5.166 5.166 0 0 1 0-10.333Zm31 0a5.166 5.166 0 1 1 0 10.333 5.166 5.166 0 0 1 0-10.333Zm20.667 0a5.166 5.166 0 1 1 0 10.333 5.166 5.166 0 0 1 0-10.333Z"/><path fill="#000" stroke="#000" d="M407.5 443.667a5.167 5.167 0 1 1 0 10.333 5.167 5.167 0 0 1 0-10.333Zm20.666 0a5.167 5.167 0 1 1 0 10.333 5.167 5.167 0 0 1 0-10.333Zm20.667 0a5.166 5.166 0 1 1 0 10.333 5.166 5.166 0 0 1 0-10.333ZM149.166 454a5.167 5.167 0 1 1 0 10.333 5.167 5.167 0 0 1 0-10.333Z"/><path fill="#000" stroke="#000" d="M159.5 454a5.166 5.166 0 1 1 0 10.333 5.166 5.166 0 0 1 0-10.333Zm20.666 0a5.167 5.167 0 1 1 0 10.333 5.167 5.167 0 0 1 0-10.333Z"/><path fill="#000" stroke="#000" d="M190.5 454a5.167 5.167 0 1 1 0 10.333 5.167 5.167 0 0 1 0-10.333Zm20.667 0a5.166 5.166 0 1 1 0 10.333 5.166 5.166 0 0 1 0-10.333Z"/><path fill="#000" stroke="#000" d="M221.5 454a5.167 5.167 0 1 1 0 10.333 5.167 5.167 0 0 1 0-10.333Z"/><path fill="#000" stroke="#000" d="M231.833 454a5.167 5.167 0 1 1 0 10.333 5.167 5.167 0 0 1 0-10.333Z"/><path fill="#000" stroke="#000" d="M242.166 454a5.167 5.167 0 1 1 0 10.333 5.167 5.167 0 0 1 0-10.333Z"/><path fill="#000" stroke="#000" d="M252.5 454a5.166 5.166 0 1 1 0 10.333 5.166 5.166 0 0 1 0-10.333Zm51.667 0a5.166 5.166 0 1 1 0 10.333 5.166 5.166 0 0 1 0-10.333Zm20.666 0a5.167 5.167 0 1 1 0 10.333 5.167 5.167 0 0 1 0-10.333Zm20.667 0a5.166 5.166 0 1 1 0 10.333 5.166 5.166 0 0 1 0-10.333Zm31 0a5.166 5.166 0 1 1 0 10.333 5.166 5.166 0 0 1 0-10.333Z"/><path fill="#000" stroke="#000" d="M386.834 454a5.166 5.166 0 1 1 0 10.333 5.166 5.166 0 0 1 0-10.333Z"/><path fill="#000" stroke="#000" d="M397.167 454a5.166 5.166 0 1 1 0 10.333 5.166 5.166 0 0 1 0-10.333Z"/><path fill="#000" stroke="#000" d="M407.5 454a5.167 5.167 0 1 1 0 10.333 5.167 5.167 0 0 1 0-10.333Z"/><path fill="#000" stroke="#000" d="M417.833 454a5.167 5.167 0 1 1 0 10.333 5.167 5.167 0 0 1 0-10.333Z"/><path fill="#000" stroke="#000" d="M428.166 454a5.167 5.167 0 1 1 0 10.333 5.167 5.167 0 0 1 0-10.333Z"/><path fill="#000" stroke="#000" d="M438.5 454a5.166 5.166 0 1 1 0 10.333 5.166 5.166 0 0 1 0-10.333Z"/><path fill="#000" stroke="#000" d="M448.833 454a5.166 5.166 0 1 1 0 10.333 5.166 5.166 0 0 1 0-10.333ZM76.53 91.726c8.392 0 15.195-6.804 15.195-15.196 0-8.393-6.803-15.197-15.196-15.197-8.392 0-15.196 6.804-15.196 15.197 0 8.392 6.803 15.196 15.196 15.196Zm351.333 0c8.392 0 15.196-6.804 15.196-15.196 0-8.393-6.804-15.197-15.196-15.197-8.393 0-15.196 6.804-15.196 15.197 0 8.392 6.803 15.196 15.196 15.196ZM76.53 443.059c8.392 0 15.195-6.804 15.195-15.196 0-8.393-6.803-15.196-15.196-15.196-8.392 0-15.196 6.803-15.196 15.196 0 8.392 6.803 15.196 15.196 15.196Z"/><path fill="#000" d="M88.305 40.672H65.362c-11.181 0-20.654 7.388-23.683 17.485a23.966 23.966 0 0 0-1.013 6.928v23.487c0 13.468 11.082 24.42 24.696 24.42l11.471.002 11.472-.003c13.613 0 24.695-10.952 24.695-24.42V65.086c0-13.461-11.082-24.412-24.695-24.412Zm13.845 47.9c0 7.483-6.21 13.57-13.848 13.57l-11.469.002-11.468-.003c-7.638 0-13.848-6.087-13.848-13.569V65.085c0-2.337.606-4.537 1.673-6.46a13.76 13.76 0 0 1 4.23-4.645 13.964 13.964 0 0 1 7.941-2.457h22.944c7.634 0 13.845 6.083 13.845 13.562v23.487Zm337.488-47.9h-22.943c-11.181 0-20.654 7.388-23.682 17.485a23.844 23.844 0 0 0-.728 3.215 24.314 24.314 0 0 0-.285 3.713v23.487c0 13.468 11.081 24.42 24.695 24.42l11.472.002 11.471-.003c13.613 0 24.695-10.952 24.695-24.42V65.086c0-13.461-11.081-24.412-24.695-24.412Zm13.845 47.9c0 7.483-6.21 13.57-13.848 13.57l-11.468.002-11.469-.003c-7.637 0-13.848-6.087-13.848-13.569V65.085c0-2.337.606-4.537 1.673-6.46a13.757 13.757 0 0 1 4.23-4.645 13.966 13.966 0 0 1 7.942-2.457h22.943c7.635 0 13.845 6.083 13.845 13.562v23.487ZM88.305 392.006H65.362c-11.181 0-20.654 7.387-23.683 17.484a23.99 23.99 0 0 0-1.013 6.928v23.488c0 13.467 11.082 24.419 24.696 24.419l11.471.003 11.472-.003c13.613 0 24.695-10.952 24.695-24.42v-23.487c0-13.461-11.082-24.412-24.695-24.412Zm13.845 47.9c0 7.482-6.21 13.569-13.848 13.569l-11.469.003-11.468-.003c-7.638 0-13.848-6.088-13.848-13.569v-23.488c0-2.337.606-4.537 1.673-6.46a13.762 13.762 0 0 1 4.23-4.644 13.962 13.962 0 0 1 7.941-2.458h22.944c7.634 0 13.845 6.084 13.845 13.562v23.488Z"/></mask><g mask="url(#b)"><path fill="url(#c)" d="M485 20H20v465h465V20Z"/></g><path fill="#FAAD40" d="M291.105 260.162c-3.401 1.099-7.111 1-10.387-.327l1.167-3.616 3.441-10.649-11.794-8.617c2.618-4.163 7.815-7.026 12.826-6.945 17.316.262 21.333 24.381 4.744 30.154m-12.964 40.129c-10.203 3.466-20.966-5.047-20.075-15.809h14.691c.829-2.563 3.694-11.43 4.472-13.847 14.774 3.948 15.483 24.767.912 29.653m-41.955 0c-14.457 4.602-26.102-12.231-16.821-24.26 1.978-2.549 4.915-4.565 8.233-5.393l4.473 13.844h14.691c.501 7.033-3.819 13.606-10.579 15.809m-32.327-50.049c-5.094-17.264 17.196-28.037 27.434-13.284l-3.049 2.228-8.74 6.384 3.446 10.666 1.165 3.602a16.84 16.84 0 0 1-.89.325c-7.863 2.629-16.77-1.761-19.364-9.921m37.699 21.114-6.712-20.77 17.567-12.837c4.609 3.364 12.959 9.47 17.568 12.837-1.778 5.508-4.931 15.256-6.712 20.77h-21.714m-4.51-50.689c0-8.535 6.879-15.453 15.366-15.453 12.817-.064 20.003 15.153 12.01 25.086-1.999-1.461-9.865-7.207-12.01-8.776a82343.07 82343.07 0 0 0-12.01 8.776c-2.103-2.627-3.356-6.052-3.356-9.633Zm78.228 15.35c-4.414-13.975-18.53-22.893-32.957-20.856-6.682-33.234-53.107-33.264-59.805-.005a30.229 30.229 0 0 0-13.436 1.227c-25.344 8.205-28.356 43.522-5.04 56.01-9.747 19.739 5.166 44.05 27.4 43.782 7.654.07 15.605-3.181 20.968-8.44 22.94 21.531 59.274-1.209 49.908-31.592a31.057 31.057 0 0 0-1.503-3.774c12.652-6.583 19.15-22.74 14.467-36.354"/></g><defs><linearGradient id="c" x1="252.5" x2="252.5" y1="20" y2="485" gradientUnits="userSpaceOnUse"><stop stop-color="#FAAD40"/><stop offset=".255" stop-color="#B76E66"/><stop offset=".654" stop-color="#702B8F"/></linearGradient><clipPath id="a"><path fill="#fff" d="M0 0h505v505H0z"/></clipPath></defs></svg>